<svg width="38" height="25" viewBox="0 0 38 25" fill="none" xmlns="http://www.w3.org/2000/svg">
<g clip-path="url(#clip0_31_4756)">
<rect x="0.135864" y="0.201538" width="37.6587" height="24.1016" rx="2.25952" fill="#499FE3"/>
<path d="M12.0562 13.8274V9.25715C12.0562 8.47695 11.4165 7.85205 10.6363 7.85205H4.56845C3.77346 7.85205 3.14856 8.47695 3.14856 9.25715V15.2473C3.14856 16.0275 3.78825 16.6524 4.56845 16.6524H10.6215C11.4165 16.6524 12.0414 16.0275 12.0414 15.2473V15.1845C12.0414 15.1845 9.71557 14.2342 8.54711 13.6721C7.76691 14.6224 6.75376 15.1993 5.69254 15.1993C5.03805 15.1993 4.4908 14.9663 4.16541 14.6224C4.01011 14.4523 3.89918 14.249 3.83632 14.0308C3.83632 14.016 3.82153 13.9827 3.82153 13.9679C3.82153 13.9679 3.80674 13.9384 3.80674 13.8903C3.72909 13.4688 3.85481 13.0324 4.16541 12.659C4.35399 12.4408 4.66459 12.2227 5.14898 12.1117C5.91439 11.9232 7.11613 12.2227 8.23651 12.5961C8.43988 12.2227 8.60997 11.8159 8.73569 11.3796H5.271V11.0357H7.06436V10.4108H4.89385V10.0669H7.06066V9.1795C7.06066 9.1795 7.06066 9.0242 7.21596 9.0242H8.08861V10.0706H10.248V10.4145H8.096V11.0394H9.84129C9.6712 11.7272 9.41976 12.3484 9.09436 12.8956C9.62313 13.0842 10.1075 13.2691 10.4662 13.38C11.7604 13.7979 12.0562 13.8274 12.0562 13.8274ZM5.31538 12.6257C5.09722 12.6405 4.67568 12.7514 4.44273 12.9363C3.75497 13.5279 4.16171 14.6039 5.55203 14.6039C6.36181 14.6039 7.1605 14.09 7.79649 13.2765C6.89057 12.8624 6.14365 12.5481 5.31538 12.6257Z" fill="white"/>
<path d="M17.266 14.4193H18.4678L16.2233 9.5199H15.8942C15.8461 9.5199 15.7833 9.53469 15.7389 9.56797C15.6945 9.60125 15.6612 9.64562 15.628 9.69369L13.3502 14.4193H14.16L14.5667 13.6243H16.8926L17.266 14.4193ZM15.7537 11.1136L16.7373 13.2212H14.722L15.7537 11.1136ZM20.0282 14.4193H18.9374V9.74176C18.9374 9.69369 18.9521 9.63083 19.0002 9.58645C19.0483 9.53839 19.0927 9.5236 19.1555 9.5236H20.0429V14.423H20.0282V14.4193ZM20.9785 11.0211C20.9785 10.9731 20.9932 10.9102 21.0413 10.8806C21.0894 10.8326 21.1338 10.8178 21.1966 10.8178H22.084V14.423H20.9748V11.0211H20.9785ZM23.0048 11.0211C23.0048 10.9731 23.0195 10.9102 23.0676 10.8658C23.1157 10.8178 23.1601 10.803 23.2229 10.803H24.1104V11.084C24.2361 10.9731 24.3766 10.8954 24.5467 10.8326C24.702 10.7697 24.9053 10.7401 25.1235 10.7401C25.3565 10.7401 25.5598 10.7882 25.7632 10.8806C25.9518 10.9731 26.1219 11.0988 26.2476 11.2541C26.3881 11.4094 26.4805 11.5832 26.5582 11.8013C26.6358 12.0047 26.6691 12.2229 26.6691 12.4558C26.6691 12.7516 26.621 13.0179 26.5434 13.2656C26.451 13.517 26.3252 13.7352 26.1699 13.9201C26.0146 14.1087 25.8113 14.2492 25.5783 14.3564C25.3454 14.4673 25.0939 14.5117 24.7981 14.5117C24.6576 14.5117 24.5319 14.5117 24.4247 14.4969C24.3137 14.4821 24.2213 14.4673 24.114 14.4193V15.8687H23.0048V11.0211ZM24.114 13.4061C24.114 13.4986 24.1288 13.5762 24.1621 13.6576C24.1917 13.7352 24.2398 13.7981 24.3026 13.8609C24.3655 13.9238 24.4283 13.9719 24.5208 14.0014C24.5984 14.031 24.6909 14.0495 24.8018 14.0495C24.8943 14.0495 24.9904 14.0199 25.068 13.9571C25.1457 13.8942 25.2233 13.8166 25.2862 13.6908C25.3491 13.5799 25.3971 13.4394 25.4415 13.2841C25.4711 13.1288 25.5044 12.955 25.5044 12.7849C25.5044 12.552 25.4896 12.3486 25.4563 12.1748C25.4267 12.0047 25.3786 11.8457 25.3158 11.7385C25.2529 11.6128 25.1901 11.5351 25.1124 11.4723C25.0348 11.4094 24.9423 11.3798 24.8462 11.3798C24.7833 11.3798 24.7057 11.3946 24.6428 11.4094C24.58 11.439 24.5171 11.4723 24.4542 11.5018C24.3914 11.5499 24.3433 11.5943 24.2841 11.6423C24.2361 11.7052 24.1732 11.7533 24.1288 11.8124V13.4024H24.114V13.4061ZM29.5126 10.8474C28.9838 10.692 28.3109 10.6773 27.4049 10.9102C27.4345 11.0027 27.4678 11.1616 27.4974 11.2541C28.9469 11.0027 29.2131 11.1912 29.2131 11.8161V12.0047C28.9469 11.9899 28.6363 11.9419 28.3848 11.9419C27.4013 11.9271 27.0426 12.7073 27.0426 13.2064C27.0426 14.0643 27.8708 14.8741 29.2094 14.2825V14.423H30.3335V11.7866C30.352 11.2689 29.9156 10.9583 29.5126 10.8474ZM27.9522 13.2212C27.9522 12.7997 28.2961 12.4891 28.7176 12.4558C28.9838 12.441 29.1391 12.4854 29.2316 12.5483V13.7796C29.0911 13.9053 28.921 13.9829 28.7176 13.9829C28.2776 13.9829 27.9522 13.6391 27.9522 13.2212ZM30.6515 10.7401H31.8199L32.9736 12.955L33.9239 10.8806C33.9387 10.8326 33.972 10.803 34.0163 10.7697C34.0644 10.7401 34.1088 10.7401 34.1568 10.7401H34.7817L32.9551 14.7484C32.5188 15.8392 31.4428 15.6839 31.2542 15.6839V15.0738C31.3947 15.0738 31.8939 15.0738 32.112 14.8408C32.1601 14.7927 32.2045 14.6855 32.2378 14.6226C32.271 14.5598 32.3006 14.4969 32.3302 14.4341L32.4559 14.1382L30.6515 10.7401Z" fill="white"/>
<path d="M22.1322 9.74157C22.1322 10.0374 21.8659 10.2703 21.5405 10.2703C21.2114 10.2703 20.9489 10.0374 20.9489 9.74157C20.9489 9.44576 21.2151 9.21281 21.5405 9.21281C21.8659 9.20911 22.1322 9.44576 22.1322 9.74157Z" fill="white"/>
</g>
<defs>
<clipPath id="clip0_31_4756">
<rect width="37.6587" height="24.1016" fill="white" transform="translate(0.135864 0.201538)"/>
</clipPath>
</defs>
</svg>
