<svg width="39" height="25" viewBox="0 0 39 25" fill="none" xmlns="http://www.w3.org/2000/svg">
<g clip-path="url(#clip0_31_4755)">
<rect x="0.451782" y="0.201538" width="37.6587" height="24.1016" rx="2.25952" fill="#333333"/>
<path fill-rule="evenodd" clip-rule="evenodd" d="M22.7446 15.6748C21.07 16.8927 18.6722 17.5397 16.617 17.5397C13.7245 17.5397 11.0984 16.4741 9.11933 14.6853C8.96709 14.5331 9.11934 14.3428 9.27158 14.4569C11.4029 15.7129 14.0671 16.436 16.7693 16.436C18.5961 16.436 20.6513 16.0554 22.5162 15.2562C22.7826 15.1801 23.011 15.4845 22.7446 15.6748Z" fill="#FF9201"/>
<path fill-rule="evenodd" clip-rule="evenodd" d="M23.4296 14.8756C23.2013 14.6092 22.0214 14.7614 21.4886 14.7995C21.3364 14.8375 21.2983 14.6853 21.4506 14.5711C22.402 13.8861 23.9625 14.1144 24.1528 14.3047C24.3431 14.5331 24.1147 16.0935 23.2013 16.8547C23.049 16.9689 22.9349 16.8927 23.011 16.7405C23.1632 16.2838 23.6199 15.1801 23.4296 14.8756Z" fill="#FF9201"/>
<path fill-rule="evenodd" clip-rule="evenodd" d="M21.5266 9.88995V9.24294C21.5266 9.12876 21.6028 9.0907 21.6789 9.0907H24.5714C24.6475 9.0907 24.7236 9.16682 24.7236 9.24294V9.81383C24.7236 9.88995 24.6475 10.0422 24.4953 10.2325L22.9729 12.4019C23.5438 12.4019 24.1147 12.478 24.6475 12.7444C24.7617 12.8205 24.7997 12.8966 24.7997 13.0108V13.6959C24.7997 13.772 24.6856 13.8862 24.5714 13.8481C23.658 13.3914 22.4781 13.3153 21.4886 13.8481C21.3744 13.8862 21.2983 13.8101 21.2983 13.6959V13.0108C21.2983 12.8966 21.2983 12.7444 21.4125 12.5541L23.1632 10.0422H21.6408C21.6028 10.0422 21.5266 9.96606 21.5266 9.88995Z" fill="white"/>
<path fill-rule="evenodd" clip-rule="evenodd" d="M10.9081 13.9242H10.0327C9.95662 13.9242 9.88049 13.8481 9.88049 13.7719V9.24288C9.88049 9.16677 9.95662 9.09064 10.0327 9.09064H10.87C10.9462 9.09064 11.0223 9.16677 11.0223 9.24288V9.85183C11.2506 9.28094 11.6312 9.01453 12.2021 9.01453C12.773 9.01453 13.1155 9.28094 13.3439 9.85183C13.5723 9.28094 14.029 9.01453 14.5618 9.01453C14.9424 9.01453 15.323 9.16676 15.5894 9.5093C15.8558 9.88989 15.8178 10.4608 15.8178 10.9175V13.7719C15.8178 13.8481 15.7416 13.9242 15.6655 13.9242H14.7902C14.714 13.9242 14.6379 13.8481 14.6379 13.7719V11.3742C14.6379 11.1839 14.6379 10.6891 14.5999 10.5369C14.5237 10.2324 14.3334 10.1563 14.067 10.1563C13.8387 10.1563 13.6103 10.3085 13.5342 10.5369C13.4581 10.7653 13.4581 11.1458 13.4581 11.4123V13.81C13.4581 13.8861 13.382 13.9622 13.3058 13.9622H12.4305C12.3544 13.9622 12.2782 13.8861 12.2782 13.81V11.4123C12.2782 10.9175 12.3544 10.1563 11.7454 10.1563C11.0984 10.1563 11.1365 10.8794 11.1365 11.4123V13.81C11.0604 13.8481 10.9842 13.9242 10.9081 13.9242Z" fill="white"/>
<path fill-rule="evenodd" clip-rule="evenodd" d="M27.2736 8.97632C28.6057 8.97632 29.2907 10.1181 29.2907 11.5263C29.2907 12.8964 28.4915 14.0002 27.2736 14.0002C25.9796 14.0002 25.2945 12.8584 25.2945 11.4502C25.2565 10.08 25.9796 8.97632 27.2736 8.97632ZM27.2736 9.9278C26.6266 9.9278 26.5885 10.8032 26.5885 11.3741C26.5885 11.9449 26.5885 13.1248 27.2736 13.1248C27.9587 13.1248 27.9967 12.1733 27.9967 11.6024C27.9967 11.2218 27.9968 10.7651 27.8826 10.3845C27.7684 10.042 27.54 9.9278 27.2736 9.9278Z" fill="white"/>
<path fill-rule="evenodd" clip-rule="evenodd" d="M31.0034 13.924H30.1281C30.0519 13.924 29.9758 13.8479 29.9758 13.7718V9.24274C29.9758 9.16662 30.0519 9.0905 30.1281 9.0905H30.9654C31.0415 9.0905 31.1176 9.12856 31.1176 9.20468V9.88975C31.384 9.2808 31.7265 8.97632 32.3355 8.97632C32.7161 8.97632 33.1347 9.12856 33.3631 9.50915C33.5915 9.88975 33.5915 10.4987 33.5915 10.9173V13.7718C33.5915 13.8479 33.5153 13.924 33.4392 13.924H32.5639C32.4877 13.924 32.4116 13.8479 32.4116 13.7718V11.2979C32.4116 10.8032 32.4877 10.08 31.8407 10.08C31.6124 10.08 31.4221 10.2323 31.346 10.4606C31.2318 10.7271 31.1937 11.0315 31.1937 11.336V13.7718C31.1557 13.8479 31.0795 13.924 31.0034 13.924Z" fill="white"/>
<path fill-rule="evenodd" clip-rule="evenodd" d="M19.205 11.7549C19.205 12.0974 19.205 12.4019 19.0527 12.7063C18.9005 12.9728 18.6721 13.125 18.4438 13.125C18.1013 13.125 17.911 12.8586 17.911 12.478C17.911 11.7168 18.596 11.6026 19.243 11.6026V11.7549H19.205ZM20.0804 13.9242C20.0042 13.9623 19.9281 13.9623 19.8901 13.9623C19.5856 13.7339 19.5475 13.6198 19.3953 13.3534C18.9005 13.8481 18.558 14.0004 17.949 14.0004C17.1878 14.0004 16.6169 13.5437 16.6169 12.6302C16.6169 11.9071 16.9975 11.4123 17.5684 11.184C18.0632 10.9556 18.7102 10.9176 19.243 10.8795V10.7653C19.243 10.537 19.2431 10.3086 19.1289 10.1183C19.0147 9.96607 18.8244 9.88996 18.6341 9.88996C18.2915 9.88996 17.9871 10.0803 17.911 10.4228C17.911 10.4989 17.8348 10.575 17.7587 10.575L16.8834 10.4989C16.8072 10.4989 16.7311 10.4228 16.7692 10.3086C16.9595 9.28101 17.911 8.93848 18.7483 8.93848C19.1669 8.93848 19.7378 9.05265 20.0804 9.39519C20.499 9.81384 20.4609 10.3467 20.4609 10.9176V12.2877C20.4609 12.7064 20.6512 12.8966 20.8035 13.125C20.8415 13.2011 20.8796 13.3153 20.8035 13.3534C20.5751 13.5056 20.2707 13.772 20.0804 13.9242Z" fill="white"/>
<path fill-rule="evenodd" clip-rule="evenodd" d="M7.5969 11.7549C7.5969 12.0974 7.59692 12.4019 7.44468 12.7063C7.29244 12.9728 7.06407 13.125 6.83572 13.125C6.49318 13.125 6.3029 12.8586 6.3029 12.478C6.3029 11.7168 6.98797 11.6026 7.63498 11.6026V11.7549H7.5969ZM8.47229 13.9242C8.39617 13.9623 8.32004 13.9623 8.24392 13.9623C7.93944 13.7339 7.90139 13.6198 7.74915 13.3534C7.25438 13.8481 6.91185 14.0004 6.3029 14.0004C5.54171 14.0004 4.97083 13.5437 4.97083 12.6302C4.97083 11.9071 5.35142 11.4123 5.92231 11.184C6.41708 10.9556 7.06407 10.9176 7.5969 10.8795V10.7653C7.5969 10.537 7.59691 10.3086 7.48273 10.1183C7.36855 9.96607 7.17826 9.88996 6.98796 9.88996C6.64543 9.88996 6.34095 10.0803 6.26483 10.4228C6.26483 10.4989 6.18872 10.575 6.1126 10.575L5.23723 10.4989C5.16111 10.4989 5.085 10.4228 5.12306 10.3086C5.31336 9.28101 6.26483 8.93848 7.10214 8.93848C7.52079 8.93848 8.09168 9.05265 8.43421 9.39519C8.85287 9.81384 8.81481 10.3467 8.81481 10.9176V12.2877C8.81481 12.7064 9.00511 12.8966 9.15735 13.125C9.19541 13.2011 9.23347 13.3153 9.15735 13.3534C8.96705 13.5056 8.66258 13.772 8.47229 13.9242Z" fill="white"/>
</g>
<defs>
<clipPath id="clip0_31_4755">
<rect width="37.6587" height="24.1016" fill="white" transform="translate(0.451782 0.201538)"/>
</clipPath>
</defs>
</svg>
