<svg width="35" height="23" viewBox="0 0 35 23" fill="none" xmlns="http://www.w3.org/2000/svg">
<g clip-path="url(#clip0_31_5070)">
<rect x="0.0787125" y="0.69751" width="34.7354" height="22.2307" rx="2.08412" fill="#333333"/>
<path fill-rule="evenodd" clip-rule="evenodd" d="M20.641 14.9697C19.0964 16.093 16.8848 16.6898 14.9891 16.6898C12.3212 16.6898 9.89891 15.7069 8.07345 14.057C7.93303 13.9165 8.07346 13.741 8.21388 13.8463C10.1798 15.0048 12.6371 15.6718 15.1296 15.6718C16.8146 15.6718 18.7103 15.3207 20.4304 14.5835C20.6761 14.5133 20.8868 14.7942 20.641 14.9697Z" fill="#FF9201"/>
<path fill-rule="evenodd" clip-rule="evenodd" d="M21.2729 14.2325C21.0623 13.9868 19.974 14.1272 19.4826 14.1623C19.3421 14.1974 19.3071 14.057 19.4475 13.9517C20.3251 13.3198 21.7644 13.5304 21.9399 13.7059C22.1154 13.9166 21.9048 15.3559 21.0623 16.058C20.9219 16.1633 20.8166 16.0931 20.8868 15.9527C21.0272 15.5314 21.4485 14.5133 21.2729 14.2325Z" fill="#FF9201"/>
<path fill-rule="evenodd" clip-rule="evenodd" d="M19.5176 9.63393V9.03715C19.5176 8.93184 19.5878 8.89673 19.658 8.89673H22.326C22.3962 8.89673 22.4664 8.96694 22.4664 9.03715V9.56373C22.4664 9.63394 22.3962 9.77435 22.2558 9.94988L20.8516 11.9509C21.3782 11.9509 21.9047 12.0211 22.3962 12.2668C22.5015 12.337 22.5366 12.4072 22.5366 12.5125V13.1444C22.5366 13.2146 22.4313 13.32 22.326 13.2848C21.4835 12.8636 20.3952 12.7934 19.4825 13.2848C19.3772 13.32 19.307 13.2497 19.307 13.1444V12.5125C19.307 12.4072 19.307 12.2668 19.4123 12.0913L21.0271 9.77435H19.6229C19.5878 9.77435 19.5176 9.70414 19.5176 9.63393Z" fill="white"/>
<path fill-rule="evenodd" clip-rule="evenodd" d="M9.72333 13.355H8.91592C8.84571 13.355 8.77549 13.2847 8.77549 13.2145V9.03705C8.77549 8.96684 8.84571 8.89662 8.91592 8.89662H9.68823C9.75844 8.89662 9.82864 8.96684 9.82864 9.03705V9.59872C10.0393 9.07215 10.3903 8.82642 10.9169 8.82642C11.4435 8.82642 11.7594 9.07215 11.9701 9.59872C12.1807 9.07215 12.6019 8.82642 13.0934 8.82642C13.4445 8.82642 13.7955 8.96684 14.0412 9.28278C14.287 9.63383 14.2519 10.1604 14.2519 10.5817V13.2145C14.2519 13.2847 14.1817 13.355 14.1114 13.355H13.304C13.2338 13.355 13.1636 13.2847 13.1636 13.2145V11.0029C13.1636 10.8274 13.1636 10.371 13.1285 10.2306C13.0583 9.94977 12.8828 9.87956 12.637 9.87956C12.4264 9.87956 12.2158 10.02 12.1456 10.2306C12.0754 10.4412 12.0754 10.7923 12.0754 11.038V13.2496C12.0754 13.3198 12.0051 13.3901 11.9349 13.3901H11.1275C11.0573 13.3901 10.9871 13.3198 10.9871 13.2496V11.038C10.9871 10.5817 11.0573 9.87956 10.4956 9.87956C9.89886 9.87956 9.93397 10.5466 9.93397 11.038V13.2496C9.86376 13.2847 9.79354 13.355 9.72333 13.355Z" fill="white"/>
<path fill-rule="evenodd" clip-rule="evenodd" d="M24.8185 8.79102C26.0472 8.79102 26.679 9.84417 26.679 11.1431C26.679 12.4068 25.9418 13.4249 24.8185 13.4249C23.6249 13.4249 22.993 12.3717 22.993 11.0728C22.9579 9.80906 23.6249 8.79102 24.8185 8.79102ZM24.8185 9.66864C24.2217 9.66864 24.1866 10.4761 24.1866 11.0026C24.1866 11.5292 24.1866 12.6175 24.8185 12.6175C25.4504 12.6175 25.4855 11.7398 25.4855 11.2133C25.4855 10.8622 25.4855 10.441 25.3802 10.0899C25.2749 9.77396 25.0642 9.66864 24.8185 9.66864Z" fill="white"/>
<path fill-rule="evenodd" clip-rule="evenodd" d="M28.2587 13.3547H27.4513C27.3811 13.3547 27.3109 13.2844 27.3109 13.2142V9.03675C27.3109 8.96654 27.3811 8.89633 27.4513 8.89633H28.2236C28.2938 8.89633 28.3641 8.93144 28.3641 9.00165V9.63354C28.6098 9.07186 28.9257 8.79102 29.4874 8.79102C29.8384 8.79102 30.2246 8.93144 30.4352 9.28249C30.6459 9.63354 30.6459 10.1952 30.6459 10.5814V13.2142C30.6459 13.2844 30.5757 13.3547 30.5054 13.3547H29.698C29.6278 13.3547 29.5576 13.2844 29.5576 13.2142V10.9324C29.5576 10.4761 29.6278 9.80906 29.031 9.80906C28.8204 9.80906 28.6449 9.94948 28.5747 10.1601C28.4694 10.4058 28.4342 10.6867 28.4342 10.9675V13.2142C28.3991 13.2844 28.3289 13.3547 28.2587 13.3547Z" fill="white"/>
<path fill-rule="evenodd" clip-rule="evenodd" d="M17.3762 11.3539C17.3762 11.6698 17.3762 11.9507 17.2358 12.2315C17.0954 12.4772 16.8847 12.6176 16.6741 12.6176C16.3581 12.6176 16.1826 12.3719 16.1826 12.0209C16.1826 11.3188 16.8145 11.2134 17.4113 11.2134V11.3539H17.3762ZM18.1836 13.3548C18.1134 13.39 18.0432 13.39 18.0081 13.39C17.7272 13.1793 17.6921 13.074 17.5517 12.8283C17.0953 13.2846 16.7794 13.4251 16.2177 13.4251C15.5156 13.4251 14.9891 13.0038 14.9891 12.1613C14.9891 11.4943 15.3401 11.0379 15.8667 10.8273C16.323 10.6167 16.9198 10.5816 17.4113 10.5465V10.4411C17.4113 10.2305 17.4113 10.0199 17.306 9.84435C17.2007 9.70393 17.0251 9.63373 16.8496 9.63373C16.5337 9.63373 16.2528 9.80925 16.1826 10.1252C16.1826 10.1954 16.1124 10.2656 16.0422 10.2656L15.2348 10.1954C15.1646 10.1954 15.0944 10.1252 15.1295 10.0199C15.305 9.07204 16.1826 8.7561 16.9549 8.7561C17.3411 8.7561 17.8677 8.86142 18.1836 9.17736C18.5698 9.56352 18.5347 10.055 18.5347 10.5816V11.8453C18.5347 12.2315 18.7102 12.407 18.8506 12.6176C18.8857 12.6879 18.9208 12.7932 18.8506 12.8283C18.64 12.9687 18.3591 13.2144 18.1836 13.3548Z" fill="white"/>
<path fill-rule="evenodd" clip-rule="evenodd" d="M6.66919 11.3539C6.66919 11.6698 6.6692 11.9507 6.52878 12.2315C6.38836 12.4772 6.17772 12.6176 5.96709 12.6176C5.65115 12.6176 5.47564 12.3719 5.47564 12.0209C5.47564 11.3188 6.10752 11.2134 6.70431 11.2134V11.3539H6.66919ZM7.47662 13.3548C7.40641 13.39 7.33619 13.39 7.26598 13.39C6.98514 13.1793 6.95004 13.074 6.80962 12.8283C6.35326 13.2846 6.03732 13.4251 5.47564 13.4251C4.77354 13.4251 4.24696 13.0038 4.24696 12.1613C4.24696 11.4943 4.59801 11.0379 5.12459 10.8273C5.58095 10.6167 6.17772 10.5816 6.66919 10.5465V10.4411C6.66919 10.2305 6.6692 10.0199 6.56388 9.84435C6.45857 9.70393 6.28305 9.63373 6.10752 9.63373C5.79158 9.63373 5.51073 9.80925 5.44052 10.1252C5.44052 10.1954 5.37032 10.2656 5.30011 10.2656L4.49269 10.1954C4.42248 10.1954 4.35228 10.1252 4.38738 10.0199C4.56291 9.07204 5.44052 8.7561 6.21283 8.7561C6.59899 8.7561 7.12556 8.86142 7.4415 9.17736C7.82766 9.56352 7.79255 10.055 7.79255 10.5816V11.8453C7.79255 12.2315 7.96809 12.407 8.10851 12.6176C8.14361 12.6879 8.17872 12.7932 8.10851 12.8283C7.93298 12.9687 7.65215 13.2144 7.47662 13.3548Z" fill="white"/>
</g>
<defs>
<clipPath id="clip0_31_5070">
<rect width="34.7354" height="22.2307" fill="white" transform="translate(0.0787125 0.69751)"/>
</clipPath>
</defs>
</svg>
