<svg width="23" height="23" viewBox="0 0 23 23" fill="none" xmlns="http://www.w3.org/2000/svg">
<g clip-path="url(#clip0_31_5024)">
<path d="M17.7789 12.9367C17.1674 9.85913 20.0885 8.05417 20.0885 8.05417C20.0885 8.05417 18.9504 6.40758 17.0377 5.98398C15.1259 5.55945 14.169 6.08986 13.214 6.48767C12.2581 6.88646 11.7812 6.88646 11.7812 6.88646C10.4017 6.88646 9.39329 5.42589 6.76505 6.09083C4.95438 6.54778 3.04827 8.638 2.70388 11.1327C2.35949 13.6284 3.10267 16.8128 4.53556 19.2808C5.96844 21.7507 7.42809 22.6789 8.46409 22.7056C9.50014 22.7314 10.5343 21.9634 11.7812 21.7764C13.029 21.5914 13.7969 22.2287 15.0209 22.573C16.2401 22.9165 16.6675 22.5979 18.0718 21.4034C19.4798 20.209 20.7544 16.7832 20.7544 16.7832C20.7544 16.7832 18.3904 16.0162 17.7789 12.9367Z" fill="#1F2937"/>
<path d="M15.0715 3.99344C16.4262 2.61305 15.9673 0.476074 15.9673 0.476074C15.9673 0.476074 14.0651 0.809983 12.7905 2.13602C11.517 3.46303 11.7278 5.55896 11.7278 5.55896C11.7278 5.55896 13.7169 5.37294 15.0715 3.99344Z" fill="#1F2937"/>
</g>
<defs>
<clipPath id="clip0_31_5024">
<rect width="22.2307" height="22.2307" fill="white" transform="translate(0.572617 0.475098)"/>
</clipPath>
</defs>
</svg>
