<svg width="35" height="24" viewBox="0 0 35 24" fill="none" xmlns="http://www.w3.org/2000/svg">
<g clip-path="url(#clip0_31_5061)">
<rect x="0.0787125" y="0.90918" width="34.7354" height="22.2307" rx="2.08412" fill="black"/>
<path d="M7.66055 9.04346C5.79856 9.04346 4.24696 9.83341 4.24696 12.2166C4.24696 14.1047 5.2903 15.2937 7.70862 15.2937C10.5551 15.2937 10.7376 13.4186 10.7376 13.4186H9.35832C9.35832 13.4186 9.0626 14.4283 7.62449 14.4283C6.45318 14.4283 5.61074 13.637 5.61074 12.528H10.8818V11.832C10.8818 10.7348 10.1853 9.04346 7.66055 9.04346ZM7.61247 9.93291C8.72743 9.93291 9.48753 10.616 9.48753 11.6397H5.64124C5.64124 10.5529 6.63338 9.93291 7.61247 9.93291Z" fill="#E53238"/>
<path d="M10.8809 6.73584V14.097C10.8809 14.5148 10.8511 15.1015 10.8511 15.1015H12.1666C12.1666 15.1015 12.2138 14.6801 12.2138 14.2951C12.2138 14.2951 12.8638 15.3119 14.6311 15.3119C16.4921 15.3119 17.7562 14.0198 17.7562 12.1687C17.7562 10.4467 16.595 9.06164 14.6341 9.06164C12.7977 9.06164 12.2271 10.0533 12.2271 10.0533V6.73584H10.8809ZM14.2945 9.97213C15.5583 9.97213 16.3619 10.9101 16.3619 12.1687C16.3619 13.5184 15.4337 14.4014 14.3035 14.4014C12.9547 14.4014 12.2271 13.3482 12.2271 12.1807C12.2271 11.0929 12.88 9.97213 14.2945 9.97213Z" fill="#0064D2"/>
<path d="M21.0254 9.04346C18.2241 9.04346 18.0445 10.5773 18.0445 10.8224H19.4388C19.4388 10.8224 19.5119 9.9269 20.9292 9.9269C21.8502 9.9269 22.5639 10.3485 22.5639 11.1589V11.4474H20.9292C18.7591 11.4474 17.6118 12.0822 17.6118 13.3705C17.6118 14.6384 18.6718 15.3282 20.1044 15.3282C22.0567 15.3282 22.6856 14.2495 22.6856 14.2495C22.6856 14.6785 22.7187 15.1014 22.7187 15.1014H23.9582C23.9582 15.1014 23.9101 14.5773 23.9101 14.242V11.3437C23.9101 9.44338 22.3773 9.04346 21.0254 9.04346ZM22.5639 12.3128V12.6974C22.5639 13.1991 22.2543 14.4463 20.4319 14.4463C19.4339 14.4463 19.0061 13.9482 19.0061 13.3705C19.0061 12.3196 20.447 12.3128 22.5639 12.3128Z" fill="#F5AF02"/>
<path d="M23.1593 9.28442H24.7278L26.979 13.7944L29.2249 9.28442H30.6458L26.5548 17.3136H25.0644L26.2449 15.0753L23.1593 9.28442Z" fill="#86B817"/>
</g>
<defs>
<clipPath id="clip0_31_5061">
<rect width="34.7354" height="22.2307" fill="white" transform="translate(0.0787125 0.90918)"/>
</clipPath>
</defs>
</svg>
