<svg width="23" height="23" viewBox="0 0 23 23" fill="none" xmlns="http://www.w3.org/2000/svg">
<g clip-path="url(#clip0_31_5002)">
<path fill-rule="evenodd" clip-rule="evenodd" d="M11.5731 0.811768C13.577 0.834635 15.3874 1.32714 17.0042 2.28929C18.6017 3.23224 19.9306 4.56925 20.8637 6.17248C21.82 7.79901 22.3096 9.62034 22.3324 11.6365C22.2756 14.3951 21.4055 16.7511 19.7222 18.7047C18.0388 20.6584 15.8828 21.867 13.651 22.3303V14.5961H15.761L16.2382 11.5568H13.0431V9.56609C13.0253 9.1534 13.1559 8.74799 13.411 8.42316C13.6665 8.09743 14.1165 7.92624 14.7609 7.90956H16.6903V5.24716C16.6626 5.23826 16.3999 5.20303 15.9022 5.1415C15.3378 5.07546 14.7702 5.04018 14.2019 5.03583C12.9158 5.04177 11.8986 5.40457 11.1504 6.12424C10.4022 6.84371 10.02 7.88463 10.0038 9.24699V11.5568H7.57227V14.5961H10.0038V22.3303C7.26335 21.867 5.10736 20.6584 3.424 18.7047C1.74063 16.7511 0.870598 14.395 0.813797 11.6365C0.836523 9.62025 1.32605 7.79891 2.28239 6.17248C3.21559 4.56925 4.54449 3.23224 6.142 2.28929C7.75875 1.32733 9.5691 0.83482 11.5731 0.811768Z" fill="#1F2937"/>
</g>
<defs>
<clipPath id="clip0_31_5002">
<rect width="22.2307" height="22.2307" fill="white" transform="translate(0.492554 0.475098)"/>
</clipPath>
</defs>
</svg>
