<svg width="36" height="24" viewBox="0 0 36 24" fill="none" xmlns="http://www.w3.org/2000/svg">
<g clip-path="url(#clip0_31_5062)">
<rect x="0.371788" y="0.90918" width="34.7354" height="22.2307" rx="2.08412" fill="#5485EC"/>
<path d="M17.0249 12.599V15.6718H16.05V8.08327H18.6355C18.9441 8.07683 19.2509 8.13156 19.5382 8.24432C19.8256 8.35707 20.0878 8.52562 20.3096 8.74022C20.5337 8.9418 20.7121 9.18902 20.8327 9.46525C20.9533 9.74148 21.0134 10.0403 21.009 10.3417C21.0154 10.6447 20.9562 10.9455 20.8355 11.2235C20.7148 11.5015 20.5354 11.7501 20.3096 11.9523C19.8575 12.3834 19.2995 12.5988 18.6355 12.5984H17.0249V12.599ZM17.0249 9.01754V11.6665H18.6597C18.8389 11.6718 19.0173 11.6397 19.1833 11.5721C19.3494 11.5046 19.4996 11.4031 19.6242 11.2742C19.7482 11.1536 19.8467 11.0095 19.914 10.8502C19.9813 10.6909 20.016 10.5198 20.016 10.3469C20.016 10.174 19.9813 10.0028 19.914 9.84354C19.8467 9.68427 19.7482 9.54011 19.6242 9.41958C19.5012 9.28795 19.3515 9.18398 19.1852 9.11456C19.0189 9.04515 18.8398 9.01187 18.6597 9.01693H17.0249V9.01754Z" fill="white"/>
<path d="M23.2554 10.3105C23.9759 10.3105 24.5446 10.5031 24.9616 10.8882C25.3786 11.2733 25.5869 11.8012 25.5865 12.4721V15.6721H24.654V14.9516H24.6117C24.208 15.545 23.6711 15.8416 23.0011 15.8416C22.4291 15.8416 21.9506 15.6721 21.5655 15.333C21.3807 15.1774 21.2329 14.9825 21.133 14.7625C21.0331 14.5426 20.9835 14.3031 20.9878 14.0615C20.9878 13.5243 21.1909 13.097 21.597 12.7797C22.003 12.4624 22.5451 12.3034 23.2233 12.3026C23.8021 12.3026 24.2788 12.4085 24.6534 12.6205V12.3977C24.6545 12.233 24.619 12.0701 24.5493 11.9209C24.4797 11.7716 24.3777 11.6398 24.2508 11.5348C23.993 11.3023 23.657 11.1754 23.3099 11.1794C22.7653 11.1794 22.3344 11.4091 22.0172 11.8685L21.1586 11.3278C21.6309 10.6496 22.3298 10.3105 23.2554 10.3105ZM21.9941 14.0827C21.9935 14.2068 22.0225 14.3292 22.0787 14.4398C22.135 14.5504 22.2168 14.6459 22.3175 14.7185C22.5331 14.8881 22.8007 14.9779 23.0749 14.9728C23.4863 14.9721 23.8806 14.8084 24.1715 14.5174C24.4944 14.2135 24.6559 13.8569 24.6559 13.4476C24.3519 13.2054 23.9281 13.0843 23.3843 13.0843C22.9884 13.0843 22.6582 13.1797 22.3938 13.3707C22.1267 13.5644 21.9941 13.8 21.9941 14.0827Z" fill="white"/>
<path d="M30.9389 10.48L27.6839 17.9607H26.6775L27.8855 15.3432L25.7451 10.48H26.8047L28.3517 14.2098H28.3729L29.8775 10.48H30.9389Z" fill="white"/>
<path d="M13.0856 11.9367C13.086 11.6396 13.0609 11.3431 13.0105 11.0503H8.89931V12.7293H11.254C11.2058 12.9975 11.1039 13.2531 10.9542 13.4808C10.8046 13.7085 10.6104 13.9035 10.3833 14.0541V15.144H11.7887C12.6115 14.3853 13.0856 13.2633 13.0856 11.9367Z" fill="white"/>
<path d="M8.89933 16.1968C10.0758 16.1968 11.0664 15.8105 11.7887 15.1444L10.3834 14.0546C9.99223 14.3198 9.48846 14.4711 8.89933 14.4711C7.76223 14.4711 6.79709 13.7046 6.45196 12.6716H5.00425V13.7948C5.3671 14.5168 5.92348 15.1238 6.61129 15.5479C7.2991 15.9721 8.09126 16.1967 8.89933 16.1968Z" fill="white"/>
<path d="M6.45196 12.672C6.2695 12.1307 6.2695 11.5446 6.45196 11.0033V9.88013H5.00425C4.69901 10.4875 4.54004 11.1579 4.54004 11.8377C4.54004 12.5174 4.69901 13.1878 5.00425 13.7952L6.45196 12.672Z" fill="white"/>
<path d="M8.89935 9.2037C9.52105 9.19354 10.1218 9.42844 10.5717 9.85762L11.816 8.61335C11.027 7.87229 9.98173 7.46543 8.89935 7.47807C8.09128 7.47811 7.29912 7.70274 6.61131 8.12688C5.9235 8.55103 5.36712 9.158 5.00427 9.88002L6.45198 11.0032C6.79711 9.97024 7.76225 9.2037 8.89935 9.2037Z" fill="white"/>
</g>
<defs>
<clipPath id="clip0_31_5062">
<rect width="34.7354" height="22.2307" fill="white" transform="translate(0.371788 0.90918)"/>
</clipPath>
</defs>
</svg>
