<svg width="38" height="25" viewBox="0 0 38 25" fill="none" xmlns="http://www.w3.org/2000/svg">
<g clip-path="url(#clip0_31_4747)">
<rect x="0.135864" y="0.074585" width="37.6587" height="24.1016" rx="2.25952" fill="#5485EC"/>
<path d="M18.1905 12.7482V16.0797H17.1336V7.85248H19.9366C20.2712 7.84549 20.6038 7.90483 20.9154 8.02708C21.2269 8.14932 21.5111 8.33205 21.7517 8.56472C21.9946 8.78326 22.188 9.05128 22.3188 9.35076C22.4495 9.65024 22.5147 9.97425 22.5099 10.301C22.5168 10.6295 22.4527 10.9556 22.3218 11.257C22.1909 11.5584 21.9964 11.8279 21.7517 12.0471C21.2615 12.5145 20.6565 12.748 19.9366 12.7476H18.1905V12.7482ZM18.1905 8.86537V11.7373H19.9629C20.1572 11.7431 20.3505 11.7082 20.5306 11.635C20.7107 11.5617 20.8735 11.4517 21.0086 11.3119C21.143 11.1813 21.2498 11.025 21.3228 10.8523C21.3957 10.6796 21.4333 10.494 21.4333 10.3066C21.4333 10.1191 21.3957 9.93357 21.3228 9.76089C21.2498 9.58822 21.143 9.43192 21.0086 9.30125C20.8752 9.15854 20.7129 9.04582 20.5326 8.97056C20.3524 8.89531 20.1581 8.85922 19.9629 8.86471H18.1905V8.86537Z" fill="white"/>
<path d="M24.9453 10.267C25.7265 10.267 26.3431 10.4757 26.7951 10.8932C27.2472 11.3107 27.473 11.8831 27.4726 12.6105V16.0798H26.4617V15.2986H26.4157C25.9781 15.9419 25.396 16.2636 24.6696 16.2636C24.0495 16.2636 23.5307 16.0798 23.1132 15.7121C22.9128 15.5434 22.7526 15.3321 22.6443 15.0936C22.5359 14.8552 22.4822 14.5955 22.4869 14.3336C22.4869 13.7511 22.707 13.2879 23.1473 12.9439C23.5876 12.6 24.1753 12.4275 24.9105 12.4267C25.5381 12.4267 26.0549 12.5415 26.461 12.7713V12.5297C26.4622 12.3512 26.4237 12.1746 26.3482 12.0128C26.2727 11.851 26.1621 11.7081 26.0245 11.5943C25.745 11.3421 25.3808 11.2046 25.0044 11.209C24.414 11.209 23.9468 11.458 23.6029 11.956L22.672 11.3698C23.1841 10.6346 23.9418 10.267 24.9453 10.267ZM23.5779 14.3566C23.5772 14.4911 23.6087 14.6238 23.6696 14.7437C23.7306 14.8636 23.8193 14.9672 23.9285 15.0459C24.1622 15.2297 24.4523 15.3271 24.7497 15.3216C25.1957 15.3208 25.6232 15.1433 25.9385 14.8279C26.2886 14.4984 26.4636 14.1117 26.4636 13.668C26.1341 13.4054 25.6746 13.2741 25.0851 13.2741C24.6558 13.2741 24.2978 13.3776 24.0112 13.5846C23.7217 13.7947 23.5779 14.05 23.5779 14.3566Z" fill="white"/>
<path d="M33.2755 10.4509L29.7465 18.5613H28.6554L29.965 15.7235L27.6445 10.4509H28.7933L30.4705 14.4946H30.4935L32.1247 10.4509H33.2755Z" fill="white"/>
<path d="M13.9197 12.0302C13.9201 11.7082 13.8928 11.3866 13.8383 11.0692H9.38104V12.8895H11.9339C11.8817 13.1803 11.7711 13.4574 11.6089 13.7042C11.4467 13.9511 11.2361 14.1625 10.99 14.3258V15.5074H12.5136C13.4057 14.6849 13.9197 13.4685 13.9197 12.0302Z" fill="white"/>
<path d="M9.38109 16.6488C10.6566 16.6488 11.7305 16.23 12.5136 15.5079L10.99 14.3263C10.566 14.6139 10.0198 14.778 9.38109 14.778C8.14829 14.778 7.10192 13.9469 6.72775 12.827H5.1582V14.0447C5.55159 14.8275 6.1548 15.4856 6.90049 15.9454C7.64618 16.4052 8.50501 16.6488 9.38109 16.6488Z" fill="white"/>
<path d="M6.72773 12.8273C6.52992 12.2404 6.52992 11.6049 6.72773 11.0181V9.80042H5.15818C4.82725 10.4589 4.65491 11.1857 4.65491 11.9227C4.65491 12.6597 4.82725 13.3865 5.15818 14.045L6.72773 12.8273Z" fill="white"/>
<path d="M9.38115 9.06709C10.0552 9.05608 10.7065 9.31074 11.1942 9.77605L12.5432 8.42706C11.6878 7.62363 10.5546 7.18253 9.38115 7.19623C8.50507 7.19627 7.64624 7.43981 6.90055 7.89965C6.15486 8.35949 5.55165 9.01754 5.15826 9.80033L6.72781 11.018C7.10199 9.89814 8.14835 9.06709 9.38115 9.06709Z" fill="white"/>
</g>
<defs>
<clipPath id="clip0_31_4747">
<rect width="37.6587" height="24.1016" fill="white" transform="translate(0.135864 0.074585)"/>
</clipPath>
</defs>
</svg>
