<svg width="19" height="19" viewBox="0 0 19 19" fill="none" xmlns="http://www.w3.org/2000/svg">
<g clip-path="url(#clip0_31_4827)">
<path d="M16.6016 3.68592C16.2169 3.30105 15.7602 2.99574 15.2574 2.78745C14.7547 2.57915 14.2159 2.47193 13.6718 2.47193C13.1276 2.47193 12.5888 2.57915 12.0861 2.78745C11.5833 2.99574 11.1266 3.30105 10.7419 3.68592L9.94354 4.48428L9.14518 3.68592C8.36813 2.90887 7.31423 2.47234 6.21533 2.47234C5.11642 2.47234 4.06253 2.90887 3.28548 3.68592C2.50844 4.46296 2.0719 5.51686 2.0719 6.61577C2.0719 7.71467 2.50844 8.76857 3.28548 9.54561L4.08385 10.344L9.94354 16.2037L15.8032 10.344L16.6016 9.54561C16.9865 9.16092 17.2918 8.70418 17.5001 8.20146C17.7084 7.69875 17.8156 7.15992 17.8156 6.61577C17.8156 6.07161 17.7084 5.53278 17.5001 5.03007C17.2918 4.52735 16.9865 4.07061 16.6016 3.68592V3.68592Z" stroke="white" stroke-width="1.50635" stroke-linecap="round" stroke-linejoin="round"/>
</g>
<defs>
<clipPath id="clip0_31_4827">
<rect width="18.0762" height="18.0762" fill="white" transform="translate(0.904907 0.213554)"/>
</clipPath>
</defs>
</svg>
