<svg width="19" height="19" viewBox="0 0 19 19" fill="none" xmlns="http://www.w3.org/2000/svg">
<g clip-path="url(#clip0_31_4799)">
<path d="M15.8449 3.68592C15.4603 3.30105 15.0035 2.99574 14.5008 2.78745C13.9981 2.57915 13.4593 2.47193 12.9151 2.47193C12.3709 2.47193 11.8321 2.57915 11.3294 2.78745C10.8267 2.99574 10.3699 3.30105 9.98525 3.68592L9.18689 4.48428L8.38852 3.68592C7.61148 2.90887 6.55758 2.47234 5.45868 2.47234C4.35977 2.47234 3.30587 2.90887 2.52883 3.68592C1.75179 4.46296 1.31525 5.51686 1.31525 6.61577C1.31525 7.71467 1.75179 8.76857 2.52883 9.54561L3.32719 10.344L9.18689 16.2037L15.0466 10.344L15.8449 9.54561C16.2298 9.16092 16.5351 8.70418 16.7434 8.20146C16.9517 7.69875 17.0589 7.15992 17.0589 6.61577C17.0589 6.07161 16.9517 5.53278 16.7434 5.03007C16.5351 4.52735 16.2298 4.07061 15.8449 3.68592V3.68592Z" stroke="white" stroke-width="1.50635" stroke-linecap="round" stroke-linejoin="round"/>
</g>
<defs>
<clipPath id="clip0_31_4799">
<rect width="18.0762" height="18.0762" fill="white" transform="translate(0.148499 0.213554)"/>
</clipPath>
</defs>
</svg>
