<svg width="19" height="19" viewBox="0 0 19 19" fill="none" xmlns="http://www.w3.org/2000/svg">
<g clip-path="url(#clip0_31_4770)">
<path d="M16.0882 3.68592C15.7035 3.30105 15.2468 2.99574 14.7441 2.78745C14.2414 2.57915 13.7025 2.47193 13.1584 2.47193C12.6142 2.47193 12.0754 2.57915 11.5727 2.78745C11.07 2.99574 10.6132 3.30105 10.2285 3.68592L9.43017 4.48428L8.63181 3.68592C7.85477 2.90887 6.80087 2.47234 5.70196 2.47234C4.60306 2.47234 3.54916 2.90887 2.77212 3.68592C1.99507 4.46296 1.55853 5.51686 1.55853 6.61577C1.55853 7.71467 1.99507 8.76857 2.77212 9.54561L3.57048 10.344L9.43017 16.2037L15.2899 10.344L16.0882 9.54561C16.4731 9.16092 16.7784 8.70418 16.9867 8.20146C17.195 7.69875 17.3022 7.15992 17.3022 6.61577C17.3022 6.07161 17.195 5.53278 16.9867 5.03007C16.7784 4.52735 16.4731 4.07061 16.0882 3.68592V3.68592Z" stroke="white" stroke-width="1.50635" stroke-linecap="round" stroke-linejoin="round"/>
</g>
<defs>
<clipPath id="clip0_31_4770">
<rect width="18.0762" height="18.0762" fill="white" transform="translate(0.39209 0.213554)"/>
</clipPath>
</defs>
</svg>
