<svg width="647" height="449" viewBox="0 0 647 449" fill="none" xmlns="http://www.w3.org/2000/svg">
<mask id="mask0_31_5098" style="mask-type:alpha" maskUnits="userSpaceOnUse" x="0" y="0" width="647" height="449">
<rect y="0.206421" width="646.079" height="448.087" fill="#1C2333"/>
</mask>
<g mask="url(#mask0_31_5098)">
<rect x="63.6078" y="-38.0025" width="13.8942" height="649.07" transform="rotate(40 63.6078 -38.0025)" fill="#111827" fill-opacity="0.25"/>
<rect x="119.058" y="-38.0025" width="13.8942" height="649.07" transform="rotate(40 119.058 -38.0025)" fill="#111827" fill-opacity="0.25"/>
<rect x="174.507" y="-38.0025" width="13.8942" height="649.07" transform="rotate(40 174.507 -38.0025)" fill="#111827" fill-opacity="0.25"/>
<rect x="229.957" y="-38.0025" width="13.8942" height="649.07" transform="rotate(40 229.957 -38.0025)" fill="#111827" fill-opacity="0.25"/>
<rect x="285.407" y="-38.0025" width="13.8942" height="649.07" transform="rotate(40 285.407 -38.0025)" fill="#111827" fill-opacity="0.25"/>
<rect x="340.856" y="-38.0025" width="13.8942" height="649.07" transform="rotate(40 340.856 -38.0025)" fill="#111827" fill-opacity="0.25"/>
<rect x="396.307" y="-38.0025" width="13.8942" height="649.07" transform="rotate(40 396.307 -38.0025)" fill="#111827" fill-opacity="0.25"/>
<rect x="451.756" y="-38.0025" width="13.8942" height="649.07" transform="rotate(40 451.756 -38.0025)" fill="#111827" fill-opacity="0.25"/>
<rect x="507.206" y="-38.0025" width="13.8942" height="649.07" transform="rotate(40 507.206 -38.0025)" fill="#111827" fill-opacity="0.25"/>
<rect x="562.655" y="-38.0025" width="13.8942" height="649.07" transform="rotate(40 562.655 -38.0025)" fill="#111827" fill-opacity="0.25"/>
<rect x="618.104" y="-38.0025" width="13.8942" height="649.07" transform="rotate(40 618.104 -38.0025)" fill="#111827" fill-opacity="0.25"/>
<rect x="673.554" y="-38.0025" width="13.8942" height="649.07" transform="rotate(40 673.554 -38.0025)" fill="#111827" fill-opacity="0.25"/>
<rect x="729.004" y="-38.0025" width="13.8942" height="649.07" transform="rotate(40 729.004 -38.0025)" fill="#111827" fill-opacity="0.25"/>
<rect x="784.454" y="-38.0025" width="13.8942" height="649.07" transform="rotate(40 784.454 -38.0025)" fill="#111827" fill-opacity="0.25"/>
<rect x="839.904" y="-38.0025" width="13.8942" height="649.07" transform="rotate(40 839.904 -38.0025)" fill="#111827" fill-opacity="0.25"/>
<rect x="895.353" y="-38.0025" width="13.8942" height="649.07" transform="rotate(40 895.353 -38.0025)" fill="#111827" fill-opacity="0.25"/>
<rect x="950.803" y="-38.0025" width="13.8942" height="649.07" transform="rotate(40 950.803 -38.0025)" fill="#111827" fill-opacity="0.25"/>
<rect x="1006.25" y="-38.0025" width="13.8942" height="649.07" transform="rotate(40 1006.25 -38.0025)" fill="#111827" fill-opacity="0.25"/>
<rect x="1061.7" y="-38.0025" width="13.8942" height="649.07" transform="rotate(40 1061.7 -38.0025)" fill="#111827" fill-opacity="0.25"/>
</g>
</svg>
