<svg width="36" height="24" viewBox="0 0 36 24" fill="none" xmlns="http://www.w3.org/2000/svg">
<g clip-path="url(#clip0_31_5059)">
<rect x="0.492554" y="0.90918" width="34.7354" height="22.2307" rx="2.08412" fill="#0F3560"/>
<path d="M20.8914 17.4882H14.8133V6.5647H20.8914V17.4882Z" fill="#FF5F00"/>
<path d="M15.2027 12.0256C15.2027 9.8097 16.2402 7.83586 17.8558 6.56384C16.6743 5.63367 15.1832 5.07849 13.5627 5.07849C9.72635 5.07849 6.61653 8.18876 6.61653 12.0256C6.61653 15.8624 9.72635 18.9727 13.5627 18.9727C15.1832 18.9727 16.6743 18.4175 17.8558 17.4873C16.2402 16.2153 15.2027 14.2414 15.2027 12.0256Z" fill="#EB001B"/>
<path d="M29.0889 12.0256C29.0889 15.8624 25.9791 18.9727 22.1427 18.9727C20.5222 18.9727 19.0311 18.4175 17.8492 17.4873C19.4653 16.2153 20.5028 14.2414 20.5028 12.0256C20.5028 9.8097 19.4653 7.83586 17.8492 6.56384C19.0311 5.63367 20.5222 5.07849 22.1427 5.07849C25.9791 5.07849 29.0889 8.18876 29.0889 12.0256Z" fill="#F79E1B"/>
<path d="M11.8435 12.0695C11.8435 11.766 12.0424 11.5167 12.3673 11.5167C12.6778 11.5167 12.8874 11.7553 12.8874 12.0695C12.8874 12.3837 12.6778 12.6222 12.3673 12.6222C12.0424 12.6222 11.8435 12.3729 11.8435 12.0695ZM13.2413 12.0695V11.2062H12.8659V11.4158C12.7468 11.2604 12.5662 11.1628 12.3206 11.1628C11.8365 11.1628 11.457 11.5424 11.457 12.0695C11.457 12.597 11.8365 12.9761 12.3206 12.9761C12.5662 12.9761 12.7468 12.8785 12.8659 12.7231V12.9327H13.2413V12.0695ZM25.9265 12.0695C25.9265 11.766 26.1253 11.5167 26.4503 11.5167C26.7612 11.5167 26.9704 11.7553 26.9704 12.0695C26.9704 12.3837 26.7612 12.6222 26.4503 12.6222C26.1253 12.6222 25.9265 12.3729 25.9265 12.0695ZM27.3247 12.0695V10.5129H26.9489V11.4158C26.8298 11.2604 26.6491 11.1628 26.4036 11.1628C25.9195 11.1628 25.54 11.5424 25.54 12.0695C25.54 12.597 25.9195 12.9761 26.4036 12.9761C26.6491 12.9761 26.8298 12.8785 26.9489 12.7231V12.9327H27.3247V12.0695ZM17.9009 11.4989C18.1427 11.4989 18.2982 11.6507 18.3378 11.9177H17.442C17.4821 11.6684 17.6334 11.4989 17.9009 11.4989ZM17.9083 11.1628C17.4023 11.1628 17.0484 11.5312 17.0484 12.0695C17.0484 12.6185 17.4168 12.9761 17.9335 12.9761C18.1936 12.9761 18.4317 12.9112 18.6413 12.7342L18.4573 12.456C18.3126 12.5713 18.1282 12.6367 17.955 12.6367C17.7132 12.6367 17.4928 12.5246 17.4387 12.2137H18.7207C18.7244 12.167 18.7281 12.1199 18.7281 12.0695C18.7244 11.5312 18.392 11.1628 17.9083 11.1628ZM22.441 12.0695C22.441 11.766 22.6398 11.5167 22.9648 11.5167C23.2753 11.5167 23.4849 11.7553 23.4849 12.0695C23.4849 12.3837 23.2753 12.6222 22.9648 12.6222C22.6398 12.6222 22.441 12.3729 22.441 12.0695ZM23.8388 12.0695V11.2062H23.4634V11.4158C23.3439 11.2604 23.1636 11.1628 22.9181 11.1628C22.434 11.1628 22.0544 11.5424 22.0544 12.0695C22.0544 12.597 22.434 12.9761 22.9181 12.9761C23.1636 12.9761 23.3439 12.8785 23.4634 12.7231V12.9327H23.8388V12.0695ZM20.321 12.0695C20.321 12.5933 20.6856 12.9761 21.2421 12.9761C21.5021 12.9761 21.6753 12.9182 21.863 12.7702L21.6828 12.4667C21.5418 12.568 21.3938 12.6222 21.2309 12.6222C20.9312 12.6185 20.7109 12.4018 20.7109 12.0695C20.7109 11.7371 20.9312 11.5204 21.2309 11.5167C21.3938 11.5167 21.5418 11.5709 21.6828 11.6722L21.863 11.3687C21.6753 11.2207 21.5021 11.1628 21.2421 11.1628C20.6856 11.1628 20.321 11.5457 20.321 12.0695ZM25.1609 11.1628C24.9442 11.1628 24.8032 11.2641 24.7057 11.4158V11.2062H24.3336V12.9327H24.7094V11.9649C24.7094 11.6792 24.8322 11.5204 25.0778 11.5204C25.1538 11.5204 25.2332 11.5312 25.3126 11.5638L25.4283 11.21C25.3452 11.1773 25.2369 11.1628 25.1609 11.1628ZM15.0979 11.3435C14.9173 11.2244 14.6684 11.1628 14.3939 11.1628C13.9565 11.1628 13.6749 11.3724 13.6749 11.7156C13.6749 11.9971 13.8845 12.1707 14.2707 12.2249L14.448 12.2501C14.6539 12.2791 14.7511 12.3332 14.7511 12.4308C14.7511 12.5643 14.6138 12.6404 14.3575 12.6404C14.0975 12.6404 13.9098 12.5573 13.7833 12.4597L13.6063 12.752C13.8122 12.9037 14.0722 12.9761 14.3538 12.9761C14.8523 12.9761 15.1413 12.7413 15.1413 12.4126C15.1413 12.1091 14.9139 11.9504 14.5381 11.8962L14.3612 11.8706C14.1987 11.8491 14.0685 11.8169 14.0685 11.7011C14.0685 11.5746 14.1913 11.4989 14.3972 11.4989C14.6175 11.4989 14.8308 11.582 14.9354 11.6469L15.0979 11.3435ZM19.9415 11.1628C19.7249 11.1628 19.5839 11.2641 19.4867 11.4158V11.2062H19.1147V12.9327H19.49V11.9649C19.49 11.6792 19.6128 11.5204 19.8584 11.5204C19.9345 11.5204 20.0138 11.5312 20.0932 11.5638L20.209 11.21C20.1259 11.1773 20.0176 11.1628 19.9415 11.1628ZM16.7379 11.2062H16.124V10.6824H15.7445V11.2062H15.3943V11.5494H15.7445V12.3369C15.7445 12.7375 15.8999 12.9761 16.3439 12.9761C16.5068 12.9761 16.6945 12.9256 16.8136 12.8425L16.7053 12.5209C16.5932 12.5858 16.4705 12.6185 16.3729 12.6185C16.1852 12.6185 16.124 12.5027 16.124 12.3295V11.5494H16.7379V11.2062ZM11.125 12.9327V11.8491C11.125 11.4411 10.865 11.1666 10.4458 11.1628C10.2254 11.1591 9.99803 11.2277 9.83886 11.47C9.7198 11.2786 9.53211 11.1628 9.26835 11.1628C9.08397 11.1628 8.90372 11.217 8.76274 11.4192V11.2062H8.38695V12.9327H8.76605V11.9756C8.76605 11.6759 8.93224 11.5167 9.18897 11.5167C9.43826 11.5167 9.56435 11.6792 9.56435 11.9719V12.9327H9.94387V11.9756C9.94387 11.6759 10.1171 11.5167 10.3664 11.5167C10.6227 11.5167 10.7455 11.6792 10.7455 11.9719V12.9327H11.125Z" fill="white"/>
</g>
<defs>
<clipPath id="clip0_31_5059">
<rect width="34.7354" height="22.2307" fill="white" transform="translate(0.492554 0.90918)"/>
</clipPath>
</defs>
</svg>
