<svg width="36" height="24" viewBox="0 0 36 24" fill="none" xmlns="http://www.w3.org/2000/svg">
<g clip-path="url(#clip0_31_5063)">
<rect x="0.664871" y="0.90918" width="34.7354" height="22.2307" rx="2.08412" fill="black"/>
<path fill-rule="evenodd" clip-rule="evenodd" d="M29.4248 13.5415H29.9309V15.1511H29.9595L30.6175 14.3779L31.0843 14.3767L30.3624 15.2219L31.232 16.2788H30.6492L29.9382 15.295H29.9309V16.2788H29.4248V13.5415ZM5.36736 13.6639V15.1649C5.36736 15.6762 5.51876 15.9557 5.94295 15.9557C6.3489 15.9557 6.51124 15.6169 6.51124 15.1945V13.6639H6.98954V15.2879C6.98954 15.9482 6.55704 16.3224 5.92795 16.3224C5.20766 16.3224 4.83312 15.9744 4.83312 15.2618V13.6639H5.36736ZM8.10748 14.6309C8.27873 14.4519 8.51707 14.366 8.75622 14.366C9.19967 14.366 9.43436 14.6043 9.43436 15.0747V16.2772H8.93113V15.1313C8.93113 14.8696 8.81378 14.6978 8.55173 14.6978C8.30528 14.6978 8.11173 14.8585 8.11173 15.1649V16.2772H7.60789V14.4104H8.10748V14.6309ZM10.0266 16.2772H10.5306V14.4104H10.0266V16.2772ZM9.97711 13.8506C9.97711 13.7089 10.0981 13.563 10.2694 13.563C10.4437 13.563 10.5795 13.7051 10.5795 13.8506C10.5795 14.0109 10.4627 14.1641 10.2767 14.1641C10.0983 14.1641 9.97711 14.0109 9.97711 13.8506ZM11.6457 16.2772L10.8391 14.4025H11.3731C11.5365 14.8319 11.7059 15.2358 11.8648 15.7547H11.8725C12.0438 15.2358 12.2049 14.8319 12.379 14.4025H12.8518L11.9977 16.2772H11.6457ZM14.3516 15.1201C14.3712 14.8356 14.2687 14.642 14.0192 14.642C13.73 14.642 13.6003 14.8696 13.6057 15.1201H14.3516ZM13.5974 15.3889C13.5861 15.7401 13.8362 16.0009 14.1507 16.0009C14.3376 16.0009 14.5338 15.9375 14.6594 15.8514L14.8033 16.113C14.5455 16.2622 14.276 16.3224 14.0601 16.3224C13.4876 16.3224 13.0595 15.9225 13.0595 15.3066C13.0595 14.7314 13.4835 14.366 14.0259 14.366C14.6173 14.366 14.8639 14.8323 14.8266 15.3889H13.5974ZM15.8159 14.7389H15.823L15.9255 14.5934C15.9819 14.5109 16.0958 14.366 16.2512 14.366C16.3649 14.366 16.4867 14.4258 16.5929 14.5336L16.4028 14.8771C16.3195 14.8356 16.2662 14.8137 16.1645 14.8137C15.99 14.8137 15.8195 14.9519 15.8195 15.3548V16.2772H15.3138V14.4104H15.8159V14.7389ZM17.9384 14.7612C17.8249 14.6791 17.7074 14.642 17.6158 14.642C17.5023 14.642 17.3884 14.7052 17.3884 14.8323C17.3884 14.9817 17.5708 15.0678 17.7828 15.2202C18.0527 15.4191 18.1316 15.613 18.1316 15.7839C18.1316 16.0461 17.8393 16.3224 17.423 16.3224C17.1612 16.3224 16.968 16.2324 16.7903 16.1094L16.9494 15.8514C17.0625 15.9415 17.2252 16.0305 17.3614 16.0305C17.5065 16.0305 17.6348 15.9557 17.6348 15.7991C17.6348 15.6236 17.4374 15.5267 17.256 15.3996C17.0398 15.2543 16.8925 15.1122 16.8925 14.8812C16.8925 14.5857 17.1798 14.366 17.5511 14.366C17.7605 14.366 17.9646 14.4179 18.102 14.5378L17.9384 14.7612ZM19.3746 15.2841C19.1285 15.3625 19.0035 15.5005 19.0035 15.7131C19.0035 15.8777 19.1097 15.9898 19.2319 15.9898C19.4319 15.9898 19.6938 15.7431 19.6563 15.1945L19.3746 15.2841ZM19.5347 16.0982C19.3979 16.2103 19.2236 16.3224 19.0497 16.3224C18.7538 16.3224 18.5065 16.0982 18.5065 15.7547C18.5065 15.3996 18.7688 15.202 19.2088 15.0747L19.6563 14.944C19.6299 14.7725 19.4739 14.6645 19.3117 14.6645C19.0949 14.6645 18.9431 14.7429 18.8105 14.855L18.647 14.6197C18.8827 14.4294 19.1133 14.366 19.3746 14.366C19.7242 14.366 20.1528 14.4772 20.1528 15.0603V15.8216C20.1528 15.9711 20.1713 16.1471 20.2325 16.2772H19.698C19.6591 16.2135 19.6484 16.1057 19.6484 16.0048L19.5347 16.0982ZM20.7177 16.2772H21.2223V13.5332H20.7177V16.2772ZM25.6878 15.2841C25.4409 15.3625 25.3159 15.5005 25.3159 15.7131C25.3159 15.8777 25.4215 15.9898 25.5435 15.9898C25.7435 15.9898 26.0056 15.7431 25.9687 15.1945L25.6878 15.2841ZM25.8459 16.0982C25.7101 16.2103 25.5354 16.3224 25.3609 16.3224C25.0656 16.3224 24.8185 16.0982 24.8185 15.7547C24.8185 15.3996 25.0804 15.202 25.5208 15.0747L25.9687 14.944C25.9409 14.7725 25.7863 14.6645 25.6221 14.6645C25.4067 14.6645 25.2547 14.7429 25.1221 14.855L24.959 14.6197C25.1941 14.4294 25.4257 14.366 25.6878 14.366C26.0358 14.366 26.4638 14.4772 26.4638 15.0603V15.8216C26.4638 15.9711 26.4826 16.1471 26.543 16.2772H26.0094C25.9719 16.2135 25.9593 16.1057 25.9593 16.0048L25.8459 16.0982ZM27.5294 14.6309C27.7003 14.4519 27.9394 14.366 28.178 14.366C28.6214 14.366 28.8563 14.6043 28.8563 15.0747V16.2772H28.3523V15.1313C28.3523 14.8696 28.2347 14.6978 27.9731 14.6978C27.7264 14.6978 27.5333 14.8585 27.5333 15.1649V16.2772H27.0292V14.4104H27.5294V14.6309ZM23.0616 15.9628H23.3344C23.6303 15.9628 23.8546 15.81 23.8546 15.5192C23.8546 15.2127 23.6232 15.0822 23.3313 15.0822H23.0616V15.9628ZM23.0616 14.7612H23.2292C23.5366 14.7612 23.7454 14.5672 23.7454 14.324C23.7454 14.093 23.5701 13.9925 23.339 13.9925H23.0614V14.7612H23.0616ZM22.5275 16.2843V13.671H23.487C23.9339 13.671 24.249 13.8725 24.249 14.2271C24.249 14.6451 23.9041 14.8173 23.7184 14.8656V14.8731C24.0484 14.8883 24.4156 15.1118 24.4156 15.5113C24.4156 15.9628 24.0324 16.2843 23.4077 16.2843H22.5275Z" fill="white"/>
<path fill-rule="evenodd" clip-rule="evenodd" d="M31.2321 12.1799L31.2321 12.3826L4.83313 12.3826L4.83313 12.1799L31.2321 12.1799Z" fill="white"/>
<path fill-rule="evenodd" clip-rule="evenodd" d="M9.99466 10.9712V9.27359C9.99466 8.79205 9.73686 8.56343 9.30396 8.56343C8.94401 8.56343 8.63271 8.77745 8.49652 8.99147C8.40896 8.72395 8.19008 8.56343 7.84473 8.56343C7.48478 8.56343 7.17348 8.78718 7.0762 8.92824V8.6218H6.45846V10.9712H7.0762V9.39033C7.16861 9.259 7.34859 9.11308 7.56261 9.11308C7.81554 9.11308 7.91282 9.26873 7.91282 9.48761V10.9712H8.53543V9.38547C8.62298 9.259 8.80295 9.11308 9.02184 9.11308C9.27477 9.11308 9.37205 9.26873 9.37205 9.48761V10.9712H9.99466ZM11.6922 11.0295C10.9188 11.0295 10.4519 10.4653 10.4519 9.79405C10.4519 9.12767 10.9188 8.56343 11.6922 8.56343C12.4705 8.56343 12.9374 9.12767 12.9374 9.79405C12.9374 10.4653 12.4705 11.0295 11.6922 11.0295ZM11.6922 10.4799C12.0765 10.4799 12.2954 10.1637 12.2954 9.79405C12.2954 9.42924 12.0765 9.11308 11.6922 9.11308C11.308 9.11308 11.0939 9.42924 11.0939 9.79405C11.0939 10.1637 11.308 10.4799 11.6922 10.4799ZM15.5981 10.9712V9.3125C15.5981 8.85528 15.35 8.56343 14.8344 8.56343C14.4502 8.56343 14.1632 8.74827 14.0124 8.92824V8.6218H13.3947V10.9712H14.0124V9.39033C14.1146 9.24927 14.3043 9.11308 14.5475 9.11308C14.8101 9.11308 14.9804 9.22495 14.9804 9.55085V10.9712H15.5981ZM17.3005 11.0295C16.5272 11.0295 16.0602 10.4653 16.0602 9.79405C16.0602 9.12767 16.5272 8.56343 17.3005 8.56343C18.0788 8.56343 18.5458 9.12767 18.5458 9.79405C18.5458 10.4653 18.0788 11.0295 17.3005 11.0295ZM17.3005 10.4799C17.6848 10.4799 17.9037 10.1637 17.9037 9.79405C17.9037 9.42924 17.6848 9.11308 17.3005 9.11308C16.9163 9.11308 16.7023 9.42924 16.7023 9.79405C16.7023 10.1637 16.9163 10.4799 17.3005 10.4799ZM19.6207 10.2172C19.7229 10.368 19.9515 10.4799 20.1509 10.4799C20.5109 10.4799 20.7492 10.2075 20.7492 9.79892C20.7492 9.39033 20.5109 9.11308 20.1509 9.11308C19.9515 9.11308 19.7229 9.22982 19.6207 9.38547V10.2172ZM19.6207 10.9712H19.003V7.72681H19.6207V8.92338C19.8056 8.68504 20.0682 8.56343 20.3455 8.56343C20.9438 8.56343 21.3864 9.03039 21.3864 9.79892C21.3864 10.582 20.9389 11.0295 20.3455 11.0295C20.0634 11.0295 19.8056 10.9031 19.6207 10.6696V10.9712ZM23.8817 10.9712H23.2639V10.728C23.1034 10.9177 22.8262 11.0295 22.5197 11.0295C22.1452 11.0295 21.7026 10.7766 21.7026 10.2513C21.7026 9.70163 22.1452 9.49248 22.5197 9.49248C22.831 9.49248 23.1083 9.59462 23.2639 9.77946V9.46329C23.2639 9.22495 23.0596 9.0693 22.7483 9.0693C22.4954 9.0693 22.2619 9.16172 22.0625 9.34655L21.829 8.9331C22.116 8.68017 22.4857 8.56343 22.8554 8.56343C23.3904 8.56343 23.8817 8.77745 23.8817 9.45356V10.9712ZM22.7678 10.6112C22.9672 10.6112 23.1618 10.5431 23.2639 10.4069V10.1151C23.1618 9.97889 22.9672 9.91079 22.7678 9.91079C22.5246 9.91079 22.3252 10.0373 22.3252 10.2659C22.3252 10.4848 22.5246 10.6112 22.7678 10.6112ZM26.698 10.9712V9.3125C26.698 8.85528 26.4499 8.56343 25.9343 8.56343C25.5501 8.56343 25.2631 8.74827 25.1123 8.92824V8.6218H24.4946V10.9712H25.1123V9.39033C25.2144 9.24927 25.4041 9.11308 25.6473 9.11308C25.91 9.11308 26.0803 9.22495 26.0803 9.55085V10.9712H26.698ZM29.6067 10.9712L28.6485 9.68704L29.5775 8.6218H28.8187L27.9286 9.66758V7.72681H27.3109V10.9712H27.9286V10.368L28.2107 10.0664L28.8333 10.9712H29.6067Z" fill="white"/>
</g>
<defs>
<clipPath id="clip0_31_5063">
<rect width="34.7354" height="22.2307" fill="white" transform="translate(0.664871 0.90918)"/>
</clipPath>
</defs>
</svg>
