<svg width="36" height="24" viewBox="0 0 36 24" fill="none" xmlns="http://www.w3.org/2000/svg">
<g clip-path="url(#clip0_31_5060)">
<rect x="0.785629" y="0.90918" width="34.7354" height="22.2307" rx="2.08412" fill="#082069"/>
<path d="M11.1186 15.4287H9.67873C9.58019 15.4287 9.4964 15.5003 9.48103 15.5976L8.89866 19.2899C8.88708 19.3627 8.94351 19.4284 9.01741 19.4284H9.70484C9.80337 19.4284 9.88717 19.3568 9.90254 19.2594L10.0596 18.2635C10.0748 18.166 10.1588 18.0944 10.2571 18.0944H10.7129C11.6614 18.0944 12.2088 17.6354 12.3518 16.7259C12.4162 16.3279 12.3545 16.0153 12.1682 15.7963C11.9636 15.5559 11.6006 15.4287 11.1186 15.4287ZM11.2848 16.7773C11.206 17.2939 10.8112 17.2939 10.4295 17.2939H10.2122L10.3647 16.329C10.3737 16.2707 10.4243 16.2277 10.4832 16.2277H10.5828C10.8428 16.2277 11.0881 16.2277 11.2149 16.376C11.2904 16.4644 11.3136 16.5958 11.2848 16.7773Z" fill="white"/>
<path d="M15.4229 16.7602H14.7333C14.6746 16.7602 14.6238 16.8031 14.6148 16.8614L14.5843 17.0543L14.536 16.9844C14.3868 16.7677 14.0539 16.6953 13.7217 16.6953C12.9597 16.6953 12.3089 17.2724 12.1822 18.082C12.1163 18.4858 12.2099 18.8719 12.439 19.1412C12.6491 19.3888 12.9498 19.492 13.3075 19.492C13.9215 19.492 14.2619 19.0972 14.2619 19.0972L14.2312 19.2888C14.2196 19.3621 14.276 19.4278 14.3495 19.4278H14.9706C15.0694 19.4278 15.1527 19.3562 15.1683 19.2587L15.541 16.8987C15.5528 16.8261 15.4966 16.7602 15.4229 16.7602ZM14.4617 18.1022C14.3952 18.4961 14.0825 18.7605 13.6838 18.7605C13.4835 18.7605 13.3235 18.6963 13.2208 18.5746C13.1189 18.4538 13.0801 18.2818 13.1126 18.0902C13.1747 17.6996 13.4926 17.4265 13.8853 17.4265C14.0811 17.4265 14.2402 17.4916 14.3451 17.6143C14.4501 17.7384 14.4918 17.9114 14.4617 18.1022Z" fill="white"/>
<path d="M19.0952 16.76H18.4023C18.3361 16.76 18.274 16.7929 18.2366 16.8478L17.2809 18.2555L16.8758 16.9028C16.8503 16.8181 16.7722 16.76 16.6838 16.76H16.0029C15.9201 16.76 15.8627 16.8409 15.889 16.9188L16.6522 19.1585L15.9347 20.1715C15.8782 20.2513 15.9351 20.361 16.0326 20.361H16.7246C16.7903 20.361 16.8518 20.329 16.8891 20.2751L19.1937 16.9484C19.2489 16.8689 19.1922 16.76 19.0952 16.76Z" fill="white"/>
<path d="M21.3892 15.4282H19.949C19.8507 15.4282 19.7669 15.4998 19.7516 15.5971L19.1692 19.2894C19.1576 19.3623 19.214 19.4279 19.2875 19.4279H20.0265C20.0952 19.4279 20.1539 19.3778 20.1646 19.3096L20.3299 18.263C20.3451 18.1655 20.4291 18.0939 20.5274 18.0939H20.983C21.9317 18.0939 22.4789 17.6349 22.6221 16.7254C22.6868 16.3275 22.6246 16.0148 22.4383 15.7958C22.2339 15.5554 21.8711 15.4282 21.3892 15.4282ZM21.5553 16.7768C21.4768 17.2934 21.082 17.2934 20.7001 17.2934H20.483L20.6356 16.3285C20.6447 16.2702 20.6948 16.2272 20.754 16.2272H20.8535C21.1134 16.2272 21.3589 16.2272 21.4856 16.3755C21.5612 16.4639 21.5841 16.5953 21.5553 16.7768Z" fill="white"/>
<path d="M25.6932 16.7602H25.0041C24.9449 16.7602 24.8946 16.8031 24.8858 16.8614L24.8552 17.0543L24.8068 16.9844C24.6575 16.7677 24.3249 16.6953 23.9926 16.6953C23.2307 16.6953 22.5801 17.2724 22.4533 18.082C22.3876 18.4858 22.4809 18.8719 22.71 19.1412C22.9205 19.3888 23.2208 19.492 23.5785 19.492C24.1924 19.492 24.5329 19.0972 24.5329 19.0972L24.5021 19.2888C24.4906 19.3621 24.547 19.4278 24.6209 19.4278H25.2418C25.3401 19.4278 25.4239 19.3562 25.4393 19.2587L25.8122 16.8987C25.8235 16.8261 25.7671 16.7602 25.6932 16.7602ZM24.7321 18.1022C24.6659 18.4961 24.3529 18.7605 23.9541 18.7605C23.7543 18.7605 23.5939 18.6963 23.4911 18.5746C23.3892 18.4538 23.3509 18.2818 23.3829 18.0902C23.4454 17.6996 23.7629 17.4265 24.1556 17.4265C24.3514 17.4265 24.5106 17.4916 24.6154 17.6143C24.7209 17.7384 24.7626 17.9114 24.7321 18.1022Z" fill="white"/>
<path d="M26.5061 15.5295L25.9151 19.2894C25.9035 19.3622 25.96 19.4279 26.0334 19.4279H26.6276C26.7263 19.4279 26.8101 19.3563 26.8253 19.2588L27.4081 15.5667C27.4197 15.4939 27.3632 15.428 27.2898 15.428H26.6244C26.5657 15.4282 26.5152 15.4711 26.5061 15.5295Z" fill="white"/>
<path opacity="0.68" d="M21.7074 6.06654C21.8216 5.33822 21.7066 4.84275 21.3127 4.39381C20.879 3.89968 20.0956 3.68799 19.0932 3.68799H16.1835C15.9787 3.68799 15.8042 3.83703 15.7723 4.03947L14.5607 11.7225C14.5368 11.8741 14.654 12.0111 14.8073 12.0111H16.6037L16.4797 12.7973C16.4588 12.93 16.5612 13.0498 16.6955 13.0498H18.2096C18.3888 13.0498 18.5414 12.9195 18.5693 12.7424L18.5842 12.6654L18.8694 10.8566L18.8878 10.7567C18.9157 10.5797 19.0683 10.4492 19.2475 10.4492H19.474C20.9408 10.4492 22.0894 9.85331 22.4249 8.12985C22.5652 7.40972 22.4926 6.8086 22.1218 6.38598C22.0098 6.2584 21.8701 6.15274 21.7074 6.06654Z" fill="white"/>
<path opacity="0.7" d="M21.7074 6.06654C21.8216 5.33822 21.7066 4.84275 21.3127 4.39381C20.879 3.89968 20.0956 3.68799 19.0932 3.68799H16.1835C15.9787 3.68799 15.8042 3.83703 15.7723 4.03947L14.5607 11.7225C14.5368 11.8741 14.654 12.0111 14.8073 12.0111H16.6036L17.0549 9.14978L17.0409 9.23951C17.0728 9.03716 17.2457 8.88803 17.4506 8.88803H18.3044C19.9812 8.88803 21.2941 8.2068 21.6776 6.23675C21.6891 6.17859 21.6987 6.12204 21.7074 6.06654Z" fill="white"/>
<path d="M17.5397 6.07617C17.5588 5.9545 17.637 5.85476 17.7422 5.80441C17.79 5.78152 17.8435 5.76875 17.8994 5.76875H20.1803C20.4505 5.76875 20.7024 5.78648 20.9327 5.82358C20.9985 5.83416 21.0626 5.84637 21.1248 5.86019C21.187 5.87402 21.2475 5.88937 21.3059 5.90654C21.3352 5.91502 21.3639 5.92408 21.3922 5.93343C21.5053 5.971 21.6107 6.01524 21.7076 6.06664C21.8218 5.33831 21.7068 4.84284 21.3129 4.39391C20.879 3.89968 20.0956 3.68799 19.0932 3.68799H16.1835C15.9787 3.68799 15.8042 3.83703 15.7723 4.03947L14.5607 11.7225C14.5368 11.8741 14.654 12.0111 14.8073 12.0111H16.6036L17.0549 9.14978L17.5397 6.07617Z" fill="white"/>
</g>
<defs>
<clipPath id="clip0_31_5060">
<rect width="34.7354" height="22.2307" fill="white" transform="translate(0.785629 0.90918)"/>
</clipPath>
</defs>
</svg>
