<svg width="39" height="25" viewBox="0 0 39 25" fill="none" xmlns="http://www.w3.org/2000/svg">
<g clip-path="url(#clip0_31_4745)">
<rect x="0.7677" y="0.074585" width="37.6587" height="24.1016" rx="2.25952" fill="#082069"/>
<path d="M11.9703 15.8159H10.4092C10.3024 15.8159 10.2116 15.8935 10.1949 15.999L9.56353 20.0021C9.55097 20.081 9.61215 20.1523 9.69227 20.1523H10.4376C10.5444 20.1523 10.6352 20.0746 10.6519 19.969L10.8222 18.8893C10.8386 18.7836 10.9297 18.706 11.0363 18.706H11.5305C12.5588 18.706 13.1523 18.2084 13.3073 17.2223C13.3771 16.7908 13.3103 16.4519 13.1082 16.2145C12.8864 15.9538 12.4928 15.8159 11.9703 15.8159ZM12.1504 17.2779C12.0651 17.8381 11.6371 17.8381 11.2232 17.8381H10.9877L11.1529 16.792C11.1627 16.7287 11.2175 16.6822 11.2814 16.6822H11.3894C11.6713 16.6822 11.9372 16.6822 12.0747 16.8429C12.1566 16.9387 12.1817 17.0812 12.1504 17.2779Z" fill="white"/>
<path d="M16.6368 17.2595H15.8892C15.8255 17.2595 15.7705 17.3061 15.7607 17.3693L15.7276 17.5784L15.6753 17.5026C15.5135 17.2677 15.1526 17.1892 14.7924 17.1892C13.9663 17.1892 13.2607 17.8149 13.1233 18.6926C13.0519 19.1304 13.1534 19.549 13.4018 19.841C13.6296 20.1094 13.9556 20.2212 14.3434 20.2212C15.009 20.2212 15.3781 19.7932 15.3781 19.7932L15.3448 20.001C15.3322 20.0804 15.3934 20.1516 15.4731 20.1516H16.1464C16.2535 20.1516 16.3439 20.074 16.3608 19.9683L16.7648 17.4097C16.7776 17.331 16.7166 17.2595 16.6368 17.2595ZM15.5947 18.7145C15.5226 19.1416 15.1836 19.4283 14.7513 19.4283C14.5342 19.4283 14.3607 19.3586 14.2493 19.2267C14.1389 19.0957 14.0969 18.9092 14.132 18.7015C14.1994 18.278 14.544 17.982 14.9697 17.982C15.182 17.982 15.3546 18.0525 15.4683 18.1856C15.5822 18.32 15.6274 18.5077 15.5947 18.7145Z" fill="white"/>
<path d="M20.6181 17.2594H19.8669C19.7952 17.2594 19.7279 17.295 19.6873 17.3546L18.6512 18.8808L18.212 17.4142C18.1844 17.3224 18.0997 17.2594 18.0038 17.2594H17.2656C17.1759 17.2594 17.1136 17.3471 17.1421 17.4315L17.9696 19.8598L17.1917 20.958C17.1305 21.0445 17.1921 21.1634 17.2978 21.1634H18.0481C18.1193 21.1634 18.186 21.1287 18.2264 21.0703L20.725 17.4637C20.7848 17.3774 20.7234 17.2594 20.6181 17.2594Z" fill="white"/>
<path d="M23.1052 15.8154H21.5439C21.4373 15.8154 21.3465 15.893 21.3298 15.9985L20.6984 20.0016C20.6859 20.0805 20.747 20.1518 20.8267 20.1518H21.6279C21.7023 20.1518 21.766 20.0974 21.7776 20.0235L21.9568 18.8888C21.9733 18.7831 22.0643 18.7055 22.1709 18.7055H22.6649C23.6935 18.7055 24.2867 18.2079 24.4419 17.2218C24.512 16.7903 24.4447 16.4514 24.2427 16.214C24.021 15.9533 23.6277 15.8154 23.1052 15.8154ZM23.2853 17.2775C23.2002 17.8376 22.7722 17.8376 22.3581 17.8376H22.1228L22.2883 16.7915C22.2981 16.7283 22.3524 16.6817 22.4166 16.6817H22.5245C22.8062 16.6817 23.0724 16.6817 23.2098 16.8424C23.2917 16.9383 23.3166 17.0807 23.2853 17.2775Z" fill="white"/>
<path d="M27.7715 17.2595H27.0244C26.9602 17.2595 26.9057 17.3061 26.8961 17.3693L26.863 17.5784L26.8105 17.5026C26.6486 17.2677 26.288 17.1892 25.9278 17.1892C25.1017 17.1892 24.3963 17.8149 24.2589 18.6926C24.1877 19.1304 24.2888 19.549 24.5372 19.841C24.7655 20.1094 25.091 20.2212 25.4788 20.2212C26.1444 20.2212 26.5135 19.7932 26.5135 19.7932L26.4802 20.001C26.4676 20.0804 26.5288 20.1516 26.6089 20.1516H27.2821C27.3887 20.1516 27.4795 20.074 27.4962 19.9683L27.9004 17.4097C27.9128 17.331 27.8516 17.2595 27.7715 17.2595ZM26.7294 18.7145C26.6578 19.1416 26.3183 19.4283 25.886 19.4283C25.6694 19.4283 25.4954 19.3586 25.384 19.2267C25.2736 19.0957 25.232 18.9092 25.2667 18.7015C25.3345 18.278 25.6787 17.982 26.1044 17.982C26.3167 17.982 26.4893 18.0525 26.603 18.1856C26.7173 18.32 26.7625 18.5077 26.7294 18.7145Z" fill="white"/>
<path d="M28.6528 15.9252L28.012 20.0015C27.9995 20.0805 28.0606 20.1517 28.1403 20.1517H28.7845C28.8915 20.1517 28.9824 20.0741 28.9988 19.9685L29.6306 15.9656C29.6432 15.8866 29.582 15.8152 29.5024 15.8152H28.781C28.7174 15.8154 28.6626 15.862 28.6528 15.9252Z" fill="white"/>
<path opacity="0.68" d="M23.4502 5.66601C23.5741 4.87639 23.4494 4.33922 23.0223 3.8525C22.5521 3.31679 21.7028 3.08728 20.616 3.08728H17.4615C17.2394 3.08728 17.0502 3.24886 17.0157 3.46834L15.702 11.7979C15.6762 11.9623 15.8032 12.1109 15.9695 12.1109H17.917L17.7826 12.9632C17.7599 13.107 17.8709 13.237 18.0165 13.237H19.6581C19.8523 13.237 20.0178 13.0957 20.048 12.9037L20.0642 12.8202L20.3734 10.8592L20.3933 10.7509C20.4236 10.559 20.589 10.4175 20.7833 10.4175H21.0288C22.6191 10.4175 23.8643 9.77147 24.2281 7.90296C24.3802 7.12223 24.3015 6.47052 23.8995 6.01234C23.778 5.87401 23.6267 5.75947 23.4502 5.66601Z" fill="white"/>
<path opacity="0.7" d="M23.4502 5.66601C23.5741 4.87639 23.4494 4.33922 23.0223 3.8525C22.5521 3.31679 21.7028 3.08728 20.616 3.08728H17.4615C17.2394 3.08728 17.0502 3.24886 17.0157 3.46834L15.702 11.7979C15.6762 11.9623 15.8032 12.1109 15.9695 12.1109H17.917L18.4061 9.00873L18.391 9.10601C18.4256 8.88663 18.613 8.72495 18.8352 8.72495H19.7609C21.5787 8.72495 23.0021 7.98639 23.4179 5.85055C23.4304 5.78748 23.4408 5.72618 23.4502 5.66601Z" fill="white"/>
<path d="M18.9317 5.67645C18.9525 5.54454 19.0373 5.4364 19.1513 5.38182C19.2031 5.35701 19.2611 5.34315 19.3218 5.34315H21.7946C22.0875 5.34315 22.3607 5.36238 22.6103 5.4026C22.6817 5.41407 22.7511 5.4273 22.8186 5.44229C22.8861 5.45728 22.9516 5.47393 23.015 5.49254C23.0467 5.50174 23.0778 5.51156 23.1085 5.52169C23.2311 5.56242 23.3454 5.61039 23.4504 5.66611C23.5743 4.87649 23.4496 4.33933 23.0225 3.85261C22.5521 3.31679 21.7028 3.08728 20.616 3.08728H17.4615C17.2394 3.08728 17.0502 3.24886 17.0157 3.46834L15.702 11.7979C15.6762 11.9623 15.8032 12.1109 15.9695 12.1109H17.917L18.4061 9.00873L18.9317 5.67645Z" fill="white"/>
</g>
<defs>
<clipPath id="clip0_31_4745">
<rect width="37.6587" height="24.1016" fill="white" transform="translate(0.7677 0.074585)"/>
</clipPath>
</defs>
</svg>
