<svg width="18" height="18" viewBox="0 0 18 18" fill="none" xmlns="http://www.w3.org/2000/svg">
<g clip-path="url(#clip0_31_5089)">
<path d="M11.6642 14.5449C11.6914 14.5494 11.7184 14.5517 11.7451 14.5517C11.9796 14.5517 12.1865 14.3823 12.2263 14.1434L12.7148 11.2126C12.7592 10.9465 12.5794 10.6948 12.3133 10.6505C12.0472 10.606 11.7955 10.7859 11.7512 11.052L11.2627 13.9828C11.2183 14.2489 11.3981 14.5006 11.6642 14.5449Z" fill="black"/>
<path d="M5.85699 14.1434C5.89682 14.3823 6.10373 14.5516 6.33823 14.5516C6.3649 14.5516 6.39193 14.5494 6.41912 14.5449C6.68524 14.5005 6.86499 14.2489 6.82064 13.9827L6.33217 11.0519C6.28782 10.7858 6.03619 10.6061 5.77004 10.6504C5.50393 10.6948 5.32417 10.9464 5.36852 11.2126L5.85699 14.1434Z" fill="black"/>
<path d="M16.8733 6.73598H15.1542L11.3932 2.03465C11.2247 1.82406 10.9173 1.78983 10.7066 1.95838C10.4959 2.12691 10.4618 2.43428 10.6303 2.64494L13.9032 6.73598H4.14743L7.42029 2.64494C7.58881 2.43428 7.55465 2.12687 7.34403 1.95838C7.13333 1.78983 6.82596 1.82402 6.65747 2.03465L2.89637 6.73598H1.17726C0.9075 6.73598 0.688797 6.95468 0.688797 7.22445V9.17831C0.688797 9.44808 0.9075 9.66678 1.17726 9.66678H1.78576L3.63842 16.151C3.69831 16.3608 3.88998 16.5053 4.10806 16.5053H13.9425C14.1606 16.5053 14.3523 16.3608 14.4122 16.151L16.2648 9.66678H16.8733C17.1431 9.66678 17.3618 9.44808 17.3618 9.17831V7.22445C17.3618 6.95468 17.1431 6.73598 16.8733 6.73598ZM13.5741 15.5284H4.4765L2.80177 9.66678H15.2489L13.5741 15.5284ZM16.3849 8.68985C14.7115 8.68985 3.25097 8.68985 1.66573 8.68985V7.71291H16.3849V8.68985Z" fill="black"/>
<path d="M9.0253 14.5514C9.29507 14.5514 9.51377 14.3327 9.51377 14.063V11.1322C9.51377 10.8624 9.29507 10.6437 9.0253 10.6437C8.75554 10.6437 8.53683 10.8624 8.53683 11.1322V14.063C8.53683 14.3328 8.75554 14.5514 9.0253 14.5514Z" fill="black"/>
</g>
<defs>
<clipPath id="clip0_31_5089">
<rect width="16.673" height="16.673" fill="white" transform="translate(0.687943 0.841217)"/>
</clipPath>
</defs>
</svg>
