<svg width="215" height="12" viewBox="0 0 215 12" fill="none" xmlns="http://www.w3.org/2000/svg">
<path opacity="0.1" d="M214.206 4.54298H0.304703V7.55567H214.206V4.54298Z" fill="#111827"/>
<path d="M183.326 4.54298H33.4444V7.55567H183.326V4.54298Z" fill="#EB5757"/>
<path d="M32.6915 9.81554C34.7713 9.81554 36.4573 8.1295 36.4573 6.04967C36.4573 3.96984 34.7713 2.2838 32.6915 2.2838C30.6116 2.2838 28.9256 3.96984 28.9256 6.04967C28.9256 8.1295 30.6116 9.81554 32.6915 9.81554Z" fill="#EB5757"/>
<path d="M32.6915 10.5687C35.1873 10.5687 37.2105 8.54547 37.2105 6.04967C37.2105 3.55387 35.1873 1.53062 32.6915 1.53062C30.1957 1.53062 28.1724 3.55387 28.1724 6.04967C28.1724 8.54547 30.1957 10.5687 32.6915 10.5687Z" stroke="white" stroke-width="1.50635"/>
<path d="M182.573 9.81554C184.653 9.81554 186.339 8.1295 186.339 6.04967C186.339 3.96984 184.653 2.2838 182.573 2.2838C180.493 2.2838 178.807 3.96984 178.807 6.04967C178.807 8.1295 180.493 9.81554 182.573 9.81554Z" fill="#EB5757"/>
<path d="M182.573 10.5687C185.069 10.5687 187.092 8.54547 187.092 6.04967C187.092 3.55387 185.069 1.53062 182.573 1.53062C180.077 1.53062 178.054 3.55387 178.054 6.04967C178.054 8.54547 180.077 10.5687 182.573 10.5687Z" stroke="white" stroke-width="1.50635"/>
</svg>
