<svg width="24" height="23" viewBox="0 0 24 23" fill="none" xmlns="http://www.w3.org/2000/svg">
<g clip-path="url(#clip0_31_5004)">
<path d="M11.9535 0.475342C5.81565 0.475342 0.838211 5.45278 0.838211 11.5907C0.838211 17.7286 5.81565 22.706 11.9535 22.706C18.0914 22.706 23.0689 17.7286 23.0689 11.5907C23.0689 5.45278 18.0914 0.475342 11.9535 0.475342ZM17.0287 9.1419C17.0336 9.25129 17.036 9.3612 17.036 9.47161C17.036 12.8429 14.4698 16.7304 9.77698 16.7306H9.77715H9.77698C8.33618 16.7306 6.99544 16.3083 5.86637 15.5846C6.06599 15.6081 6.26918 15.6198 6.47491 15.6198C7.6703 15.6198 8.77037 15.2121 9.64367 14.5278C8.52681 14.5071 7.58516 13.7694 7.26019 12.7557C7.41572 12.7856 7.57566 12.8018 7.73967 12.8018C7.97254 12.8018 8.19812 12.7705 8.4125 12.7119C7.2451 12.4782 6.36569 11.4465 6.36569 10.2111C6.36569 10.1996 6.36569 10.1892 6.36603 10.1785C6.70982 10.3697 7.10297 10.4847 7.52156 10.4976C6.83651 10.0405 6.38621 9.25909 6.38621 8.37392C6.38621 7.90648 6.51257 7.46856 6.7317 7.09152C7.98984 8.63528 9.8701 9.65055 11.9905 9.75723C11.9468 9.57032 11.9242 9.37561 11.9242 9.17548C11.9242 7.76707 13.0668 6.62443 14.4758 6.62443C15.2096 6.62443 15.8725 6.93464 16.338 7.43057C16.9193 7.31591 17.4651 7.10356 17.9581 6.81133C17.7673 7.40682 17.363 7.90648 16.8362 8.22246C17.3523 8.16072 17.8441 8.02385 18.3012 7.82066C17.9598 8.33236 17.5268 8.78182 17.0287 9.1419Z" fill="#1F2937"/>
</g>
<defs>
<clipPath id="clip0_31_5004">
<rect width="22.2307" height="22.2307" fill="white" transform="translate(0.838547 0.475098)"/>
</clipPath>
</defs>
</svg>
