<svg width="26" height="9" viewBox="0 0 26 9" fill="none" xmlns="http://www.w3.org/2000/svg">
<path d="M25.5373 2.27717H24.2503L23.4898 5.44849L23.3728 5.88895C23.285 5.91831 23.2265 5.91831 23.1388 5.94768C23.0218 5.97704 22.9047 5.97704 22.7585 5.97704C22.583 5.97704 22.466 5.94768 22.349 5.88895C22.2612 5.83022 22.1735 5.77149 22.1442 5.6834C22.115 5.59531 22.0857 5.47785 22.0857 5.36039C22.0857 5.24294 22.115 5.09612 22.1442 4.97866L22.5537 3.33427L22.817 2.2478H21.5007L20.8864 4.80248C20.7987 5.12548 20.7694 5.41912 20.7694 5.65404C20.7694 5.94768 20.7987 6.18259 20.8864 6.38814C20.9742 6.59369 21.1497 6.76987 21.3837 6.88733C21.6177 7.00478 21.9395 7.06351 22.3197 7.06351C22.6122 7.06351 22.8755 7.03415 23.0803 6.97542H23.1095C23.051 7.2397 22.934 7.44524 22.7292 7.62143C22.5245 7.79761 22.2612 7.88571 21.9102 7.88571C21.764 7.88571 21.5885 7.88571 21.4715 7.85634L21.2082 8.91345C21.3837 8.94281 21.5885 8.94281 21.7932 8.94281C22.2027 8.94281 22.5537 8.88408 22.817 8.79599C23.1095 8.7079 23.3728 8.56108 23.6068 8.3849C23.8115 8.20871 24.0163 7.9738 24.1625 7.68016C24.3088 7.38652 24.4258 7.06351 24.5135 6.71114L25.3911 2.92318L25.5373 2.27717ZM20.1259 5.00803C20.0382 5.33103 20.0089 5.6834 20.0382 6.0064C20.0674 6.35877 20.2137 6.8286 20.3307 7.09288H19.0729C18.9266 6.8286 18.9266 6.71114 18.8974 6.62305C18.7219 6.76987 18.5464 6.85796 18.3416 6.94605C18.1369 7.03415 17.9321 7.09288 17.6688 7.09288C17.3763 7.09288 17.1131 7.03415 16.9083 6.94605C16.7036 6.85796 16.5281 6.71114 16.3818 6.53496C16.2355 6.35877 16.1478 6.15322 16.0893 5.91831C16.0308 5.6834 16.0015 5.44849 16.0015 5.15485C16.0015 4.74375 16.0893 4.36202 16.2063 4.03901C16.3526 3.68664 16.5573 3.36364 16.8206 3.12872C17.0838 2.86445 17.6688 2.27717 18.6926 2.27717H20.7109L20.1259 5.00803ZM19.1899 3.393C18.5756 3.393 18.4586 3.393 18.2246 3.51046C18.0491 3.59855 17.9029 3.74537 17.7566 3.92155C17.6396 4.06837 17.5226 4.27392 17.4348 4.47947C17.3471 4.68502 17.3178 4.91993 17.3178 5.15485C17.3178 5.44849 17.3763 5.65404 17.4641 5.83022C17.5518 6.0064 17.7273 6.06513 17.9906 6.06513C18.1369 6.06513 18.2539 6.03577 18.3709 5.97704C18.4879 5.91831 18.6049 5.83022 18.7219 5.71276C18.7219 5.56594 18.7511 5.41912 18.7804 5.24294C18.8096 5.06675 18.8389 4.91993 18.8681 4.80248L19.1899 3.393ZM15.709 4.18583C15.709 4.62629 15.6213 5.00803 15.5043 5.36039C15.358 5.71276 15.1533 6.03577 14.9193 6.27068C14.656 6.53496 14.3635 6.74051 14.0417 6.88733C13.6907 7.03415 13.3105 7.12224 12.9302 7.12224C12.7254 7.12224 12.5207 7.09288 12.3159 7.06351L11.9064 8.64917H10.6194L12.1112 2.30653H13.837C14.1587 2.30653 14.4512 2.36526 14.656 2.45335C14.89 2.54144 15.0948 2.68826 15.241 2.86445C15.3873 3.04063 15.5043 3.24618 15.592 3.48109C15.6798 3.68664 15.709 3.92155 15.709 4.18583ZM12.5207 5.97704C12.6084 6.0064 12.7547 6.0064 12.901 6.0064C13.135 6.0064 13.3397 5.97704 13.5445 5.88895C13.72 5.80086 13.8955 5.6834 14.0417 5.53658C14.188 5.38976 14.2757 5.18421 14.3635 4.97866C14.4512 4.77311 14.4805 4.50884 14.4805 4.24456C14.4805 3.98028 14.422 3.77473 14.305 3.59855C14.188 3.42236 13.9832 3.33427 13.72 3.33427H13.1935L12.5207 5.97704ZM9.82961 5.97704C9.6541 5.97704 9.5371 5.94768 9.4201 5.88895C9.33234 5.83022 9.24459 5.77149 9.21534 5.6834C9.18609 5.59531 9.15684 5.47785 9.15684 5.36039C9.15684 5.24294 9.18609 5.09612 9.21534 4.97866L9.62485 3.33427H11.0874L11.3507 2.2478H9.85886L10.2099 0.867689L8.83508 1.1026L7.95755 4.83184C7.8698 5.15485 7.84055 5.44849 7.84055 5.6834C7.84055 5.97704 7.8698 6.21195 7.95755 6.4175C8.0453 6.62305 8.22081 6.79924 8.45482 6.91669C8.68882 7.03415 9.01058 7.09288 9.39084 7.09288C9.68335 7.09288 9.94661 7.06351 10.1514 7.00478C10.1806 7.00478 10.2099 7.00478 10.2391 6.97542L10.5024 5.85958C10.4146 5.88895 10.3269 5.91831 10.2391 5.91831C10.0929 5.97704 9.97586 5.97704 9.82961 5.97704ZM6.52426 2.27717L5.38347 7.09288H6.67051L7.8113 2.27717H6.52426ZM7.9283 1.71925L8.13306 0.897054H6.84602L6.64126 1.71925H7.9283ZM3.65767 2.27717C3.95018 2.27717 4.18419 2.33589 4.38894 2.42399C4.5937 2.51208 4.76921 2.6589 4.91546 2.83508C5.06171 3.01127 5.14947 3.21682 5.20797 3.45173C5.26647 3.68664 5.29572 3.92155 5.29572 4.18583C5.29572 4.59693 5.20797 4.97866 5.06171 5.33103C4.91546 5.6834 4.7107 6.0064 4.44745 6.27068C4.18419 6.56432 3.89168 6.74051 3.54067 6.91669C3.18966 7.06351 2.8094 7.1516 2.42914 7.1516H2.10738C1.96112 7.1516 1.81487 7.1516 1.63936 7.12224C1.46386 7.09288 1.28835 7.06351 1.0836 7.00478C0.87884 6.94606 0.703334 6.88733 0.527829 6.79923L2.04887 0.427228L3.39441 0.22168L2.83865 2.48271C2.95565 2.42399 3.07266 2.39462 3.18966 2.36526C3.39441 2.27717 3.51142 2.27717 3.65767 2.27717ZM2.48764 6.03577C2.69239 6.03577 2.89715 5.97704 3.07266 5.88895C3.24816 5.80086 3.42367 5.65404 3.54067 5.47785C3.68692 5.30167 3.77468 5.12548 3.86243 4.91993C3.95018 4.71438 3.97943 4.47947 3.97943 4.24456C3.97943 3.95092 3.92093 3.74537 3.83318 3.56919C3.74543 3.42237 3.54067 3.33427 3.27741 3.33427C3.18966 3.33427 3.10191 3.33427 2.9849 3.36364C2.83865 3.393 2.7509 3.45173 2.63389 3.53982L2.04887 5.94768C2.22438 5.97704 2.28288 5.97704 2.31213 5.97704C2.37063 6.03577 2.42914 6.03577 2.48764 6.03577Z" fill="white"/>
</svg>
