<svg width="38" height="25" viewBox="0 0 38 25" fill="none" xmlns="http://www.w3.org/2000/svg">
<g clip-path="url(#clip0_31_4750)">
<rect x="0.188232" y="0.074585" width="37.6587" height="24.1016" rx="2.25952" fill="#0D0D0D"/>
<path d="M3.62463 10.5456H4.38908L4.57146 11.9027H4.57726L4.77803 10.5456H5.66189L5.86195 11.9027H5.86775L6.05055 10.5456H6.815L6.34951 12.7025H5.42292L5.22314 11.3052H5.21734L5.01714 12.7025H4.09083L3.62463 10.5456Z" fill="#FDDF12"/>
<path d="M7.31384 10.5456H8.95451V11.108H8.13262V11.3373H8.89169V11.8993H8.13262V12.1412H8.98125V12.7025H7.31384V10.5456Z" fill="#FDDF12"/>
<path d="M10.7051 11.1583C10.7019 11.0239 10.6273 10.9789 10.5167 10.9789C10.3796 10.9789 10.3193 11.0386 10.3193 11.1048C10.3193 11.1818 10.3701 11.2149 10.4596 11.2419C10.6241 11.2902 10.9257 11.3493 11.1436 11.4422C11.4161 11.5554 11.5352 11.7501 11.5352 12.0096C11.5352 12.5385 11.1052 12.7598 10.4952 12.7598C9.97548 12.7598 9.49768 12.5985 9.49768 12.0366H10.3165C10.3165 12.0969 10.3286 12.1563 10.3613 12.2015C10.394 12.2426 10.4479 12.2695 10.5284 12.2695C10.6538 12.2695 10.735 12.1889 10.735 12.0935C10.735 12.0131 10.6722 11.9714 10.5911 11.9472L9.98453 11.7682C9.65332 11.6695 9.53701 11.4688 9.53701 11.1914C9.53701 10.743 9.89851 10.4891 10.5284 10.4891C11.0661 10.4891 11.47 10.6569 11.47 11.1583H10.7051Z" fill="#FDDF12"/>
<path d="M12.53 11.126H11.9985V10.5456H13.9162V11.126H13.3844V12.7024H12.53V11.126Z" fill="#FDDF12"/>
<path d="M14.4716 10.5456H16.1119V11.108H15.2908V11.3373H16.0494V11.8993H15.2908V12.1412H16.1393V12.7025H14.4716V10.5456Z" fill="#FDDF12"/>
<path d="M16.7485 10.5456H18.0243C18.4874 10.5456 18.7593 10.6865 18.7593 11.0931C18.7593 11.341 18.6545 11.5285 18.3313 11.6067V11.6125C18.5409 11.6306 18.6545 11.7227 18.6961 11.8877C18.7438 12.0726 18.7384 12.3772 18.8366 12.7025H18.0004C17.9499 12.5414 17.9229 12.2696 17.8926 12.0848C17.8753 11.9767 17.8211 11.9357 17.6838 11.9357H17.5849V12.7025H16.7485V10.5456ZM17.6566 11.445C17.8211 11.445 17.9406 11.3883 17.9406 11.2274C17.9406 11.0691 17.8298 11.036 17.6621 11.036H17.5849V11.445H17.6566Z" fill="#FDDF12"/>
<path d="M19.4081 10.5456H20.4323L20.8887 11.8516H20.8952V10.5456H21.5885V12.7025H20.5643L20.1067 11.3883H20.1007V12.7025H19.4081V10.5456Z" fill="#FDDF12"/>
<path d="M11.5173 14.5626C11.5173 15.0828 11.1437 15.343 10.4928 15.343C9.84136 15.343 9.46826 15.0828 9.46826 14.5626V13.1292H10.3224V14.5269C10.3224 14.6971 10.4032 14.7638 10.4928 14.7638C10.5823 14.7638 10.6631 14.6971 10.6631 14.5269V13.1292H11.5173V14.5626Z" fill="#FDDF12"/>
<path d="M12.2019 13.1291H13.2265L13.6833 14.4349H13.6893V13.1291H14.3822V15.2865H13.3577L12.9011 13.9714H12.8943V15.2865H12.2019V13.1291Z" fill="#FDDF12"/>
<path d="M15.082 13.1291H15.9355V15.2865H15.082V13.1291Z" fill="#FDDF12"/>
<path d="M17.6713 13.0726C18.4153 13.0726 18.7859 13.5354 18.7859 14.2077C18.7859 14.8798 18.4153 15.3431 17.6713 15.3431C16.9276 15.3431 16.5575 14.8798 16.5575 14.2077C16.5575 13.5354 16.9276 13.0726 17.6713 13.0726ZM17.6713 14.7814C17.8036 14.7814 17.9012 14.7065 17.9012 14.2077C17.9012 13.7206 17.8092 13.634 17.6713 13.634C17.5343 13.634 17.4415 13.7206 17.4415 14.2077C17.4415 14.7065 17.5408 14.7814 17.6713 14.7814Z" fill="#FDDF12"/>
<path d="M19.4081 13.1291H20.4323L20.8887 14.4349H20.8952V13.1291H21.5885V15.2865H20.5643L20.1067 13.9714H20.1007V15.2865H19.4081V13.1291Z" fill="#FDDF12"/>
<path d="M29.631 10.515H29.2669L28.8593 13.5427H28.8462L28.3998 10.515H26.4275L25.9799 13.5427H25.9671L25.5606 10.515H23.8551L24.8947 15.3264H26.9614L27.4074 12.2095H27.421L27.8668 15.3264H29.9335L30.037 14.8452C29.7728 14.5645 29.631 14.1883 29.631 13.7133V10.515Z" fill="#FDDF12"/>
<path d="M29.631 10.515V13.7133C29.631 14.1883 29.7728 14.5645 30.037 14.8452L30.972 10.515H29.631Z" fill="white"/>
<path d="M32.2962 10.515V13.6337C32.2962 14.0134 32.1161 14.1612 31.9164 14.1612C31.7166 14.1612 31.5365 14.0134 31.5365 13.6337V10.515H31.1298L30.1694 14.9648C30.5591 15.289 31.1491 15.4541 31.9164 15.4541C33.3689 15.4541 34.2021 14.8734 34.2021 13.7133V10.515H32.2962Z" fill="#FDDF12"/>
<path d="M22.6047 10.515H22.3209L23.3423 15.3264H23.6264L22.6047 10.515Z" fill="#FDDF12"/>
<path d="M24.1185 15.3264H24.4025L23.381 10.515H23.0973L24.1185 15.3264Z" fill="#FDDF12"/>
<path d="M34.7774 10.7451C34.7749 10.7128 34.7575 10.6968 34.7245 10.6968C34.6992 10.6968 34.6736 10.7101 34.6736 10.738C34.6736 10.7724 34.7045 10.7765 34.7319 10.783C34.7805 10.7954 34.852 10.8092 34.852 10.873C34.852 10.9521 34.7831 10.9794 34.7146 10.9794C34.6419 10.9794 34.5902 10.9512 34.5923 10.8709H34.6621C34.6596 10.9061 34.6799 10.93 34.7156 10.93C34.7429 10.93 34.7793 10.9216 34.7793 10.8877C34.7793 10.8501 34.7337 10.8474 34.7062 10.8404C34.6618 10.8294 34.6007 10.8092 34.6007 10.7526C34.6007 10.6798 34.6679 10.6474 34.7333 10.6474C34.7951 10.6474 34.8432 10.681 34.8432 10.7451H34.7774Z" fill="#FDDF12"/>
<path d="M35.104 10.9727H35.047L34.9628 10.6992L34.9618 10.7V10.9727H34.8977V10.654H35.0099L35.0765 10.8858H35.0774L35.1498 10.654H35.2579V10.9727H35.194V10.7L35.1933 10.6992L35.104 10.9727Z" fill="#FDDF12"/>
</g>
<defs>
<clipPath id="clip0_31_4750">
<rect width="37.6587" height="24.1016" fill="white" transform="translate(0.188232 0.074585)"/>
</clipPath>
</defs>
</svg>
