<svg width="36" height="23" viewBox="0 0 36 23" fill="none" xmlns="http://www.w3.org/2000/svg">
<g clip-path="url(#clip0_31_5071)">
<rect x="0.371788" y="0.69751" width="34.7354" height="22.2307" rx="2.08412" fill="#499FE3"/>
<path d="M11.3668 13.2657V9.05018C11.3668 8.33054 10.7767 7.75415 10.0571 7.75415H4.46029C3.72701 7.75415 3.15062 8.33054 3.15062 9.05018V14.5754C3.15062 15.295 3.74065 15.8714 4.46029 15.8714H10.0435C10.7767 15.8714 11.3531 15.295 11.3531 14.5754V14.5174C11.3531 14.5174 9.20786 13.6409 8.13011 13.1224C7.41047 13.999 6.47596 14.531 5.49712 14.531C4.89344 14.531 4.38867 14.3162 4.08854 13.999C3.94529 13.8421 3.84297 13.6545 3.78499 13.4533C3.78499 13.4396 3.77135 13.4089 3.77135 13.3953C3.77135 13.3953 3.75771 13.368 3.75771 13.3237C3.68608 12.9349 3.80205 12.5324 4.08854 12.1879C4.26248 11.9867 4.54897 11.7855 4.99576 11.6832C5.70175 11.5092 6.8102 11.7855 7.84362 12.13C8.0312 11.7855 8.18809 11.4103 8.30405 11.0079H5.10831V10.6907H6.76245V10.1143H4.76043V9.7971H6.75904V8.97856C6.75904 8.97856 6.75904 8.83531 6.90229 8.83531H7.70719V9.80051H9.69899V10.1177H7.71401V10.6941H9.32382C9.16693 11.3285 8.93501 11.9014 8.63488 12.4062C9.12259 12.5802 9.56938 12.7507 9.90021 12.853C11.0939 13.2384 11.3668 13.2657 11.3668 13.2657ZM5.14924 12.1572C4.94801 12.1709 4.5592 12.2732 4.34433 12.4437C3.70996 12.9894 4.08513 13.9819 5.36751 13.9819C6.11444 13.9819 6.85113 13.5078 7.43775 12.7575C6.60215 12.3755 5.91321 12.0856 5.14924 12.1572Z" fill="white"/>
<path d="M16.1722 13.8115H17.2807L15.2104 9.29248H14.9069C14.8626 9.29248 14.8046 9.30612 14.7636 9.33682C14.7227 9.36751 14.692 9.40844 14.6613 9.45278L12.5604 13.8115H13.3073L13.6825 13.0783H15.8278L16.1722 13.8115ZM14.7773 10.7625L15.6845 12.7065H13.8257L14.7773 10.7625ZM18.7199 13.8115H17.7138V9.49712C17.7138 9.45278 17.7275 9.3948 17.7718 9.35387C17.8161 9.30953 17.8571 9.29589 17.915 9.29589H18.7336V13.8149H18.7199V13.8115ZM19.5965 10.6772C19.5965 10.6328 19.6101 10.5749 19.6545 10.5476C19.6988 10.5032 19.7397 10.4896 19.7977 10.4896H20.6162V13.8149H19.5931V10.6772H19.5965ZM21.4655 10.6772C21.4655 10.6328 21.4791 10.5749 21.5235 10.5339C21.5678 10.4896 21.6087 10.476 21.6667 10.476H22.4853V10.7352C22.6012 10.6328 22.7308 10.5612 22.8877 10.5032C23.031 10.4453 23.2185 10.418 23.4198 10.418C23.6346 10.418 23.8222 10.4623 24.0098 10.5476C24.1837 10.6328 24.3406 10.7488 24.4566 10.8921C24.5862 11.0353 24.6715 11.1956 24.7431 11.3968C24.8147 11.5844 24.8454 11.7856 24.8454 12.0005C24.8454 12.2734 24.8011 12.5189 24.7294 12.7474C24.6442 12.9793 24.5282 13.1806 24.385 13.3511C24.2417 13.525 24.0541 13.6546 23.8393 13.7536C23.6244 13.8559 23.3925 13.8968 23.1196 13.8968C22.99 13.8968 22.8741 13.8968 22.7752 13.8832C22.6728 13.8695 22.5876 13.8559 22.4887 13.8115V15.1485H21.4655V10.6772ZM22.4887 12.877C22.4887 12.9623 22.5023 13.0339 22.533 13.109C22.5603 13.1806 22.6046 13.2386 22.6626 13.2965C22.7206 13.3545 22.7786 13.3989 22.8638 13.4261C22.9355 13.4534 23.0207 13.4705 23.123 13.4705C23.2083 13.4705 23.297 13.4432 23.3686 13.3852C23.4402 13.3272 23.5119 13.2556 23.5698 13.1396C23.6278 13.0373 23.6722 12.9077 23.7131 12.7645C23.7404 12.6212 23.7711 12.4609 23.7711 12.304C23.7711 12.0892 23.7574 11.9016 23.7267 11.7413C23.6994 11.5844 23.6551 11.4378 23.5971 11.3388C23.5391 11.2229 23.4812 11.1513 23.4095 11.0933C23.3379 11.0353 23.2526 11.008 23.164 11.008C23.106 11.008 23.0344 11.0217 22.9764 11.0353C22.9184 11.0626 22.8604 11.0933 22.8024 11.1206C22.7445 11.1649 22.7001 11.2058 22.6456 11.2502C22.6012 11.3081 22.5432 11.3525 22.5023 11.4071V12.8736H22.4887V12.877ZM27.4682 10.5169C26.9804 10.3736 26.3597 10.36 25.5241 10.5749C25.5514 10.6601 25.5821 10.8068 25.6094 10.8921C26.9463 10.6601 27.1919 10.8341 27.1919 11.4105V11.5844C26.9463 11.5708 26.6598 11.5264 26.4279 11.5264C25.5207 11.5128 25.1899 12.2324 25.1899 12.6929C25.1899 13.4841 25.9538 14.231 27.1885 13.6853V13.8149H28.2253V11.3832C28.2424 10.9057 27.8399 10.6192 27.4682 10.5169ZM26.0289 12.7065C26.0289 12.3177 26.3461 12.0312 26.7349 12.0005C26.9804 11.9869 27.1237 12.0278 27.2089 12.0858V13.2215C27.0793 13.3375 26.9225 13.4091 26.7349 13.4091C26.329 13.4091 26.0289 13.0919 26.0289 12.7065ZM28.5186 10.418H29.5964L30.6605 12.4609L31.537 10.5476C31.5507 10.5032 31.5813 10.476 31.6223 10.4453C31.6666 10.418 31.7075 10.418 31.7519 10.418H32.3283L30.6434 14.1151C30.241 15.1212 29.2485 14.978 29.0746 14.978V14.4152C29.2042 14.4152 29.6646 14.4152 29.8658 14.2003C29.9102 14.156 29.9511 14.0571 29.9818 13.9991C30.0125 13.9411 30.0398 13.8832 30.067 13.8252L30.183 13.5523L28.5186 10.418Z" fill="white"/>
<path d="M20.6606 9.49703C20.6606 9.76988 20.415 9.98475 20.1149 9.98475C19.8114 9.98475 19.5692 9.76988 19.5692 9.49703C19.5692 9.22419 19.8148 9.00932 20.1149 9.00932C20.415 9.00591 20.6606 9.22419 20.6606 9.49703Z" fill="white"/>
</g>
<defs>
<clipPath id="clip0_31_5071">
<rect width="34.7354" height="22.2307" fill="white" transform="translate(0.371788 0.69751)"/>
</clipPath>
</defs>
</svg>
