<svg width="25" height="25" viewBox="0 0 25 25" fill="none" xmlns="http://www.w3.org/2000/svg">
<g clip-path="url(#clip0_31_4702)">
<path d="M3.40896 8.25281C2.99369 8.25281 2.64135 8.39762 2.35172 8.68725C2.06209 8.97688 1.91724 9.32443 1.91724 9.73006V15.9582C1.91724 16.374 2.06205 16.726 2.35172 17.0157C2.64135 17.3053 2.99369 17.4502 3.40896 17.4502C3.82393 17.4502 4.17413 17.3054 4.45927 17.0157C4.74385 16.7261 4.88653 16.374 4.88653 15.9582V9.73006C4.88653 9.32438 4.74171 8.97688 4.45204 8.68725C4.16237 8.39762 3.8146 8.25281 3.40896 8.25281Z" fill="#1F2937"/>
<path d="M15.4018 2.6618L16.4302 0.764697C16.4977 0.639101 16.4737 0.54279 16.3579 0.475068C16.2323 0.416671 16.1357 0.446262 16.0683 0.561747L15.0255 2.47402C14.1079 2.06833 13.1375 1.86512 12.1141 1.86512C11.0905 1.86512 10.1199 2.06838 9.20272 2.47402L8.15991 0.561747C8.09214 0.446262 7.99562 0.416933 7.87028 0.475068C7.75427 0.543095 7.73026 0.639101 7.79803 0.764697L8.82646 2.6618C7.78364 3.1936 6.95311 3.93423 6.33515 4.88531C5.71719 5.83692 5.40808 6.87681 5.40808 8.00682H18.8056C18.8056 6.87707 18.4964 5.83713 17.8785 4.88531C17.2605 3.93423 16.4347 3.1936 15.4018 2.6618ZM9.4561 5.42117C9.34488 5.53264 9.21205 5.58812 9.05765 5.58812C8.90294 5.58812 8.77281 5.53264 8.66665 5.42117C8.56049 5.31021 8.50741 5.17791 8.50741 5.02298C8.50741 4.86858 8.56049 4.73601 8.66665 4.62479C8.77281 4.51384 8.90325 4.45836 9.05765 4.45836C9.21205 4.45836 9.34488 4.51384 9.4561 4.62479C9.56705 4.73627 9.62279 4.86858 9.62279 5.02298C9.62248 5.17764 9.56679 5.31021 9.4561 5.42117ZM15.561 5.42117C15.4546 5.53264 15.3242 5.58812 15.17 5.58812C15.0153 5.58812 14.8825 5.53264 14.7715 5.42117C14.6603 5.31021 14.6048 5.17791 14.6048 5.02298C14.6048 4.86858 14.6603 4.73601 14.7715 4.62479C14.8825 4.51384 15.0153 4.45836 15.17 4.45836C15.3244 4.45836 15.4546 4.51384 15.561 4.62479C15.6672 4.73627 15.7202 4.86858 15.7202 5.02298C15.7202 5.17764 15.6672 5.31021 15.561 5.42117Z" fill="#1F2937"/>
<path d="M5.46619 18.1743C5.46619 18.6189 5.62059 18.9953 5.92944 19.3041C6.23855 19.613 6.6149 19.7674 7.05919 19.7674H8.13107L8.14576 23.0556C8.14576 23.4709 8.29057 23.8235 8.5802 24.1132C8.86983 24.4028 9.21764 24.5476 9.62302 24.5476C10.038 24.5476 10.3906 24.4028 10.6803 24.1132C10.9699 23.8235 11.1147 23.4709 11.1147 23.0556V19.7677H13.1135V23.0556C13.1135 23.4709 13.2582 23.8235 13.5479 24.1132C13.8376 24.4028 14.1898 24.5476 14.6052 24.5476C15.0202 24.5476 15.3727 24.4028 15.6624 24.1132C15.9521 23.8235 16.0968 23.4709 16.0968 23.0556V19.7677H17.1832C17.6176 19.7677 17.9892 19.6133 18.2986 19.3044C18.6074 18.9956 18.7619 18.6192 18.7619 18.1747V8.52783H5.46619V18.1743Z" fill="#1F2937"/>
<path d="M20.8191 8.25281C20.4134 8.25281 20.0659 8.39549 19.7762 8.68006C19.4866 8.96516 19.3418 9.31536 19.3418 9.73006V15.9582C19.3418 16.374 19.4866 16.726 19.7762 17.0157C20.0659 17.3054 20.4137 17.4502 20.8191 17.4502C21.2341 17.4502 21.5867 17.3054 21.8763 17.0157C22.166 16.726 22.3108 16.374 22.3108 15.9582V9.73006C22.3108 9.31532 22.166 8.96516 21.8763 8.68006C21.5867 8.39549 21.2341 8.25281 20.8191 8.25281Z" fill="#1F2937"/>
</g>
<defs>
<clipPath id="clip0_31_4702">
<rect width="24.1016" height="24.1016" fill="white" transform="translate(0.0627441 0.445435)"/>
</clipPath>
</defs>
</svg>
