<svg width="23" height="23" viewBox="0 0 23 23" fill="none" xmlns="http://www.w3.org/2000/svg">
<g clip-path="url(#clip0_31_5017)">
<path d="M3.31366 7.677C2.93063 7.677 2.60564 7.81057 2.33849 8.07772C2.07134 8.34487 1.93773 8.66544 1.93773 9.03959V14.7842C1.93773 15.1678 2.0713 15.4925 2.33849 15.7596C2.60564 16.0268 2.93063 16.1604 3.31366 16.1604C3.69641 16.1604 4.01943 16.0268 4.28244 15.7596C4.54492 15.4925 4.67653 15.1678 4.67653 14.7842V9.03959C4.67653 8.6654 4.54295 8.34487 4.27577 8.07772C4.00858 7.81057 3.68781 7.677 3.31366 7.677Z" fill="#1F2937"/>
<path d="M14.3755 2.51994L15.324 0.770103C15.3863 0.654257 15.3641 0.565422 15.2574 0.502957C15.1415 0.449093 15.0525 0.476387 14.9902 0.582908L14.0284 2.34674C13.1821 1.97254 12.2869 1.78511 11.343 1.78511C10.3989 1.78511 9.50363 1.97258 8.65761 2.34674L7.69575 0.582908C7.63324 0.476387 7.54421 0.449335 7.4286 0.502957C7.3216 0.565704 7.29945 0.654257 7.36196 0.770103L8.31056 2.51994C7.34869 3.01046 6.58262 3.6936 6.01263 4.57085C5.44265 5.44859 5.15753 6.40776 5.15753 7.45006H17.515C17.515 6.408 17.2299 5.44879 16.6599 4.57085C16.0899 3.6936 15.3282 3.01046 14.3755 2.51994ZM8.89132 5.06511C8.78873 5.16793 8.66622 5.2191 8.5238 5.2191C8.3811 5.2191 8.26107 5.16793 8.16315 5.06511C8.06524 4.96277 8.01628 4.84073 8.01628 4.69783C8.01628 4.55542 8.06524 4.43314 8.16315 4.33056C8.26107 4.22822 8.38138 4.17705 8.5238 4.17705C8.66622 4.17705 8.78873 4.22822 8.89132 4.33056C8.99366 4.43338 9.04507 4.55542 9.04507 4.69783C9.04479 4.84049 8.99342 4.96277 8.89132 5.06511ZM14.5223 5.06511C14.4242 5.16793 14.3039 5.2191 14.1617 5.2191C14.019 5.2191 13.8965 5.16793 13.7941 5.06511C13.6916 4.96277 13.6404 4.84073 13.6404 4.69783C13.6404 4.55542 13.6916 4.43314 13.7941 4.33056C13.8965 4.22822 14.019 4.17705 14.1617 4.17705C14.3041 4.17705 14.4241 4.22822 14.5223 4.33056C14.6203 4.43338 14.6692 4.55542 14.6692 4.69783C14.6692 4.84049 14.6203 4.96277 14.5223 5.06511Z" fill="#1F2937"/>
<path d="M5.21114 16.8284C5.21114 17.2384 5.35355 17.5856 5.63843 17.8705C5.92354 18.1553 6.27068 18.2977 6.68048 18.2977H7.66916L7.6827 21.3307C7.6827 21.7137 7.81628 22.039 8.08343 22.3062C8.35057 22.5733 8.67138 22.7069 9.04529 22.7069C9.42808 22.7069 9.75327 22.5733 10.0205 22.3062C10.2876 22.039 10.4212 21.7138 10.4212 21.3307V18.298H12.2648V21.3307C12.2648 21.7137 12.3983 22.039 12.6655 22.3062C12.9327 22.5733 13.2576 22.7069 13.6407 22.7069C14.0235 22.7069 14.3487 22.5733 14.6159 22.3062C14.883 22.039 15.0166 21.7138 15.0166 21.3307V18.298H16.0186C16.4193 18.298 16.762 18.1556 17.0474 17.8707C17.3322 17.5858 17.4747 17.2387 17.4747 16.8286V7.93066H5.21114V16.8284Z" fill="#1F2937"/>
<path d="M19.3723 7.677C18.9981 7.677 18.6776 7.80861 18.4104 8.07109C18.1432 8.33406 18.0096 8.65707 18.0096 9.03959V14.7842C18.0096 15.1678 18.1432 15.4925 18.4104 15.7596C18.6776 16.0268 18.9983 16.1604 19.3723 16.1604C19.7551 16.1604 20.0803 16.0268 20.3474 15.7596C20.6146 15.4925 20.7482 15.1678 20.7482 14.7842V9.03959C20.7482 8.65703 20.6146 8.33406 20.3474 8.07109C20.0803 7.80861 19.7551 7.677 19.3723 7.677Z" fill="#1F2937"/>
</g>
<defs>
<clipPath id="clip0_31_5017">
<rect width="22.2307" height="22.2307" fill="white" transform="translate(0.226624 0.475098)"/>
</clipPath>
</defs>
</svg>
