<svg width="25" height="25" viewBox="0 0 25 25" fill="none" xmlns="http://www.w3.org/2000/svg">
<g clip-path="url(#clip0_31_4709)">
<path d="M18.8702 13.956C18.2072 10.6195 21.3742 8.66259 21.3742 8.66259C21.3742 8.66259 20.1403 6.87743 18.0666 6.41818C15.9939 5.95792 14.9565 6.53297 13.9212 6.96426C12.8848 7.39661 12.3677 7.39661 12.3677 7.39661C10.8721 7.39661 9.77888 5.81312 6.92945 6.53402C4.9664 7.02942 2.89987 9.29556 2.5265 12.0002C2.15313 14.7059 2.95885 18.1583 4.51233 20.834C6.06581 23.5118 7.64829 24.5181 8.77148 24.5471C9.89472 24.575 11.0159 23.7424 12.3677 23.5397C13.7206 23.339 14.5531 24.03 15.8801 24.4034C17.2019 24.7757 17.6653 24.4303 19.1877 23.1353C20.7143 21.8404 22.0961 18.1263 22.0961 18.1263C22.0961 18.1263 19.5332 17.2947 18.8702 13.956Z" fill="#1F2937"/>
<path d="M15.935 4.2593C17.4036 2.76274 16.9062 0.445923 16.9062 0.445923C16.9062 0.445923 14.8438 0.807933 13.462 2.24557C12.0812 3.68426 12.3098 5.95658 12.3098 5.95658C12.3098 5.95658 14.4663 5.75491 15.935 4.2593Z" fill="#1F2937"/>
</g>
<defs>
<clipPath id="clip0_31_4709">
<rect width="24.1016" height="24.1016" fill="white" transform="translate(0.215088 0.445435)"/>
</clipPath>
</defs>
</svg>
