<svg width="39" height="25" viewBox="0 0 39 25" fill="none" xmlns="http://www.w3.org/2000/svg">
<g clip-path="url(#clip0_31_4758)">
<rect x="0.504089" y="0.201538" width="37.6587" height="24.1016" rx="2.25952" fill="#F7931A"/>
<path d="M11.2979 17.0696C11.524 17.0696 11.7193 17.1101 11.8834 17.1896C12.0484 17.27 12.1844 17.3782 12.2936 17.5143C12.4013 17.651 12.4814 17.8109 12.5332 17.9941C12.5846 18.1778 12.6104 18.3753 12.6104 18.5868C12.6104 18.9116 12.5509 19.2184 12.4307 19.5076C12.3106 19.7973 12.1476 20.0485 11.9402 20.2629C11.7331 20.4769 11.4884 20.6457 11.2064 20.7703C10.9247 20.8951 10.6185 20.9575 10.2897 20.9575C10.2472 20.9575 10.1724 20.9562 10.0668 20.9541C9.96124 20.9519 9.83989 20.941 9.70398 20.9226C9.56721 20.9035 9.42259 20.8753 9.26987 20.8375C9.11724 20.8004 8.97227 20.7484 8.83575 20.6823L10.0565 15.5531L11.1498 15.3837L10.7127 17.2038C10.8063 17.1617 10.9006 17.129 10.9947 17.1052C11.0888 17.0818 11.1899 17.0696 11.2979 17.0696ZM10.3808 20.0901C10.5455 20.0901 10.7006 20.0496 10.8464 19.9701C10.9926 19.8904 11.1187 19.7829 11.2244 19.649C11.3301 19.5145 11.4137 19.363 11.4747 19.1937C11.5357 19.0245 11.5665 18.8479 11.5665 18.6641C11.5665 18.4384 11.5288 18.2623 11.4536 18.1351C11.3784 18.0083 11.2393 17.9445 11.0373 17.9445C10.971 17.9445 10.8858 17.9572 10.78 17.9797C10.6739 18.0037 10.5789 18.0534 10.4938 18.1283L10.0284 20.0613C10.0565 20.0662 10.0813 20.0709 10.1025 20.0754C10.1232 20.0802 10.1461 20.0836 10.1689 20.0859C10.1931 20.0886 10.2207 20.09 10.2541 20.09C10.2874 20.09 10.3291 20.0901 10.3808 20.0901Z" fill="white"/>
<path d="M13.7441 20.8596H12.6998L13.5817 17.1486H14.6332L13.7441 20.8596ZM14.2523 16.6964C14.1065 16.6964 13.9744 16.653 13.8571 16.5661C13.7389 16.4797 13.6804 16.3466 13.6804 16.1673C13.6804 16.0687 13.7004 15.9762 13.7401 15.8889C13.7805 15.8018 13.8332 15.7268 13.8992 15.663C13.9651 15.5997 14.0416 15.5492 14.1283 15.5111C14.2156 15.4737 14.3085 15.455 14.4075 15.455C14.5531 15.455 14.6846 15.4983 14.8023 15.5853C14.9195 15.6727 14.9785 15.8057 14.9785 15.984C14.9785 16.083 14.9586 16.1759 14.9185 16.263C14.8787 16.3501 14.826 16.4251 14.7599 16.4889C14.6945 16.5522 14.6174 16.6026 14.5308 16.6403C14.4434 16.6784 14.3509 16.6964 14.2523 16.6964Z" fill="white"/>
<path d="M15.5484 16.2239L16.6422 16.0544L16.3736 17.1483H17.545L17.3335 18.0089H16.1691L15.859 19.307C15.8304 19.4152 15.8142 19.5162 15.8097 19.6101C15.8045 19.7045 15.8165 19.7855 15.8447 19.8537C15.8727 19.9221 15.9232 19.9748 15.9964 20.0121C16.0692 20.05 16.1735 20.0691 16.3103 20.0691C16.4229 20.0691 16.5327 20.0584 16.6388 20.0371C16.7443 20.0162 16.8512 19.9871 16.9594 19.949L17.0373 20.7536C16.8961 20.8054 16.7433 20.8499 16.5787 20.8874C16.4137 20.9254 16.2185 20.9437 15.9929 20.9437C15.6684 20.9437 15.4169 20.8955 15.2377 20.7996C15.0588 20.7029 14.9323 20.571 14.8566 20.4039C14.7819 20.2374 14.7486 20.0455 14.7579 19.8292C14.7675 19.6125 14.8002 19.3847 14.8566 19.1447L15.5484 16.2239Z" fill="white"/>
<path d="M17.4991 19.3772C17.4991 19.0576 17.5508 18.7562 17.6542 18.474C17.7575 18.1916 17.9062 17.9446 18.0992 17.7326C18.2914 17.5217 18.5257 17.3546 18.8014 17.2319C19.0759 17.11 19.3831 17.0485 19.7218 17.0485C19.9337 17.0485 20.123 17.0685 20.2896 17.1087C20.4569 17.1492 20.6082 17.2015 20.7451 17.2672L20.3849 18.0861C20.2908 18.048 20.1932 18.0144 20.0922 17.9839C19.9911 17.9528 19.8678 17.9378 19.7218 17.9378C19.3733 17.9378 19.0977 18.0579 18.8926 18.2974C18.6883 18.5371 18.5855 18.8597 18.5855 19.2643C18.5855 19.5042 18.6372 19.6981 18.7411 19.8465C18.8444 19.9948 19.0353 20.0686 19.3124 20.0686C19.4492 20.0686 19.5811 20.0543 19.7076 20.0265C19.8349 19.9982 19.9474 19.9627 20.0464 19.9207L20.1244 20.7602C19.9923 20.8114 19.8467 20.8577 19.6869 20.8982C19.5268 20.9373 19.3362 20.9576 19.1151 20.9576C18.8234 20.9576 18.5764 20.9149 18.3744 20.8308C18.1723 20.7455 18.0052 20.6321 17.8737 20.4885C17.7414 20.3446 17.6465 20.1766 17.5878 19.9837C17.5291 19.791 17.4991 19.5885 17.4991 19.3772Z" fill="white"/>
<path d="M22.138 20.9576C21.8888 20.9576 21.6723 20.9196 21.4886 20.8444C21.3055 20.7692 21.1538 20.6637 21.0339 20.527C20.9137 20.3909 20.8238 20.2296 20.7622 20.0438C20.7006 19.8581 20.671 19.6524 20.671 19.427C20.671 19.1443 20.7164 18.8617 20.8081 18.5798C20.8994 18.2974 21.0349 18.0436 21.2142 17.8181C21.3921 17.5922 21.6116 17.4075 21.87 17.2635C22.1281 17.1204 22.425 17.0485 22.7585 17.0485C23.0032 17.0485 23.2186 17.0865 23.4047 17.1617C23.59 17.2367 23.7427 17.3431 23.8633 17.4792C23.9827 17.616 24.0734 17.7765 24.1344 17.9626C24.1958 18.148 24.2261 18.3542 24.2261 18.5798C24.2261 18.8616 24.1813 19.1442 24.0925 19.4269C24.0035 19.7082 23.8715 19.9626 23.6973 20.1887C23.5234 20.4142 23.3059 20.5988 23.0448 20.7422C22.7839 20.8856 22.4814 20.9576 22.138 20.9576ZM22.66 17.9379C22.5051 17.9379 22.3683 17.9828 22.2511 18.0716C22.1335 18.1614 22.0347 18.2743 21.9551 18.4105C21.8746 18.5473 21.8149 18.6964 21.7746 18.8585C21.7346 19.021 21.715 19.1746 21.715 19.3205C21.715 19.556 21.753 19.7394 21.8276 19.8714C21.9033 20.0027 22.0393 20.0687 22.237 20.0687C22.3923 20.0687 22.5285 20.0241 22.6464 19.9344C22.7633 19.8452 22.8622 19.7323 22.9424 19.5958C23.0224 19.4597 23.0826 19.3102 23.1229 19.1478C23.1624 18.9858 23.1825 18.8314 23.1825 18.6857C23.1825 18.4508 23.1447 18.267 23.0693 18.1352C22.9941 18.0039 22.8575 17.9379 22.66 17.9379Z" fill="white"/>
<path d="M25.3611 20.8596H24.316L25.1979 17.1486H26.2498L25.3611 20.8596ZM25.8685 16.6964C25.7229 16.6964 25.5908 16.653 25.4737 16.5661C25.3561 16.4797 25.297 16.3466 25.297 16.1673C25.297 16.0687 25.3173 15.9762 25.3571 15.8889C25.397 15.8018 25.45 15.7268 25.516 15.663C25.5816 15.5997 25.6587 15.5492 25.7453 15.5111C25.8321 15.4737 25.925 15.455 26.0236 15.455C26.1696 15.455 26.3015 15.4983 26.4189 15.5853C26.5365 15.6727 26.5958 15.8057 26.5958 15.984C26.5958 16.083 26.5747 16.1759 26.5353 16.263C26.4958 16.3501 26.4427 16.4251 26.377 16.4889C26.3107 16.5522 26.2346 16.6026 26.1478 16.6403C26.0604 16.6784 25.9677 16.6964 25.8685 16.6964Z" fill="white"/>
<path d="M27.0054 17.3172C27.0847 17.294 27.1732 17.2661 27.2695 17.2358C27.3661 17.2055 27.4741 17.1773 27.5946 17.1518C27.7139 17.1256 27.8485 17.1043 27.9965 17.0879C28.1445 17.0711 28.3132 17.0629 28.5006 17.0629C29.0514 17.0629 29.431 17.2233 29.6406 17.5431C29.8501 17.8629 29.8863 18.3006 29.7504 18.8553L29.27 20.8591H28.2188L28.6844 18.8975C28.7128 18.775 28.7351 18.6566 28.7516 18.5409C28.7682 18.4263 28.7673 18.3252 28.7478 18.2378C28.7293 18.1513 28.6855 18.0806 28.6177 18.0258C28.5488 17.9719 28.4447 17.9448 28.3034 17.9448C28.1673 17.9448 28.0287 17.9594 27.8874 17.9876L27.2029 20.859H26.1512L27.0054 17.3172Z" fill="white"/>
<path d="M24.0798 9.64444C23.4262 12.2656 20.7711 13.8609 18.1493 13.2072C15.5285 12.5537 13.9331 9.89871 14.587 7.27767C15.2403 4.65616 17.8954 3.06079 20.5165 3.71429C23.1381 4.36779 24.7334 7.02309 24.0798 9.64444Z" fill="white"/>
<path d="M21.4909 7.76375C21.5883 7.1127 21.0925 6.7627 20.4147 6.52922L20.6346 5.64728L20.0977 5.51349L19.8836 6.37219C19.7424 6.33702 19.5975 6.30384 19.4534 6.27097L19.669 5.40662L19.1324 5.27283L18.9124 6.15446C18.7955 6.12785 18.6809 6.10156 18.5695 6.07388L18.5701 6.07113L17.8297 5.88627L17.6869 6.45965C17.6869 6.45965 18.0852 6.55093 18.0768 6.55659C18.2943 6.61087 18.3336 6.75475 18.327 6.86882L18.0765 7.87354C18.0915 7.87736 18.1109 7.88286 18.1323 7.89142C18.1144 7.88699 18.0953 7.8821 18.0756 7.87736L17.7245 9.28482C17.6979 9.35087 17.6304 9.44995 17.4784 9.41234C17.4838 9.42014 17.0882 9.31494 17.0882 9.31494L16.8217 9.92945L17.5203 10.1036C17.6503 10.1362 17.7777 10.1703 17.9031 10.2024L17.6809 11.0944L18.2172 11.2282L18.4373 10.3457C18.5837 10.3854 18.726 10.4221 18.8651 10.4567L18.6458 11.3351L19.1827 11.4689L19.4049 10.5785C20.3205 10.7518 21.0089 10.6819 21.2987 9.85392C21.5322 9.18727 21.2871 8.80272 20.8054 8.55196C21.1562 8.47108 21.4204 8.24035 21.4909 7.76375ZM20.2642 9.48375C20.0983 10.1504 18.9757 9.79001 18.6117 9.69964L18.9066 8.51786C19.2705 8.60869 20.4376 8.7885 20.2642 9.48375ZM20.4303 7.75412C20.2789 8.36053 19.3445 8.05243 19.0414 7.9769L19.3087 6.90505C19.6118 6.98059 20.5879 7.12156 20.4303 7.75412Z" fill="#F7931A"/>
</g>
<defs>
<clipPath id="clip0_31_4758">
<rect width="37.6587" height="24.1016" fill="white" transform="translate(0.504089 0.201538)"/>
</clipPath>
</defs>
</svg>
