<svg width="36" height="23" viewBox="0 0 36 23" fill="none" xmlns="http://www.w3.org/2000/svg">
<g clip-path="url(#clip0_31_5073)">
<rect x="0.957947" y="0.69751" width="34.7354" height="22.2307" rx="2.08412" fill="#F7931A"/>
<path d="M10.9139 16.1193C11.1224 16.1193 11.3025 16.1566 11.4539 16.23C11.606 16.3041 11.7316 16.4039 11.8322 16.5294C11.9316 16.6556 12.0055 16.803 12.0532 16.972C12.1006 17.1415 12.1244 17.3236 12.1244 17.5187C12.1244 17.8182 12.0695 18.1013 11.9587 18.368C11.8479 18.6352 11.6976 18.867 11.5063 19.0647C11.3152 19.2621 11.0896 19.4177 10.8294 19.5327C10.5696 19.6478 10.2872 19.7053 9.98389 19.7053C9.94467 19.7053 9.87573 19.7042 9.77833 19.7022C9.68094 19.7002 9.56901 19.6901 9.44365 19.6732C9.31749 19.6556 9.1841 19.6296 9.04323 19.5947C8.90245 19.5604 8.76874 19.5125 8.64282 19.4516L9.76877 14.7205L10.7772 14.5642L10.3741 16.2431C10.4604 16.2042 10.5473 16.1741 10.6341 16.1521C10.721 16.1305 10.8142 16.1193 10.9139 16.1193ZM10.0679 18.9053C10.2198 18.9053 10.3629 18.8679 10.4974 18.7946C10.6322 18.7211 10.7486 18.622 10.846 18.4985C10.9435 18.3744 11.0206 18.2347 11.0769 18.0785C11.1331 17.9224 11.1616 17.7595 11.1616 17.59C11.1616 17.3818 11.1268 17.2194 11.0574 17.102C10.9881 16.9851 10.8598 16.9263 10.6734 16.9263C10.6124 16.9263 10.5337 16.9379 10.4361 16.9587C10.3383 16.9808 10.2507 17.0267 10.1722 17.0958L9.7429 18.8787C9.76877 18.8833 9.79167 18.8876 9.8112 18.8917C9.83032 18.8961 9.85146 18.8993 9.87251 18.9014C9.89477 18.9039 9.92024 18.9052 9.95102 18.9052C9.9818 18.9052 10.0203 18.9053 10.0679 18.9053Z" fill="white"/>
<path d="M13.1702 19.6152H12.2069L13.0204 16.1923H13.9902L13.1702 19.6152ZM13.6389 15.7752C13.5044 15.7752 13.3825 15.7352 13.2744 15.655C13.1653 15.5753 13.1113 15.4526 13.1113 15.2872C13.1113 15.1962 13.1298 15.1109 13.1665 15.0304C13.2037 14.95 13.2523 14.8808 13.3132 14.822C13.374 14.7637 13.4445 14.7171 13.5245 14.682C13.6051 14.6474 13.6907 14.6301 13.782 14.6301C13.9164 14.6301 14.0376 14.6701 14.1462 14.7503C14.2543 14.8309 14.3087 14.9536 14.3087 15.1181C14.3087 15.2094 14.2903 15.2951 14.2534 15.3754C14.2166 15.4558 14.168 15.525 14.1071 15.5838C14.0468 15.6422 13.9757 15.6887 13.8958 15.7235C13.8152 15.7586 13.7298 15.7752 13.6389 15.7752Z" fill="white"/>
<path d="M14.8344 15.3392L15.8432 15.1829L15.5955 16.1918H16.676L16.4809 16.9856H15.4069L15.1208 18.1829C15.0945 18.2827 15.0795 18.3759 15.0754 18.4625C15.0706 18.5496 15.0816 18.6243 15.1077 18.6872C15.1335 18.7503 15.1801 18.7989 15.2476 18.8333C15.3147 18.8682 15.4109 18.8858 15.5371 18.8858C15.641 18.8858 15.7422 18.876 15.8401 18.8564C15.9374 18.8371 16.036 18.8102 16.1358 18.7751L16.2077 19.5173C16.0775 19.565 15.9365 19.6061 15.7847 19.6406C15.6326 19.6757 15.4525 19.6925 15.2444 19.6925C14.9451 19.6925 14.7131 19.6481 14.5478 19.5596C14.3828 19.4705 14.2661 19.3488 14.1963 19.1947C14.1274 19.0411 14.0966 18.8641 14.1052 18.6646C14.1141 18.4647 14.1443 18.2546 14.1963 18.0333L14.8344 15.3392Z" fill="white"/>
<path d="M16.6337 18.2479C16.6337 17.953 16.6814 17.675 16.7768 17.4147C16.872 17.1542 17.0092 16.9264 17.1872 16.7309C17.3645 16.5363 17.5806 16.3822 17.8349 16.2691C18.088 16.1566 18.3714 16.0999 18.6838 16.0999C18.8793 16.0999 19.0539 16.1183 19.2076 16.1554C19.3618 16.1927 19.5014 16.241 19.6277 16.3016L19.2955 17.057C19.2087 17.0218 19.1186 16.9908 19.0255 16.9626C18.9323 16.934 18.8185 16.9201 18.6839 16.9201C18.3624 16.9201 18.1082 17.0309 17.919 17.2518C17.7306 17.4729 17.6357 17.7705 17.6357 18.1437C17.6357 18.3649 17.6834 18.5438 17.7792 18.6807C17.8745 18.8175 18.0506 18.8856 18.3062 18.8856C18.4324 18.8856 18.5541 18.8724 18.6707 18.8467C18.7882 18.8206 18.8919 18.7879 18.9833 18.7491L19.0552 19.5234C18.9334 19.5707 18.799 19.6134 18.6517 19.6507C18.504 19.6868 18.3281 19.7055 18.1243 19.7055C17.8552 19.7055 17.6273 19.6662 17.441 19.5886C17.2546 19.5099 17.1005 19.4053 16.9792 19.2729C16.8572 19.1401 16.7696 18.9851 16.7155 18.8072C16.6613 18.6295 16.6337 18.4427 16.6337 18.2479Z" fill="white"/>
<path d="M20.9125 19.7055C20.6826 19.7055 20.4829 19.6705 20.3135 19.6011C20.1446 19.5318 20.0047 19.4345 19.8941 19.3083C19.7832 19.1828 19.7003 19.0341 19.6435 18.8627C19.5867 18.6913 19.5594 18.5016 19.5594 18.2937C19.5594 18.033 19.6012 17.7723 19.6859 17.5124C19.7701 17.2518 19.895 17.0178 20.0604 16.8097C20.2245 16.6014 20.4269 16.431 20.6652 16.2982C20.9033 16.1662 21.1772 16.0999 21.4848 16.0999C21.7105 16.0999 21.9092 16.135 22.0809 16.2043C22.2518 16.2735 22.3926 16.3716 22.5039 16.4971C22.614 16.6233 22.6976 16.7714 22.7539 16.943C22.8105 17.114 22.8385 17.3042 22.8385 17.5123C22.8385 17.7722 22.7972 18.0329 22.7152 18.2937C22.6332 18.5531 22.5114 18.7878 22.3507 18.9963C22.1903 19.2043 21.9898 19.3746 21.7488 19.5069C21.5083 19.6392 21.2293 19.7055 20.9125 19.7055ZM21.3939 16.9202C21.2511 16.9202 21.1249 16.9617 21.0168 17.0436C20.9083 17.1264 20.8172 17.2305 20.7437 17.3561C20.6695 17.4823 20.6145 17.6199 20.5772 17.7694C20.5404 17.9193 20.5223 18.061 20.5223 18.1956C20.5223 18.4128 20.5573 18.5819 20.6262 18.7036C20.696 18.8247 20.8215 18.8857 21.0038 18.8857C21.1471 18.8857 21.2727 18.8445 21.3814 18.7617C21.4892 18.6795 21.5804 18.5753 21.6544 18.4495C21.7282 18.324 21.7837 18.186 21.8209 18.0362C21.8573 17.8868 21.8759 17.7443 21.8759 17.61C21.8759 17.3934 21.841 17.2238 21.7715 17.1022C21.7021 16.9811 21.5761 16.9202 21.3939 16.9202Z" fill="white"/>
<path d="M23.8853 19.6152H22.9213L23.7348 16.1923H24.7051L23.8853 19.6152ZM24.3533 15.7752C24.219 15.7752 24.0972 15.7352 23.9892 15.655C23.8807 15.5753 23.8262 15.4526 23.8262 15.2872C23.8262 15.1962 23.8449 15.1109 23.8816 15.0304C23.9184 14.95 23.9673 14.8808 24.0282 14.822C24.0887 14.7637 24.1598 14.7171 24.2397 14.682C24.3198 14.6474 24.4054 14.6301 24.4964 14.6301C24.6311 14.6301 24.7527 14.6701 24.861 14.7503C24.9694 14.8309 25.0242 14.9536 25.0242 15.1181C25.0242 15.2094 25.0047 15.2951 24.9683 15.3754C24.9319 15.4558 24.883 15.525 24.8223 15.5838C24.7612 15.6422 24.691 15.6887 24.611 15.7235C24.5303 15.7586 24.4448 15.7752 24.3533 15.7752Z" fill="white"/>
<path d="M25.402 16.3476C25.4752 16.3262 25.5568 16.3005 25.6456 16.2725C25.7347 16.2446 25.8343 16.2185 25.9455 16.1951C26.0555 16.1709 26.1797 16.1513 26.3162 16.1361C26.4527 16.1206 26.6083 16.113 26.7811 16.113C27.2891 16.113 27.6393 16.261 27.8327 16.556C28.0258 16.851 28.0593 17.2547 27.9339 17.7664L27.4908 19.6146H26.5213L26.9507 17.8053C26.9769 17.6923 26.9974 17.5831 27.0126 17.4764C27.028 17.3706 27.0271 17.2774 27.0092 17.1967C26.9921 17.117 26.9517 17.0518 26.8891 17.0012C26.8256 16.9515 26.7295 16.9265 26.5993 16.9265C26.4737 16.9265 26.3459 16.94 26.2155 16.966L25.5841 19.6145H24.6142L25.402 16.3476Z" fill="white"/>
<path d="M22.7035 9.27064C22.1007 11.6884 19.6516 13.1598 17.2334 12.5568C14.8161 11.9541 13.3445 9.50518 13.9476 7.08759C14.5502 4.66959 16.9992 3.19805 19.4168 3.80082C21.8349 4.4036 23.3064 6.85277 22.7035 9.27064Z" fill="white"/>
<path d="M20.3156 7.53585C20.4055 6.93533 19.9482 6.6125 19.3229 6.39715L19.5258 5.58367L19.0305 5.46027L18.8331 6.25231C18.7029 6.21987 18.5692 6.18927 18.4363 6.15894L18.6352 5.36168L18.1402 5.23828L17.9373 6.05148C17.8295 6.02694 17.7237 6.00268 17.621 5.97715L17.6216 5.97461L16.9386 5.8041L16.8069 6.33298C16.8069 6.33298 17.1743 6.41717 17.1666 6.42239C17.3671 6.47246 17.4034 6.60517 17.3973 6.71038L17.1663 7.63711C17.1801 7.64063 17.198 7.64571 17.2178 7.65361C17.2013 7.64952 17.1836 7.64501 17.1654 7.64063L16.8416 8.93884C16.817 8.99977 16.7548 9.09116 16.6146 9.05646C16.6196 9.06365 16.2547 8.96662 16.2547 8.96662L16.0088 9.53343L16.6533 9.69407C16.7732 9.72411 16.8907 9.75556 17.0063 9.78518L16.8014 10.608L17.296 10.7314L17.499 9.91733C17.6341 9.95399 17.7653 9.98784 17.8937 10.0197L17.6914 10.8299L18.1866 10.9534L18.3916 10.1321C19.236 10.2919 19.871 10.2275 20.1383 9.46376C20.3537 8.84886 20.1276 8.49416 19.6833 8.26287C20.0069 8.18826 20.2506 7.97545 20.3156 7.53585ZM19.1841 9.12232C19.0311 9.73723 17.9957 9.40481 17.66 9.32146L17.9319 8.23142C18.2676 8.31519 19.3441 8.48105 19.1841 9.12232ZM19.3373 7.52696C19.1977 8.0863 18.3359 7.80212 18.0563 7.73245L18.3029 6.74381C18.5824 6.81348 19.4827 6.94351 19.3373 7.52696Z" fill="#F7931A"/>
</g>
<defs>
<clipPath id="clip0_31_5073">
<rect width="34.7354" height="22.2307" fill="white" transform="translate(0.957947 0.69751)"/>
</clipPath>
</defs>
</svg>
