<svg width="39" height="25" viewBox="0 0 39 25" fill="none" xmlns="http://www.w3.org/2000/svg">
<g clip-path="url(#clip0_31_4746)">
<rect x="0.451782" y="0.074585" width="37.6587" height="24.1016" rx="2.25952" fill="black"/>
<path d="M8.67169 8.89343C6.653 8.89343 4.97083 9.74986 4.97083 12.3337C4.97083 14.3806 6.10197 15.6697 8.72382 15.6697C11.8099 15.6697 12.0077 13.6368 12.0077 13.6368H10.5123C10.5123 13.6368 10.1917 14.7314 8.6326 14.7314C7.36272 14.7314 6.44937 13.8736 6.44937 12.6712H12.1641V11.9167C12.1641 10.7271 11.4089 8.89343 8.67169 8.89343ZM8.61957 9.85774C9.82836 9.85774 10.6524 10.5983 10.6524 11.7082H6.48245C6.48245 10.5299 7.55808 9.85774 8.61957 9.85774Z" fill="#E53238"/>
<path d="M12.1631 6.3916V14.3722C12.1631 14.8253 12.1307 15.4613 12.1307 15.4613H13.557C13.557 15.4613 13.6082 15.0045 13.6082 14.587C13.6082 14.587 14.3128 15.6894 16.2288 15.6894C18.2464 15.6894 19.6169 14.2886 19.6169 12.2817C19.6169 10.4147 18.3581 8.91314 16.2321 8.91314C14.2412 8.91314 13.6226 9.98822 13.6226 9.98822V6.3916H12.1631ZM15.8639 9.90026C17.2341 9.90026 18.1053 10.9171 18.1053 12.2817C18.1053 13.745 17.099 14.7023 15.8737 14.7023C14.4114 14.7023 13.6226 13.5605 13.6226 12.2947C13.6226 11.1153 14.3304 9.90026 15.8639 9.90026Z" fill="#0064D2"/>
<path d="M23.1613 8.89343C20.1243 8.89343 19.9295 10.5563 19.9295 10.8221H21.4411C21.4411 10.8221 21.5204 9.85123 23.057 9.85123C24.0555 9.85123 24.8292 10.3083 24.8292 11.1869V11.4997H23.057C20.7042 11.4997 19.4604 12.188 19.4604 13.5847C19.4604 14.9592 20.6097 15.7071 22.1627 15.7071C24.2794 15.7071 24.9612 14.5376 24.9612 14.5376C24.9612 15.0028 24.9971 15.4612 24.9971 15.4612H26.3409C26.3409 15.4612 26.2887 14.893 26.2887 14.5294V11.3873C26.2887 9.32702 24.6269 8.89343 23.1613 8.89343ZM24.8292 12.4379V12.8549C24.8292 13.3988 24.4936 14.751 22.5178 14.751C21.4359 14.751 20.972 14.211 20.972 13.5847C20.972 12.4453 22.5342 12.4379 24.8292 12.4379Z" fill="#F5AF02"/>
<path d="M25.4748 9.15454H27.1754L29.6159 14.044L32.0509 9.15454H33.5914L29.1561 17.8594H27.5402L28.8201 15.4328L25.4748 9.15454Z" fill="#86B817"/>
</g>
<defs>
<clipPath id="clip0_31_4746">
<rect width="37.6587" height="24.1016" fill="white" transform="translate(0.451782 0.074585)"/>
</clipPath>
</defs>
</svg>
