<svg width="25" height="25" viewBox="0 0 25 25" fill="none" xmlns="http://www.w3.org/2000/svg">
<g clip-path="url(#clip0_31_4687)">
<path fill-rule="evenodd" clip-rule="evenodd" d="M12.0959 0.811157C14.2685 0.835949 16.2312 1.36991 17.9841 2.41303C19.716 3.43533 21.1568 4.88487 22.1685 6.62302C23.2053 8.38643 23.736 10.361 23.7607 12.5469C23.6991 15.5376 22.7558 18.092 20.9308 20.21C19.1058 22.328 16.7684 23.6383 14.3487 24.1407V15.7556H16.6363L17.1536 12.4605H13.6896V10.3022C13.6704 9.85481 13.8119 9.41528 14.0885 9.06311C14.3656 8.70997 14.8534 8.52437 15.552 8.50629H17.6438V5.61983C17.6138 5.61017 17.329 5.57199 16.7894 5.50527C16.1775 5.43367 15.5621 5.39543 14.946 5.39071C13.5516 5.39715 12.4488 5.79048 11.6377 6.57072C10.8265 7.35074 10.4121 8.47926 10.3945 9.95628V12.4605H7.75841V15.7556H10.3945V24.1407C7.42349 23.6383 5.08606 22.328 3.26102 20.21C1.43599 18.092 0.492734 15.5376 0.431152 12.5469C0.455791 10.3609 0.986521 8.38633 2.02334 6.62302C3.03508 4.88487 4.47581 3.43533 6.20778 2.41303C7.96058 1.37011 9.92329 0.83615 12.0959 0.811157Z" fill="#1F2937"/>
</g>
<defs>
<clipPath id="clip0_31_4687">
<rect width="24.1016" height="24.1016" fill="white" transform="translate(0.0836182 0.445435)"/>
</clipPath>
</defs>
</svg>
