<svg width="34" height="20" viewBox="0 0 34 20" fill="none" xmlns="http://www.w3.org/2000/svg">
<path d="M21.3635 17.8654H12.6143V2.1416H21.3635V17.8654Z" fill="#FF5F00"/>
<path d="M13.1748 10.002C13.1748 6.8123 14.6682 3.97105 16.9938 2.14004C15.2931 0.801114 13.1468 0.00195366 10.8142 0.00195366C5.29187 0.00195366 0.81543 4.47903 0.81543 10.002C0.81543 15.5249 5.29187 20.002 10.8142 20.002C13.1468 20.002 15.2931 19.2028 16.9938 17.8639C14.6682 16.0329 13.1748 13.1916 13.1748 10.002Z" fill="#EB001B"/>
<path d="M33.1634 10.002C33.1634 15.5249 28.687 20.002 23.1647 20.002C20.832 20.002 18.6857 19.2028 16.9844 17.8639C19.3107 16.0329 20.8041 13.1916 20.8041 10.002C20.8041 6.8123 19.3107 3.97105 16.9844 2.14004C18.6857 0.801114 20.832 0.00195366 23.1647 0.00195366C28.687 0.00195366 33.1634 4.47903 33.1634 10.002Z" fill="#F79E1B"/>
</svg>
