<svg width="28" height="5" viewBox="0 0 28 5" fill="none" xmlns="http://www.w3.org/2000/svg">
<path d="M5.33933 3.06508C5.33933 2.62828 5.62557 2.26944 6.09331 2.26944C6.54022 2.26944 6.84194 2.61281 6.84194 3.06508C6.84194 3.51735 6.54022 3.86072 6.09331 3.86072C5.62557 3.86072 5.33933 3.50188 5.33933 3.06508ZM7.35134 3.06508V1.82253H6.81099V2.12424C6.63961 1.90049 6.37955 1.76005 6.02607 1.76005C5.32921 1.76005 4.78292 2.30634 4.78292 3.06508C4.78292 3.82442 5.32921 4.37012 6.02607 4.37012C6.37955 4.37012 6.63961 4.22968 6.81099 4.00592V4.30763H7.35134V3.06508ZM25.6111 3.06508C25.6111 2.62828 25.8974 2.26944 26.3651 2.26944C26.8126 2.26944 27.1137 2.61281 27.1137 3.06508C27.1137 3.51735 26.8126 3.86072 26.3651 3.86072C25.8974 3.86072 25.6111 3.50188 25.6111 3.06508ZM27.6237 3.06508V0.824561H27.0828V2.12424C26.9114 1.90049 26.6513 1.76005 26.2979 1.76005C25.601 1.76005 25.0547 2.30634 25.0547 3.06508C25.0547 3.82442 25.601 4.37012 26.2979 4.37012C26.6513 4.37012 26.9114 4.22968 27.0828 4.00592V4.30763H27.6237V3.06508ZM14.0586 2.24385C14.4067 2.24385 14.6305 2.46225 14.6876 2.84668H13.3981C13.4558 2.48784 13.6736 2.24385 14.0586 2.24385ZM14.0693 1.76005C13.3409 1.76005 12.8315 2.29027 12.8315 3.06508C12.8315 3.85536 13.3618 4.37012 14.1056 4.37012C14.4799 4.37012 14.8227 4.27669 15.1244 4.02199L14.8596 3.62149C14.6513 3.78752 14.3859 3.88155 14.1366 3.88155C13.7884 3.88155 13.4713 3.72028 13.3933 3.27277H15.2387C15.244 3.20552 15.2494 3.13768 15.2494 3.06508C15.244 2.29027 14.7656 1.76005 14.0693 1.76005ZM20.5939 3.06508C20.5939 2.62828 20.8802 2.26944 21.3479 2.26944C21.7948 2.26944 22.0965 2.61281 22.0965 3.06508C22.0965 3.51735 21.7948 3.86072 21.3479 3.86072C20.8802 3.86072 20.5939 3.50188 20.5939 3.06508ZM22.6059 3.06508V1.82253H22.0656V2.12424C21.8936 1.90049 21.6341 1.76005 21.2806 1.76005C20.5838 1.76005 20.0375 2.30634 20.0375 3.06508C20.0375 3.82442 20.5838 4.37012 21.2806 4.37012C21.6341 4.37012 21.8936 4.22968 22.0656 4.00592V4.30763H22.6059V3.06508ZM17.5423 3.06508C17.5423 3.81906 18.0672 4.37012 18.8681 4.37012C19.2425 4.37012 19.4918 4.2868 19.762 4.07376L19.5025 3.63696C19.2996 3.78276 19.0865 3.86072 18.8521 3.86072C18.4206 3.85536 18.1035 3.54353 18.1035 3.06508C18.1035 2.58663 18.4206 2.2748 18.8521 2.26944C19.0865 2.26944 19.2996 2.3474 19.5025 2.4932L19.762 2.0564C19.4918 1.84336 19.2425 1.76005 18.8681 1.76005C18.0672 1.76005 17.5423 2.3111 17.5423 3.06508ZM24.509 1.76005C24.1972 1.76005 23.9943 1.90584 23.8538 2.12424V1.82253H23.3182V4.30763H23.8592V2.91452C23.8592 2.50331 24.0359 2.2748 24.3894 2.2748C24.4989 2.2748 24.6132 2.29027 24.7274 2.33728L24.894 1.82789C24.7744 1.78087 24.6185 1.76005 24.509 1.76005ZM10.0239 2.0201C9.76384 1.84871 9.40559 1.76005 9.01045 1.76005C8.38084 1.76005 7.97559 2.06176 7.97559 2.55568C7.97559 2.96094 8.2773 3.21088 8.83311 3.28884L9.08841 3.32514C9.38476 3.36679 9.52461 3.44475 9.52461 3.58519C9.52461 3.77741 9.32704 3.8869 8.95808 3.8869C8.58377 3.8869 8.3136 3.76729 8.1315 3.62685L7.8768 4.04758C8.17316 4.26598 8.54747 4.37012 8.95273 4.37012C9.67041 4.37012 10.0864 4.03211 10.0864 3.55901C10.0864 3.12221 9.75908 2.89369 9.21814 2.81574L8.96344 2.77884C8.72957 2.7479 8.54211 2.70148 8.54211 2.53485C8.54211 2.35276 8.71886 2.24385 9.01521 2.24385C9.33239 2.24385 9.63946 2.36347 9.79002 2.4569L10.0239 2.0201ZM16.996 1.76005C16.6842 1.76005 16.4812 1.90584 16.3414 2.12424V1.82253H15.8058V4.30763H16.3461V2.91452C16.3461 2.50331 16.5229 2.2748 16.8764 2.2748C16.9859 2.2748 17.1001 2.29027 17.2144 2.33728L17.381 1.82789C17.2614 1.78087 17.1055 1.76005 16.996 1.76005ZM12.3846 1.82253H11.5009V1.06855H10.9546V1.82253H10.4506V2.31646H10.9546V3.45011C10.9546 4.02675 11.1784 4.37012 11.8175 4.37012C12.052 4.37012 12.3221 4.29752 12.4935 4.1779L12.3376 3.71492C12.1763 3.80835 11.9996 3.85536 11.8592 3.85536C11.589 3.85536 11.5009 3.68874 11.5009 3.43939V2.31646H12.3846V1.82253ZM4.30506 4.30763V2.7479C4.30506 2.16054 3.93075 1.7654 3.32733 1.76005C3.01014 1.75469 2.68284 1.85347 2.45373 2.2022C2.28235 1.92667 2.01217 1.76005 1.6325 1.76005C1.36709 1.76005 1.10763 1.838 0.904708 2.129V1.82253H0.36377V4.30763H0.909468V2.93C0.909468 2.49855 1.14869 2.26944 1.51825 2.26944C1.87709 2.26944 2.05859 2.50331 2.05859 2.92464V4.30763H2.60488V2.93C2.60488 2.49855 2.85423 2.26944 3.21307 2.26944C3.58202 2.26944 3.75877 2.50331 3.75877 2.92464V4.30763H4.30506Z" fill="white"/>
</svg>
