<svg width="25" height="24" viewBox="0 0 25 24" fill="none" xmlns="http://www.w3.org/2000/svg">
<path d="M12.38 9.14C13.66 9.2 13.99 10.29 14.01 10.8H15.8C15.72 8.82 14.31 7.61 12.35 7.61C10.14 7.61 8.5 9 8.5 12.14C8.5 14.08 9.43 16.38 12.34 16.38C14.56 16.38 15.75 14.73 15.78 13.43H13.99C13.96 14.02 13.54 14.81 12.36 14.87C11.05 14.83 10.5 13.81 10.5 12.14C10.5 9.25 11.78 9.16 12.38 9.14ZM12.5 2C6.98 2 2.5 6.48 2.5 12C2.5 17.52 6.98 22 12.5 22C18.02 22 22.5 17.52 22.5 12C22.5 6.48 18.02 2 12.5 2ZM12.5 20C8.09 20 4.5 16.41 4.5 12C4.5 7.59 8.09 4 12.5 4C16.91 4 20.5 7.59 20.5 12C20.5 16.41 16.91 20 12.5 20Z" fill="white"/>
</svg>
