<svg width="25" height="25" viewBox="0 0 25 25" fill="none" xmlns="http://www.w3.org/2000/svg">
<g clip-path="url(#clip0_31_4691)">
<path fill-rule="evenodd" clip-rule="evenodd" d="M12.4389 9.86074C14.0686 9.86074 15.3896 11.1614 15.3896 12.7659C15.3896 14.37 14.0686 15.6707 12.4389 15.6707C10.8092 15.6707 9.48811 14.37 9.48811 12.7659C9.48811 11.1614 10.8092 9.86074 12.4389 9.86074ZM12.4389 8.69907C10.1574 8.69907 8.3078 10.5198 8.3078 12.7659C8.3078 15.0116 10.1574 16.8327 12.4389 16.8327C14.7204 16.8327 16.57 15.0116 16.57 12.7659C16.57 10.5198 14.7204 8.69907 12.4389 8.69907ZM16.6975 7.72147C16.4685 7.72506 16.2456 7.79626 16.0569 7.92612C15.8682 8.05598 15.7221 8.23872 15.6369 8.45137C15.5517 8.66402 15.5313 8.8971 15.5782 9.12132C15.6251 9.34555 15.7372 9.55091 15.9004 9.71162C16.0637 9.87232 16.2708 9.9812 16.4957 10.0246C16.7206 10.0679 16.9534 10.0439 17.1646 9.95538C17.3759 9.86689 17.5564 9.71793 17.6833 9.52721C17.8101 9.3365 17.8778 9.11253 17.8778 8.88346C17.8754 8.57286 17.7497 8.27596 17.5283 8.05805C17.307 7.84014 17.0081 7.71907 16.6975 7.72147ZM9.55529 6.45684H15.3225C17.1987 6.45684 18.7196 7.95413 18.7196 9.80089V15.7305C18.7196 17.5776 17.1987 19.0746 15.3225 19.0746H9.55529C7.67911 19.0746 6.15815 17.5776 6.15815 15.7305V9.80089C6.15815 7.95413 7.67909 6.45684 9.55529 6.45684ZM9.01137 5.30032C6.78128 5.30032 4.97341 7.08016 4.97341 9.2754V16.256C4.97341 18.4516 6.78125 20.2311 9.01137 20.2311H15.8664C18.0965 20.2311 19.9043 18.4516 19.9043 16.256V9.2754C19.9043 7.08014 18.0965 5.30032 15.8664 5.30032H9.01137ZM12.4389 1.10095C18.8812 1.10095 24.1037 6.32327 24.1037 12.7659C24.1037 19.2081 18.8812 24.4305 12.4389 24.4305C5.99659 24.4305 0.774109 19.2081 0.774109 12.7659C0.774109 6.32329 5.99659 1.10095 12.4389 1.10095Z" fill="#1F2937"/>
</g>
<defs>
<clipPath id="clip0_31_4691">
<rect width="24.1016" height="24.1016" fill="white" transform="translate(0.388306 0.445435)"/>
</clipPath>
</defs>
</svg>
