<svg width="23" height="23" viewBox="0 0 23 23" fill="none" xmlns="http://www.w3.org/2000/svg">
<g clip-path="url(#clip0_31_5006)">
<path fill-rule="evenodd" clip-rule="evenodd" d="M11.3 9.16037C12.8031 9.16037 14.0217 10.3601 14.0217 11.84C14.0217 13.3196 12.8031 14.5193 11.3 14.5193C9.7968 14.5193 8.57825 13.3196 8.57825 11.84C8.57825 10.3601 9.79681 9.16037 11.3 9.16037ZM11.3 8.08888C9.19554 8.08888 7.48956 9.76824 7.48956 11.84C7.48956 13.9114 9.19554 15.5911 11.3 15.5911C13.4044 15.5911 15.1104 13.9114 15.1104 11.84C15.1104 9.76824 13.4044 8.08888 11.3 8.08888ZM15.228 7.18716C15.0168 7.19047 14.8112 7.25614 14.6371 7.37593C14.4631 7.49571 14.3283 7.66426 14.2497 7.8604C14.1712 8.05655 14.1523 8.27153 14.1956 8.47835C14.2388 8.68517 14.3422 8.87459 14.4928 9.02282C14.6434 9.17105 14.8344 9.27148 15.0419 9.31148C15.2493 9.35148 15.464 9.32928 15.6589 9.24766C15.8538 9.16604 16.0202 9.02864 16.1372 8.85273C16.2543 8.67682 16.3167 8.47024 16.3167 8.25895C16.3145 7.97246 16.1985 7.69861 15.9943 7.49761C15.7902 7.29662 15.5145 7.18495 15.228 7.18716ZM8.64021 6.0207H13.9597C15.6903 6.0207 17.0932 7.40176 17.0932 9.10516V14.5745C17.0932 16.2782 15.6903 17.659 13.9597 17.659H8.64021C6.90968 17.659 5.50678 16.2782 5.50678 14.5745V9.10516C5.50678 7.40176 6.90965 6.0207 8.64021 6.0207ZM8.13851 4.95395C6.08154 4.95395 4.41401 6.59564 4.41401 8.62047V15.0592C4.41401 17.0843 6.08151 18.7257 8.13851 18.7257H14.4614C16.5184 18.7257 18.1859 17.0843 18.1859 15.0592V8.62047C18.1859 6.59562 16.5184 4.95395 14.4614 4.95395H8.13851ZM11.3 1.08057C17.2422 1.08057 22.0593 5.8975 22.0593 11.84C22.0593 17.7822 17.2422 22.5991 11.3 22.5991C5.35776 22.5991 0.54068 17.7822 0.54068 11.84C0.54068 5.89752 5.35776 1.08057 11.3 1.08057Z" fill="#1F2937"/>
</g>
<defs>
<clipPath id="clip0_31_5006">
<rect width="22.2307" height="22.2307" fill="white" transform="translate(0.184547 0.475098)"/>
</clipPath>
</defs>
</svg>
