<svg width="38" height="25" viewBox="0 0 38 25" fill="none" xmlns="http://www.w3.org/2000/svg">
<g clip-path="url(#clip0_31_4744)">
<rect x="0.0836182" y="0.074585" width="37.6587" height="24.1016" rx="2.25952" fill="#0F3560"/>
<path d="M22.1992 18.0488H15.6096V6.20605H22.1992V18.0488Z" fill="#FF5F00"/>
<path d="M16.0317 12.1265C16.0317 9.7241 17.1565 7.58415 18.9081 6.20508C17.6272 5.19663 16.0106 4.59472 14.2537 4.59472C10.0945 4.59472 6.72296 7.96674 6.72296 12.1265C6.72296 16.2862 10.0945 19.6582 14.2537 19.6582C16.0106 19.6582 17.6272 19.0563 18.9081 18.0479C17.1565 16.6688 16.0317 14.5288 16.0317 12.1265Z" fill="#EB001B"/>
<path d="M31.0866 12.1265C31.0866 16.2862 27.715 19.6582 23.5558 19.6582C21.7989 19.6582 20.1823 19.0563 18.9009 18.0479C20.653 16.6688 21.7778 14.5288 21.7778 12.1265C21.7778 9.7241 20.653 7.58415 18.9009 6.20508C20.1823 5.19663 21.7989 4.59472 23.5558 4.59472C27.715 4.59472 31.0866 7.96674 31.0866 12.1265Z" fill="#F79E1B"/>
<path d="M12.3899 12.1741C12.3899 11.8451 12.6054 11.5748 12.9577 11.5748C13.2943 11.5748 13.5216 11.8334 13.5216 12.1741C13.5216 12.5147 13.2943 12.7733 12.9577 12.7733C12.6054 12.7733 12.3899 12.503 12.3899 12.1741ZM13.9052 12.1741V11.2382H13.4983V11.4654C13.3692 11.2969 13.1733 11.1911 12.9071 11.1911C12.3822 11.1911 11.9708 11.6026 11.9708 12.1741C11.9708 12.746 12.3822 13.157 12.9071 13.157C13.1733 13.157 13.3692 13.0512 13.4983 12.8827V13.1099H13.9052V12.1741ZM27.658 12.1741C27.658 11.8451 27.8736 11.5748 28.2259 11.5748C28.563 11.5748 28.7898 11.8334 28.7898 12.1741C28.7898 12.5147 28.563 12.7733 28.2259 12.7733C27.8736 12.7733 27.658 12.503 27.658 12.1741ZM29.1739 12.1741V10.4866H28.7665V11.4654C28.6374 11.2969 28.4415 11.1911 28.1753 11.1911C27.6504 11.1911 27.239 11.6026 27.239 12.1741C27.239 12.746 27.6504 13.157 28.1753 13.157C28.4415 13.157 28.6374 13.0512 28.7665 12.8827V13.1099H29.1739V12.1741ZM18.957 11.5555C19.2192 11.5555 19.3877 11.72 19.4308 12.0096H18.4595C18.503 11.7393 18.667 11.5555 18.957 11.5555ZM18.9651 11.1911C18.4165 11.1911 18.0328 11.5905 18.0328 12.1741C18.0328 12.7693 18.4321 13.157 18.9924 13.157C19.2743 13.157 19.5325 13.0866 19.7597 12.8948L19.5603 12.5931C19.4034 12.7182 19.2035 12.789 19.0157 12.789C18.7535 12.789 18.5146 12.6675 18.4559 12.3305H19.8458C19.8498 12.2798 19.8539 12.2287 19.8539 12.1741C19.8498 11.5905 19.4895 11.1911 18.9651 11.1911ZM23.8792 12.1741C23.8792 11.8451 24.0948 11.5748 24.4471 11.5748C24.7837 11.5748 25.0109 11.8334 25.0109 12.1741C25.0109 12.5147 24.7837 12.7733 24.4471 12.7733C24.0948 12.7733 23.8792 12.503 23.8792 12.1741ZM25.3946 12.1741V11.2382H24.9876V11.4654C24.8581 11.2969 24.6627 11.1911 24.3964 11.1911C23.8716 11.1911 23.4601 11.6026 23.4601 12.1741C23.4601 12.746 23.8716 13.157 24.3964 13.157C24.6627 13.157 24.8581 13.0512 24.9876 12.8827V13.1099H25.3946V12.1741ZM21.5808 12.1741C21.5808 12.7419 21.9761 13.157 22.5794 13.157C22.8613 13.157 23.0491 13.0942 23.2526 12.9338L23.0572 12.6048C22.9044 12.7146 22.7439 12.7733 22.5673 12.7733C22.2424 12.7693 22.0035 12.5344 22.0035 12.1741C22.0035 11.8137 22.2424 11.5788 22.5673 11.5748C22.7439 11.5748 22.9044 11.6335 23.0572 11.7433L23.2526 11.4144C23.0491 11.2539 22.8613 11.1911 22.5794 11.1911C21.9761 11.1911 21.5808 11.6062 21.5808 12.1741ZM26.828 11.1911C26.5931 11.1911 26.4403 11.301 26.3345 11.4654V11.2382H25.9311V13.1099H26.3385V12.0607C26.3385 11.751 26.4716 11.5788 26.7379 11.5788C26.8203 11.5788 26.9064 11.5905 26.9925 11.6259L27.118 11.2422C27.0279 11.2068 26.9104 11.1911 26.828 11.1911ZM15.9181 11.387C15.7223 11.2579 15.4525 11.1911 15.1549 11.1911C14.6806 11.1911 14.3754 11.4184 14.3754 11.7904C14.3754 12.0956 14.6027 12.2839 15.0213 12.3426L15.2136 12.3699C15.4368 12.4013 15.5421 12.46 15.5421 12.5658C15.5421 12.7106 15.3933 12.793 15.1154 12.793C14.8335 12.793 14.63 12.7029 14.4928 12.5972L14.301 12.9141C14.5242 13.0785 14.8061 13.157 15.1114 13.157C15.6519 13.157 15.9652 12.9024 15.9652 12.5461C15.9652 12.2171 15.7187 12.045 15.3113 11.9863L15.1194 11.9585C14.9433 11.9352 14.8021 11.9002 14.8021 11.7747C14.8021 11.6376 14.9352 11.5555 15.1584 11.5555C15.3973 11.5555 15.6286 11.6456 15.742 11.716L15.9181 11.387ZM21.1693 11.1911C20.9345 11.1911 20.7816 11.301 20.6763 11.4654V11.2382H20.2729V13.1099H20.6799V12.0607C20.6799 11.751 20.813 11.5788 21.0793 11.5788C21.1617 11.5788 21.2478 11.5905 21.3338 11.6259L21.4593 11.2422C21.3692 11.2068 21.2518 11.1911 21.1693 11.1911ZM17.6962 11.2382H17.0306V10.6703H16.6191V11.2382H16.2395V11.6102H16.6191V12.4641C16.6191 12.8984 16.7877 13.157 17.269 13.157C17.4456 13.157 17.6491 13.1023 17.7782 13.0122L17.6608 12.6635C17.5393 12.7339 17.4062 12.7693 17.3004 12.7693C17.0969 12.7693 17.0306 12.6438 17.0306 12.456V11.6102H17.6962V11.2382ZM11.6109 13.1099V11.9352C11.6109 11.4928 11.329 11.1952 10.8745 11.1911C10.6356 11.1871 10.3891 11.2615 10.2165 11.5242C10.0874 11.3166 9.88393 11.1911 9.59797 11.1911C9.39807 11.1911 9.20265 11.2499 9.04982 11.469V11.2382H8.6424V13.1099H9.0534V12.0723C9.0534 11.7474 9.23358 11.5748 9.51192 11.5748C9.78219 11.5748 9.91889 11.751 9.91889 12.0683V13.1099H10.3303V12.0723C10.3303 11.7474 10.5181 11.5748 10.7884 11.5748C11.0663 11.5748 11.1994 11.751 11.1994 12.0683V13.1099H11.6109Z" fill="white"/>
</g>
<defs>
<clipPath id="clip0_31_4744">
<rect width="37.6587" height="24.1016" fill="white" transform="translate(0.0836182 0.074585)"/>
</clipPath>
</defs>
</svg>
