<svg width="39" height="25" viewBox="0 0 39 25" fill="none" xmlns="http://www.w3.org/2000/svg">
<g clip-path="url(#clip0_31_4748)">
<rect x="0.820007" y="0.074585" width="37.6587" height="24.1016" rx="2.25952" fill="black"/>
<path fill-rule="evenodd" clip-rule="evenodd" d="M32.0004 13.7698H32.549V15.5148H32.58L33.2935 14.6766L33.7995 14.6752L33.0168 15.5915L33.9597 16.7374H33.3277L32.5569 15.6708H32.549V16.7374H32.0004V13.7698ZM5.91825 13.9025V15.5298C5.91825 16.0841 6.08239 16.3871 6.54228 16.3871C6.98239 16.3871 7.15839 16.0198 7.15839 15.5618V13.9025H7.67695V15.6631C7.67695 16.379 7.20805 16.7846 6.52602 16.7846C5.74511 16.7846 5.33905 16.4074 5.33905 15.6348V13.9025H5.91825ZM8.88897 14.9508C9.07464 14.7568 9.33304 14.6636 9.59232 14.6636C10.0731 14.6636 10.3275 14.922 10.3275 15.432V16.7356H9.78194V15.4933C9.78194 15.2096 9.65472 15.0233 9.37061 15.0233C9.10342 15.0233 8.89358 15.1975 8.89358 15.5298V16.7356H8.34734V14.7117H8.88897V14.9508ZM10.9696 16.7356H11.516V14.7117H10.9696V16.7356ZM10.916 14.1048C10.916 13.9512 11.0471 13.793 11.2328 13.793C11.4218 13.793 11.569 13.9471 11.569 14.1048C11.569 14.2786 11.4424 14.4448 11.2407 14.4448C11.0474 14.4448 10.916 14.2786 10.916 14.1048ZM12.725 16.7356L11.8505 14.7032H12.4294C12.6065 15.1688 12.7902 15.6067 12.9625 16.1692H12.9708C13.1565 15.6067 13.3312 15.1688 13.5199 14.7032H14.0326L13.1066 16.7356H12.725ZM15.6586 15.4812C15.6799 15.1727 15.5687 14.9629 15.2982 14.9629C14.9847 14.9629 14.844 15.2096 14.85 15.4812H15.6586ZM14.841 15.7726C14.8286 16.1534 15.0998 16.4361 15.4408 16.4361C15.6434 16.4361 15.8561 16.3674 15.9923 16.274L16.1483 16.5577C15.8688 16.7194 15.5766 16.7846 15.3426 16.7846C14.7219 16.7846 14.2578 16.3511 14.2578 15.6834C14.2578 15.0598 14.7175 14.6636 15.3055 14.6636C15.9466 14.6636 16.214 15.1692 16.1736 15.7726H14.841ZM17.2461 15.0679H17.2538L17.365 14.9101C17.426 14.8207 17.5495 14.6636 17.7181 14.6636C17.8413 14.6636 17.9734 14.7284 18.0885 14.8453L17.8824 15.2178C17.7921 15.1727 17.7343 15.149 17.624 15.149C17.4348 15.149 17.25 15.2988 17.25 15.7357V16.7356H16.7018V14.7117H17.2461V15.0679ZM19.5473 15.0921C19.4242 15.0031 19.2968 14.9629 19.1975 14.9629C19.0744 14.9629 18.951 15.0314 18.951 15.1692C18.951 15.3311 19.1487 15.4245 19.3785 15.5898C19.6712 15.8053 19.7567 16.0156 19.7567 16.2008C19.7567 16.4851 19.4398 16.7846 18.9885 16.7846C18.7046 16.7846 18.4952 16.6871 18.3025 16.5537L18.475 16.274C18.5976 16.3718 18.7741 16.4682 18.9217 16.4682C19.0791 16.4682 19.2181 16.3871 19.2181 16.2173C19.2181 16.027 19.0041 15.922 18.8075 15.7842C18.573 15.6267 18.4133 15.4726 18.4133 15.2222C18.4133 14.9018 18.7249 14.6636 19.1274 14.6636C19.3544 14.6636 19.5756 14.7199 19.7246 14.8499L19.5473 15.0921ZM21.1043 15.659C20.8375 15.744 20.702 15.8936 20.702 16.1241C20.702 16.3026 20.8171 16.4241 20.9496 16.4241C21.1665 16.4241 21.4504 16.1567 21.4097 15.5618L21.1043 15.659ZM21.2779 16.5416C21.1296 16.6631 20.9406 16.7846 20.7521 16.7846C20.4313 16.7846 20.1632 16.5416 20.1632 16.1692C20.1632 15.7842 20.4475 15.57 20.9245 15.432L21.4097 15.2903C21.3811 15.1044 21.2119 14.9873 21.0362 14.9873C20.8011 14.9873 20.6365 15.0723 20.4928 15.1938L20.3155 14.9387C20.571 14.7324 20.8211 14.6636 21.1043 14.6636C21.4833 14.6636 21.948 14.7842 21.948 15.4164V16.2417C21.948 16.4038 21.968 16.5946 22.0344 16.7356H21.455C21.4128 16.6666 21.4011 16.5497 21.4011 16.4403L21.2779 16.5416ZM22.5604 16.7356H23.1075V13.7607H22.5604V16.7356ZM27.9488 15.659C27.6812 15.744 27.5456 15.8936 27.5456 16.1241C27.5456 16.3026 27.6601 16.4241 27.7924 16.4241C28.0092 16.4241 28.2933 16.1567 28.2533 15.5618L27.9488 15.659ZM28.1202 16.5416C27.973 16.6631 27.7836 16.7846 27.5944 16.7846C27.2742 16.7846 27.0064 16.5416 27.0064 16.1692C27.0064 15.7842 27.2903 15.57 27.7677 15.432L28.2533 15.2903C28.2232 15.1044 28.0556 14.9873 27.8776 14.9873C27.644 14.9873 27.4792 15.0723 27.3355 15.1938L27.1587 14.9387C27.4135 14.7324 27.6647 14.6636 27.9488 14.6636C28.3261 14.6636 28.7901 14.7842 28.7901 15.4164V16.2417C28.7901 16.4038 28.8106 16.5946 28.876 16.7356H28.2975C28.2569 16.6666 28.2432 16.5497 28.2432 16.4403L28.1202 16.5416ZM29.9455 14.9508C30.1307 14.7568 30.39 14.6636 30.6486 14.6636C31.1294 14.6636 31.384 14.922 31.384 15.432V16.7356H30.8376V15.4933C30.8376 15.2096 30.7101 15.0233 30.4264 15.0233C30.159 15.0233 29.9496 15.1975 29.9496 15.5298V16.7356H29.4032V14.7117H29.9455V14.9508ZM25.1016 16.3948H25.3973C25.7181 16.3948 25.9614 16.2292 25.9614 15.9139C25.9614 15.5816 25.7104 15.4401 25.394 15.4401H25.1016V16.3948ZM25.1016 15.0921H25.2833C25.6166 15.0921 25.8429 14.8818 25.8429 14.6181C25.8429 14.3676 25.6529 14.2586 25.4024 14.2586H25.1013V15.0921H25.1016ZM24.5226 16.7433V13.9102H25.5628C26.0473 13.9102 26.389 14.1286 26.389 14.5131C26.389 14.9662 26.015 15.1529 25.8137 15.2052V15.2134C26.1714 15.2298 26.5696 15.4722 26.5696 15.9053C26.5696 16.3948 26.1541 16.7433 25.4769 16.7433H24.5226Z" fill="white"/>
<path fill-rule="evenodd" clip-rule="evenodd" d="M33.9597 12.2938L33.9597 12.5136L5.33904 12.5135L5.33904 12.2938L33.9597 12.2938Z" fill="white"/>
<path fill-rule="evenodd" clip-rule="evenodd" d="M10.935 10.9832V9.14278C10.935 8.62071 10.6555 8.37286 10.1862 8.37286C9.79594 8.37286 9.45843 8.60489 9.31078 8.83692C9.21585 8.54688 8.97855 8.37286 8.60413 8.37286C8.2139 8.37286 7.8764 8.61544 7.77093 8.76837V8.43614H7.1012V10.9832H7.77093V9.26934C7.87112 9.12696 8.06624 8.96876 8.29827 8.96876C8.57249 8.96876 8.67796 9.13751 8.67796 9.37481V10.9832H9.35296V9.26407C9.44789 9.12696 9.643 8.96876 9.88031 8.96876C10.1545 8.96876 10.26 9.13751 10.26 9.37481V10.9832H10.935ZM12.7754 11.0465C11.937 11.0465 11.4307 10.4348 11.4307 9.70704C11.4307 8.98458 11.937 8.37286 12.7754 8.37286C13.6192 8.37286 14.1254 8.98458 14.1254 9.70704C14.1254 10.4348 13.6192 11.0465 12.7754 11.0465ZM12.7754 10.4506C13.192 10.4506 13.4294 10.1078 13.4294 9.70704C13.4294 9.31153 13.192 8.96876 12.7754 8.96876C12.3588 8.96876 12.1268 9.31153 12.1268 9.70704C12.1268 10.1078 12.3588 10.4506 12.7754 10.4506ZM17.01 10.9832V9.18497C17.01 8.68926 16.7411 8.37286 16.1821 8.37286C15.7655 8.37286 15.4544 8.57325 15.2909 8.76837V8.43614H14.6212V10.9832H15.2909V9.26934C15.4016 9.11641 15.6073 8.96876 15.871 8.96876C16.1557 8.96876 16.3403 9.09005 16.3403 9.44337V10.9832H17.01ZM18.8557 11.0465C18.0173 11.0465 17.511 10.4348 17.511 9.70704C17.511 8.98458 18.0173 8.37286 18.8557 8.37286C19.6995 8.37286 20.2057 8.98458 20.2057 9.70704C20.2057 10.4348 19.6995 11.0465 18.8557 11.0465ZM18.8557 10.4506C19.2723 10.4506 19.5097 10.1078 19.5097 9.70704C19.5097 9.31153 19.2723 8.96876 18.8557 8.96876C18.4391 8.96876 18.2071 9.31153 18.2071 9.70704C18.2071 10.1078 18.4391 10.4506 18.8557 10.4506ZM21.3712 10.1658C21.4819 10.3293 21.7298 10.4506 21.946 10.4506C22.3362 10.4506 22.5946 10.1553 22.5946 9.71232C22.5946 9.26934 22.3362 8.96876 21.946 8.96876C21.7298 8.96876 21.4819 9.09532 21.3712 9.26407V10.1658ZM21.3712 10.9832H20.7015V7.46582H21.3712V8.76309C21.5716 8.50469 21.8563 8.37286 22.1569 8.37286C22.8056 8.37286 23.2855 8.87911 23.2855 9.71232C23.2855 10.5613 22.8003 11.0465 22.1569 11.0465C21.8511 11.0465 21.5716 10.9094 21.3712 10.6563V10.9832ZM25.9907 10.9832H25.321V10.7195C25.147 10.9252 24.8464 11.0465 24.5142 11.0465C24.1081 11.0465 23.6282 10.7723 23.6282 10.2027C23.6282 9.60685 24.1081 9.38009 24.5142 9.38009C24.8517 9.38009 25.1523 9.49083 25.321 9.69122V9.34845C25.321 9.09005 25.0995 8.9213 24.762 8.9213C24.4878 8.9213 24.2347 9.02149 24.0185 9.22188L23.7653 8.77364C24.0765 8.49942 24.4773 8.37286 24.878 8.37286C25.4581 8.37286 25.9907 8.60489 25.9907 9.3379V10.9832ZM24.7831 10.593C24.9993 10.593 25.2103 10.5192 25.321 10.3715V10.0551C25.2103 9.90743 24.9993 9.8336 24.7831 9.8336C24.5194 9.8336 24.3032 9.97072 24.3032 10.2186C24.3032 10.4559 24.5194 10.593 24.7831 10.593ZM29.0441 10.9832V9.18497C29.0441 8.68926 28.7751 8.37286 28.2161 8.37286C27.7995 8.37286 27.4884 8.57325 27.3249 8.76837V8.43614H26.6552V10.9832H27.3249V9.26934C27.4357 9.11641 27.6413 8.96876 27.905 8.96876C28.1898 8.96876 28.3743 9.09005 28.3743 9.44337V10.9832H29.0441ZM32.1976 10.9832L31.1587 9.59103L32.166 8.43614H31.3433L30.3783 9.56993V7.46582H29.7085V10.9832H30.3783V10.3293L30.6841 10.0024L31.3591 10.9832H32.1976Z" fill="white"/>
</g>
<defs>
<clipPath id="clip0_31_4748">
<rect width="37.6587" height="24.1016" fill="white" transform="translate(0.820007 0.074585)"/>
</clipPath>
</defs>
</svg>
