<svg width="30" height="13" viewBox="0 0 30 13" fill="none" xmlns="http://www.w3.org/2000/svg">
<path d="M5.83219 1.87892C5.49675 2.27703 4.96005 2.59104 4.42336 2.54618C4.35627 2.00789 4.61903 1.43595 4.92651 1.0827C5.26195 0.673377 5.84896 0.381804 6.32416 0.359375C6.38007 0.920094 6.16203 1.4696 5.83219 1.87892ZM6.31857 2.65271C5.54148 2.60786 4.87619 3.09568 4.50721 3.09568C4.13264 3.09568 3.56799 2.67514 2.95303 2.68636C2.15357 2.69757 1.41002 3.15175 1.00191 3.87508C0.163315 5.32174 0.783872 7.46368 1.59451 8.64119C1.99144 9.22434 2.46664 9.86356 3.09279 9.84113C3.6854 9.8187 3.9202 9.45423 4.6358 9.45423C5.35699 9.45423 5.56384 9.84113 6.18999 9.82991C6.8385 9.8187 7.24661 9.24677 7.64354 8.66362C8.09638 8.00197 8.28087 7.35714 8.29205 7.3235C8.28087 7.31229 7.03976 6.83568 7.02858 5.40024C7.0174 4.2003 8.00693 3.62837 8.05166 3.59472C7.4926 2.76486 6.62046 2.67514 6.31857 2.65271ZM10.8078 1.02663V9.76824H12.1608V6.7796H14.0336C15.7443 6.7796 16.9463 5.6021 16.9463 3.89751C16.9463 2.19293 15.7667 1.02663 14.0783 1.02663H10.8078ZM12.1608 2.1705H13.7205C14.8946 2.1705 15.5654 2.7985 15.5654 3.90312C15.5654 5.00773 14.8946 5.64135 13.7149 5.64135H12.1608V2.1705ZM19.4174 9.83552C20.2671 9.83552 21.0554 9.40377 21.4132 8.71969H21.4412V9.76824H22.6934V5.41706C22.6934 4.15544 21.6871 3.3424 20.1385 3.3424C18.7018 3.3424 17.6395 4.16666 17.6004 5.29931H18.8192C18.9198 4.76102 19.4174 4.40776 20.0994 4.40776C20.9268 4.40776 21.3908 4.79466 21.3908 5.50677V5.98899L19.7025 6.08992C18.1315 6.18524 17.2817 6.83007 17.2817 7.95151C17.2817 9.08416 18.1595 9.83552 19.4174 9.83552ZM19.7807 8.79819C19.0596 8.79819 18.6011 8.45055 18.6011 7.91786C18.6011 7.36836 19.0428 7.04875 19.887 6.99828L21.3908 6.90296V7.3964C21.3908 8.21504 20.6976 8.79819 19.7807 8.79819ZM24.365 12.1457C25.6844 12.1457 26.305 11.641 26.8473 10.1103L29.2233 3.42651H27.848L26.2547 8.59073H26.2267L24.6334 3.42651H23.219L25.5111 9.79066L25.3881 10.1776C25.1813 10.8336 24.8458 11.0859 24.2476 11.0859C24.1414 11.0859 23.9346 11.0747 23.8507 11.0635V12.112C23.929 12.1345 24.2644 12.1457 24.365 12.1457Z" fill="white"/>
</svg>
