<svg width="28" height="12" viewBox="0 0 28 12" fill="none" xmlns="http://www.w3.org/2000/svg">
<path d="M5.48438 1.77879C5.17498 2.146 4.67994 2.43562 4.18491 2.39425C4.12303 1.89774 4.36539 1.37021 4.649 1.04438C4.9584 0.666825 5.49985 0.397885 5.93816 0.377197C5.98973 0.89439 5.78862 1.40124 5.48438 1.77879ZM5.933 2.49251C5.21623 2.45114 4.60259 2.9011 4.26226 2.9011C3.91676 2.9011 3.39594 2.5132 2.82871 2.52355C2.09132 2.53389 1.40548 2.95282 1.02905 3.61999C0.255556 4.95435 0.827941 6.93003 1.57565 8.01613C1.94177 8.55401 2.38009 9.14361 2.95763 9.12292C3.50423 9.10224 3.72081 8.76606 4.38086 8.76606C5.04606 8.76606 5.23686 9.12292 5.8144 9.11258C6.41257 9.10223 6.789 8.5747 7.15512 8.03682C7.57281 7.42653 7.74298 6.83176 7.75329 6.80073C7.74298 6.79038 6.59821 6.35077 6.5879 5.02676C6.57758 3.91997 7.49031 3.39243 7.53156 3.3614C7.0159 2.59595 6.21146 2.5132 5.933 2.49251ZM10.0738 0.992656V9.05569H11.3217V6.29905H13.0492C14.6271 6.29905 15.7358 5.21295 15.7358 3.64068C15.7358 2.06842 14.6477 0.992656 13.0904 0.992656H10.0738ZM11.3217 2.04773H12.7604C13.8433 2.04773 14.4621 2.62698 14.4621 3.64585C14.4621 4.66472 13.8433 5.24915 12.7552 5.24915H11.3217V2.04773ZM18.015 9.11775C18.7988 9.11775 19.5259 8.71951 19.8559 8.08854H19.8817V9.05569H21.0368V5.04227C21.0368 3.87859 20.1086 3.12866 18.6802 3.12866C17.3549 3.12866 16.3752 3.88893 16.3391 4.93366H17.4632C17.556 4.43716 18.015 4.11133 18.6441 4.11133C19.4073 4.11133 19.8353 4.46819 19.8353 5.12502V5.56981L18.278 5.6629C16.829 5.75083 16.0452 6.3456 16.0452 7.37998C16.0452 8.42471 16.8547 9.11775 18.015 9.11775ZM18.3502 8.16094C17.685 8.16094 17.2621 7.84029 17.2621 7.34895C17.2621 6.8421 17.6695 6.5473 18.4481 6.50076L19.8353 6.41283V6.86796C19.8353 7.62306 19.1959 8.16094 18.3502 8.16094ZM22.5786 11.2486C23.7956 11.2486 24.368 10.7831 24.8681 9.37117L27.0597 3.20624H25.7912L24.3215 7.96958H24.2958L22.8261 3.20624H21.5215L23.6357 9.07638L23.5223 9.43324C23.3315 10.0384 23.0221 10.2711 22.4703 10.2711C22.3723 10.2711 22.1815 10.2607 22.1042 10.2504V11.2176C22.1764 11.2382 22.4858 11.2486 22.5786 11.2486Z" fill="white"/>
</svg>
