<svg width="36" height="24" viewBox="0 0 36 24" fill="none" xmlns="http://www.w3.org/2000/svg">
<g clip-path="url(#clip0_31_5066)">
<rect x="0.544098" y="0.90918" width="34.7354" height="22.2307" rx="2.08412" fill="black"/>
<path d="M6.63613 12.2159C6.76258 12.2422 6.87613 12.2551 7.04284 12.2551C7.69573 12.2551 8.13564 11.8413 8.13564 11.3159C8.13564 10.8432 7.79587 10.6727 7.35631 10.6727C7.16258 10.6727 7.016 10.6859 6.92275 10.7118L6.63613 12.2159ZM6.26951 10.1669C6.54289 10.101 6.9496 10.0618 7.34942 10.0618C7.76955 10.0618 8.20946 10.1469 8.50262 10.3771C8.76257 10.574 8.91586 10.8625 8.91586 11.2571C8.91586 11.7822 8.66244 12.2095 8.34244 12.4588C7.98271 12.7412 7.46898 12.8791 6.93582 12.8791C6.77565 12.8791 6.63613 12.8591 6.51605 12.8462L6.18934 14.521H5.42978L6.26951 10.1669Z" fill="white"/>
<path d="M10.9751 11.874C10.8953 11.854 10.7955 11.8413 10.6555 11.8413C9.94219 11.8413 9.38219 12.6362 9.38219 13.3652C9.38219 13.6996 9.50881 13.9757 9.84894 13.9757C10.2152 13.9757 10.6555 13.5295 10.8088 12.7149L10.9751 11.874ZM10.662 14.521C10.662 14.3301 10.6885 14.0744 10.7155 13.8047H10.7021C10.3823 14.3896 9.94872 14.593 9.53548 14.593C8.9557 14.593 8.5753 14.1464 8.5753 13.503C8.5753 12.4128 9.34863 11.2503 10.8619 11.2503C11.2151 11.2503 11.5952 11.3159 11.8486 11.3947L11.5086 13.0628C11.415 13.5356 11.3619 14.14 11.3753 14.521H10.662Z" fill="white"/>
<path d="M16.2603 13.2535C16.2603 13.693 16.4936 14.0025 16.8936 14.0025C17.4735 14.0025 17.8603 13.214 17.8603 12.5771C17.8603 12.2484 17.7066 11.8413 17.2404 11.8413C16.6204 11.8413 16.2603 12.6559 16.2603 13.2535ZM18.6601 12.5708C18.6601 13.6606 17.8933 14.593 16.7871 14.593C15.9668 14.593 15.4606 14.0349 15.4606 13.2728C15.4606 12.1896 16.2271 11.2505 17.3337 11.2505C18.2068 11.2505 18.6601 11.8678 18.6601 12.5708Z" fill="white"/>
<path d="M18.806 14.521L19.2261 12.3142C19.3059 11.9332 19.3525 11.5983 19.3926 11.3227H20.0863L20.0129 11.894H20.0259C20.3256 11.4669 20.7392 11.2503 21.1925 11.2503C21.6589 11.2503 22.019 11.5264 22.019 12.1305C22.019 12.2747 21.9929 12.4979 21.9593 12.6557L21.6054 14.521H20.8256L21.1719 12.7149C21.1925 12.5968 21.2123 12.4588 21.2123 12.3339C21.2123 12.0645 21.1124 11.874 20.8058 11.874C20.4526 11.874 19.9991 12.2942 19.8592 13.0434L19.5793 14.521H18.806Z" fill="white"/>
<path d="M24.0848 11.8217C23.5979 11.8217 23.2783 12.2484 23.185 12.6362C23.9847 12.6427 24.4984 12.5376 24.4984 12.1503C24.4984 11.9467 24.3317 11.8217 24.0848 11.8217ZM24.8248 14.3369C24.5046 14.501 24.0718 14.593 23.6781 14.593C22.779 14.593 22.3455 14.0483 22.3455 13.2666C22.3455 12.3011 23.065 11.2505 24.185 11.2505C24.8248 11.2505 25.2315 11.6115 25.2315 12.1503C25.2315 12.971 24.3586 13.2335 23.1054 13.2074C23.0918 13.3189 23.1185 13.5356 23.1919 13.6605C23.3187 13.8774 23.5513 13.989 23.8584 13.989C24.2254 13.989 24.5182 13.8969 24.7522 13.7788L24.8248 14.3369Z" fill="white"/>
<path d="M27.1038 11.8217C26.6175 11.8217 26.2973 12.2484 26.204 12.6362C27.0037 12.6427 27.5174 12.5376 27.5174 12.1503C27.5174 11.9467 27.3507 11.8217 27.1038 11.8217ZM27.8438 14.3369C27.5241 14.501 27.0908 14.593 26.6978 14.593C25.798 14.593 25.3645 14.0483 25.3645 13.2666C25.3645 12.3011 26.084 11.2505 27.204 11.2505C27.8438 11.2505 28.2512 11.6115 28.2512 12.1503C28.2512 12.971 27.3776 13.2335 26.1244 13.2074C26.1106 13.3189 26.1375 13.5356 26.2109 13.6605C26.3377 13.8774 26.5708 13.989 26.8774 13.989C27.2444 13.989 27.5372 13.8969 27.7712 13.7788L27.8438 14.3369Z" fill="white"/>
<path d="M28.2971 14.521L28.677 12.5506C28.7636 12.0976 28.8102 11.6051 28.843 11.3227H29.5166C29.4966 11.5393 29.4768 11.7625 29.4433 11.9927H29.4631C29.684 11.5656 30.0365 11.2503 30.4767 11.2503C30.5371 11.2503 30.5968 11.2571 30.6503 11.2571L30.4967 12.0057C30.4568 11.9989 30.4035 11.9989 30.35 11.9989C29.7963 11.9989 29.4433 12.5506 29.317 13.2335L29.0701 14.521H28.2971Z" fill="white"/>
<path d="M31.2402 11.6154H31.297C31.3553 11.6154 31.3938 11.5834 31.3938 11.535C31.3938 11.4805 31.3534 11.4567 31.2951 11.4567C31.2682 11.4567 31.2492 11.4586 31.2402 11.4607V11.6154ZM31.1845 11.4224C31.2128 11.4174 31.2532 11.4137 31.2909 11.4137C31.3498 11.4137 31.389 11.4256 31.415 11.4485C31.4364 11.4671 31.4487 11.4962 31.4487 11.5296C31.4487 11.5846 31.4136 11.6218 31.3684 11.6366V11.6387C31.4012 11.6498 31.4205 11.6803 31.4314 11.7241C31.4452 11.7826 31.4554 11.8238 31.4644 11.8403H31.4069C31.4 11.8275 31.3903 11.7918 31.3793 11.7391C31.3663 11.6806 31.3424 11.659 31.2923 11.657H31.2402V11.8403H31.1845V11.4224Z" fill="white"/>
<path d="M31.3122 11.2501C31.1003 11.2501 30.9281 11.4197 30.9281 11.6285C30.9281 11.8373 31.1003 12.0071 31.3122 12.0071C31.5241 12.0071 31.6963 11.8373 31.6963 11.6285C31.6963 11.4197 31.5241 11.2501 31.3122 11.2501ZM31.3122 11.3085C31.4913 11.3085 31.6366 11.4514 31.6366 11.6285C31.6366 11.8054 31.4913 11.9488 31.3122 11.9488C31.1326 11.9488 30.9871 11.8054 30.9871 11.6285C30.9871 11.4514 31.1326 11.3085 31.3122 11.3085Z" fill="white"/>
<path d="M12.1129 8.24317C12.1452 8.96485 12.7781 11.7188 12.7781 11.7188C13.0107 12.2766 13.211 11.7188 13.211 11.7188C13.9767 9.45635 12.4118 8.14522 12.4118 8.14522C12.0124 7.91521 12.1129 8.24317 12.1129 8.24317ZM21.1988 7.84997C21.1988 7.84997 21.9648 8.37453 21.1988 8.47283C21.1988 8.47283 18.3362 8.80061 16.2063 10.7685C16.2063 10.7685 13.0107 13.522 11.8128 16.5388C11.8128 16.5388 11.4134 16.5388 11.547 15.9488C11.68 15.3587 12.4784 12.7681 16.0394 9.58805C16.0394 9.58805 19.4686 6.50561 21.1988 7.84997Z" fill="#FF4600"/>
</g>
<defs>
<clipPath id="clip0_31_5066">
<rect width="34.7354" height="22.2307" fill="white" transform="translate(0.544098 0.90918)"/>
</clipPath>
</defs>
</svg>
