<svg width="39" height="25" viewBox="0 0 39 25" fill="none" xmlns="http://www.w3.org/2000/svg">
<g clip-path="url(#clip0_31_4751)">
<rect x="0.872314" y="0.074585" width="37.6587" height="24.1016" rx="2.25952" fill="black"/>
<path d="M7.47707 12.3329C7.61416 12.3614 7.73727 12.3754 7.91801 12.3754C8.62584 12.3754 9.10278 11.9268 9.10278 11.3572C9.10278 10.8447 8.7344 10.6598 8.25785 10.6598C8.04782 10.6598 7.8889 10.6742 7.78781 10.7023L7.47707 12.3329ZM7.07959 10.1115C7.37598 10.04 7.81691 9.99759 8.25039 9.99759C8.70587 9.99759 9.18281 10.0898 9.50063 10.3394C9.78247 10.5529 9.94866 10.8656 9.94866 11.2934C9.94866 11.8627 9.67391 12.326 9.32698 12.5963C8.93697 12.9024 8.38001 13.052 7.80198 13.052C7.62832 13.052 7.47707 13.0303 7.34687 13.0163L6.99267 14.832H6.16919L7.07959 10.1115Z" fill="white"/>
<path d="M12.1812 11.9621C12.0947 11.9404 11.9865 11.9266 11.8347 11.9266C11.0614 11.9266 10.4543 12.7885 10.4543 13.5788C10.4543 13.9413 10.5915 14.2407 10.9603 14.2407C11.3574 14.2407 11.8347 13.7569 12.0009 12.8737L12.1812 11.9621ZM11.8418 14.8318C11.8418 14.6249 11.8705 14.3476 11.8998 14.0553H11.8852C11.5385 14.6894 11.0685 14.9099 10.6204 14.9099C9.99188 14.9099 9.57947 14.4257 9.57947 13.7282C9.57947 12.5463 10.4179 11.2859 12.0585 11.2859C12.4414 11.2859 12.8535 11.357 13.1282 11.4424L12.7597 13.251C12.6582 13.7635 12.6006 14.4187 12.6151 14.8318H11.8418Z" fill="white"/>
<path d="M17.9111 13.4577C17.9111 13.9342 18.1641 14.2697 18.5977 14.2697C19.2265 14.2697 19.6458 13.4149 19.6458 12.7243C19.6458 12.368 19.4792 11.9266 18.9737 11.9266C18.3015 11.9266 17.9111 12.8098 17.9111 13.4577ZM20.5129 12.7175C20.5129 13.8991 19.6816 14.9099 18.4823 14.9099C17.5929 14.9099 17.0442 14.3048 17.0442 13.4786C17.0442 12.3043 17.8751 11.2861 19.0748 11.2861C20.0214 11.2861 20.5129 11.9553 20.5129 12.7175Z" fill="white"/>
<path d="M20.6711 14.832L21.1266 12.4395C21.2132 12.0264 21.2637 11.6633 21.3072 11.3645H22.0592L21.9796 11.984H21.9938C22.3187 11.5209 22.7671 11.2861 23.2586 11.2861C23.7642 11.2861 24.1546 11.5854 24.1546 12.2403C24.1546 12.3967 24.1263 12.6387 24.0899 12.8098L23.7062 14.832H22.8607L23.2362 12.8739C23.2586 12.7458 23.28 12.5963 23.28 12.4608C23.28 12.1688 23.1716 11.9623 22.8393 11.9623C22.4563 11.9623 21.9647 12.4178 21.813 13.23L21.5096 14.832H20.6711Z" fill="white"/>
<path d="M26.3941 11.9053C25.8663 11.9053 25.5197 12.368 25.4186 12.7885C26.2856 12.7954 26.8425 12.6815 26.8425 12.2616C26.8425 12.0409 26.6618 11.9053 26.3941 11.9053ZM27.1964 14.6323C26.8492 14.8101 26.38 14.9099 25.9532 14.9099C24.9785 14.9099 24.5084 14.3193 24.5084 13.4718C24.5084 12.4252 25.2884 11.2861 26.5027 11.2861C27.1964 11.2861 27.6373 11.6775 27.6373 12.2616C27.6373 13.1514 26.6909 13.436 25.3323 13.4077C25.3175 13.5286 25.3465 13.7635 25.4261 13.8989C25.5636 14.1341 25.8157 14.255 26.1487 14.255C26.5465 14.255 26.864 14.1552 27.1177 14.0272L27.1964 14.6323Z" fill="white"/>
<path d="M29.6672 11.9053C29.1399 11.9053 28.7928 12.368 28.6917 12.7885C29.5586 12.7954 30.1156 12.6815 30.1156 12.2616C30.1156 12.0409 29.9349 11.9053 29.6672 11.9053ZM30.4694 14.6323C30.1229 14.8101 29.653 14.9099 29.227 14.9099C28.2515 14.9099 27.7815 14.3193 27.7815 13.4718C27.7815 12.4252 28.5615 11.2861 29.7758 11.2861C30.4694 11.2861 30.9111 11.6775 30.9111 12.2616C30.9111 13.1514 29.964 13.436 28.6054 13.4077C28.5904 13.5286 28.6195 13.7635 28.6992 13.8989C28.8366 14.1341 29.0894 14.255 29.4218 14.255C29.8196 14.255 30.1371 14.1552 30.3907 14.0272L30.4694 14.6323Z" fill="white"/>
<path d="M30.9611 14.832L31.3729 12.6959C31.4667 12.2047 31.5173 11.6707 31.5529 11.3645H32.2831C32.2615 11.5994 32.24 11.8414 32.2037 12.0909H32.2251C32.4646 11.6279 32.8468 11.2861 33.3241 11.2861C33.3896 11.2861 33.4543 11.2934 33.5123 11.2934L33.3457 12.1051C33.3025 12.0977 33.2446 12.0977 33.1866 12.0977C32.5864 12.0977 32.2037 12.6959 32.0668 13.4362L31.7991 14.832H30.9611Z" fill="white"/>
<path d="M34.1517 11.6816H34.2134C34.2766 11.6816 34.3183 11.6469 34.3183 11.5945C34.3183 11.5355 34.2745 11.5096 34.2113 11.5096C34.1822 11.5096 34.1615 11.5117 34.1517 11.514V11.6816ZM34.0914 11.4725C34.1221 11.467 34.1659 11.463 34.2067 11.463C34.2706 11.463 34.3131 11.4759 34.3413 11.5008C34.3645 11.5209 34.3779 11.5524 34.3779 11.5887C34.3779 11.6483 34.3398 11.6886 34.2907 11.7047V11.7069C34.3264 11.719 34.3472 11.752 34.3591 11.7995C34.374 11.8629 34.3851 11.9076 34.3949 11.9255H34.3325C34.325 11.9116 34.3145 11.8729 34.3026 11.8158C34.2884 11.7524 34.2626 11.729 34.2082 11.7267H34.1517V11.9255H34.0914V11.4725Z" fill="white"/>
<path d="M34.2298 11.2859C34 11.2859 33.8134 11.4698 33.8134 11.6961C33.8134 11.9225 34 12.1066 34.2298 12.1066C34.4595 12.1066 34.6462 11.9225 34.6462 11.6961C34.6462 11.4698 34.4595 11.2859 34.2298 11.2859ZM34.2298 11.3492C34.4239 11.3492 34.5815 11.5041 34.5815 11.6961C34.5815 11.888 34.4239 12.0434 34.2298 12.0434C34.0351 12.0434 33.8773 11.888 33.8773 11.6961C33.8773 11.5041 34.0351 11.3492 34.2298 11.3492Z" fill="white"/>
<path d="M13.4147 8.02573C13.4498 8.80814 14.136 11.7939 14.136 11.7939C14.3881 12.3986 14.6052 11.7939 14.6052 11.7939C15.4354 9.34101 13.7389 7.91954 13.7389 7.91954C13.3058 7.67017 13.4147 8.02573 13.4147 8.02573ZM23.2653 7.59944C23.2653 7.59944 24.0958 8.16814 23.2653 8.27472C23.2653 8.27472 20.1619 8.63008 17.8526 10.7636C17.8526 10.7636 14.3881 13.7488 13.0894 17.0195C13.0894 17.0195 12.6563 17.0195 12.8013 16.3799C12.9455 15.7401 13.8111 12.9315 17.6717 9.4838C17.6717 9.4838 21.3895 6.14194 23.2653 7.59944Z" fill="#FF4600"/>
</g>
<defs>
<clipPath id="clip0_31_4751">
<rect width="37.6587" height="24.1016" fill="white" transform="translate(0.872314 0.074585)"/>
</clipPath>
</defs>
</svg>
