<svg width="19" height="19" viewBox="0 0 19 19" fill="none" xmlns="http://www.w3.org/2000/svg">
<g clip-path="url(#clip0_31_4629)">
<path d="M12.1655 15.4513C12.195 15.4562 12.2243 15.4586 12.2532 15.4586C12.5074 15.4586 12.7318 15.275 12.7749 15.016L13.3045 11.8385C13.3526 11.5501 13.1577 11.2772 12.8692 11.2291C12.5807 11.1809 12.3078 11.3759 12.2598 11.6644L11.7302 14.8419C11.6821 15.1304 11.877 15.4033 12.1655 15.4513Z" fill="black"/>
<path d="M5.86951 15.0159C5.91268 15.275 6.13701 15.4586 6.39124 15.4586C6.42016 15.4586 6.44946 15.4562 6.47894 15.4513C6.76746 15.4032 6.96234 15.1303 6.91425 14.8418L6.38468 11.6644C6.33659 11.3758 6.06379 11.181 5.77524 11.2291C5.48673 11.2771 5.29185 11.55 5.33993 11.8385L5.86951 15.0159Z" fill="black"/>
<path d="M17.813 6.98517H15.9492L11.8716 1.88818C11.6889 1.65987 11.3557 1.62276 11.1272 1.8055C10.8989 1.9882 10.8618 2.32145 11.0446 2.54984L14.5928 6.98517H4.01607L7.56437 2.54984C7.74707 2.32145 7.71003 1.98817 7.48168 1.8055C7.25326 1.62276 6.92001 1.65983 6.73735 1.88818L2.65972 6.98517H0.795933C0.503466 6.98517 0.266357 7.22228 0.266357 7.51475V9.63305C0.266357 9.92551 0.503466 10.1626 0.795933 10.1626H1.45564L3.46422 17.1926C3.52914 17.42 3.73695 17.5767 3.97339 17.5767H14.6355C14.8719 17.5767 15.0797 17.42 15.1447 17.1926L17.1532 10.1626H17.813C18.1054 10.1626 18.3425 9.92551 18.3425 9.63305V7.51475C18.3425 7.22228 18.1054 6.98517 17.813 6.98517ZM14.2361 16.5175H4.37283L2.55716 10.1626H16.0518L14.2361 16.5175ZM17.2834 9.10347C15.4692 9.10347 3.04416 9.10347 1.32551 9.10347V8.04432H17.2834V9.10347Z" fill="black"/>
<path d="M9.30448 15.4584C9.59694 15.4584 9.83405 15.2213 9.83405 14.9288V11.7513C9.83405 11.4589 9.59694 11.2218 9.30448 11.2218C9.01201 11.2218 8.7749 11.4589 8.7749 11.7513V14.9288C8.7749 15.2213 9.01201 15.4584 9.30448 15.4584Z" fill="black"/>
</g>
<defs>
<clipPath id="clip0_31_4629">
<rect width="18.0762" height="18.0762" fill="white" transform="translate(0.265869 0.595215)"/>
</clipPath>
</defs>
</svg>
