<svg width="24" height="23" viewBox="0 0 24 23" fill="none" xmlns="http://www.w3.org/2000/svg">
<g clip-path="url(#clip0_31_5012)">
<path fill-rule="evenodd" clip-rule="evenodd" d="M11.9278 0.825439C5.99129 0.825439 1.16852 5.64832 1.16852 11.5848C1.16852 17.5214 5.9913 22.344 11.9278 22.344C17.8643 22.344 22.6871 17.5214 22.6871 11.5848C22.6871 5.64831 17.8644 0.825439 11.9278 0.825439ZM18.3687 15.0626C18.2951 15.2413 17.9484 15.4933 16.7296 15.6826C16.6245 15.7034 16.593 15.8295 16.5299 16.1029C16.5104 16.2021 16.4858 16.3003 16.4564 16.3971C16.4249 16.4914 16.3723 16.5336 16.2778 16.5336H16.2672C16.1747 16.5314 16.0829 16.5173 15.9941 16.4914C15.7513 16.4472 15.5053 16.4227 15.2586 16.4181C15.0826 16.4168 14.9068 16.4308 14.7332 16.46C14.3654 16.5232 14.0607 16.7437 13.7245 16.9749C13.2517 17.3112 12.7579 17.6579 11.9908 17.6579H11.8227C11.0557 17.6579 10.5619 17.3112 10.0891 16.9749C9.76335 16.7437 9.44814 16.5232 9.08039 16.46C8.90681 16.4308 8.73102 16.4168 8.55501 16.4181C8.30772 16.4224 8.06141 16.4505 7.81951 16.5021C7.72984 16.5241 7.63842 16.5381 7.5463 16.544C7.50346 16.5487 7.46041 16.5373 7.42547 16.5121C7.39054 16.4869 7.36621 16.4496 7.35719 16.4074C7.32566 16.3024 7.30466 16.1973 7.28362 16.1029C7.23108 15.8506 7.18909 15.7034 7.08402 15.6826C5.86516 15.4932 5.51845 15.2413 5.44487 15.0626C5.43299 15.036 5.42588 15.0076 5.42388 14.9786C5.42316 14.9456 5.43452 14.9136 5.4558 14.8884C5.47709 14.8633 5.50684 14.8468 5.53944 14.8421C7.40973 14.5268 8.2503 12.6145 8.28181 12.5305H8.29234C8.40791 12.2993 8.42891 12.0891 8.35538 11.9315C8.22927 11.6267 7.80898 11.4902 7.53581 11.4062C7.47175 11.3883 7.40864 11.3672 7.3467 11.3429C6.78981 11.1224 6.74777 10.9019 6.76879 10.7861C6.81079 10.5867 7.06297 10.4498 7.28361 10.4498C7.33442 10.4491 7.38473 10.46 7.43072 10.4816C7.6829 10.597 7.90355 10.66 8.09268 10.66C8.36586 10.66 8.48143 10.5445 8.49193 10.5341C8.49193 10.408 8.48143 10.2714 8.47093 10.1346C8.4184 9.25219 8.34486 8.14894 8.62854 7.51851C9.46911 5.63762 11.2448 5.4907 11.7702 5.4907H12.0329C12.5582 5.4907 14.3444 5.63762 15.185 7.51851C15.4687 8.14896 15.3952 9.25219 15.3426 10.1346V10.1768C15.3321 10.2922 15.3216 10.4184 15.3216 10.5341C15.3321 10.5445 15.4372 10.6496 15.6788 10.66C15.868 10.6496 16.0781 10.5867 16.3093 10.4816C16.3724 10.4545 16.4402 10.4401 16.5089 10.4394C16.5854 10.4407 16.6607 10.4586 16.7296 10.492H16.74C16.9187 10.5549 17.0448 10.6917 17.0448 10.8283C17.0553 10.9544 16.9502 11.1539 16.4669 11.3429C16.4143 11.364 16.3513 11.3851 16.2882 11.4062C16.0045 11.4901 15.5842 11.6267 15.4582 11.9315C15.3846 12.0891 15.4056 12.2993 15.5212 12.5305H15.5317C15.5632 12.6145 16.4038 14.5268 18.2741 14.8421C18.3067 14.8468 18.3365 14.8633 18.3577 14.8884C18.379 14.9136 18.3904 14.9456 18.3897 14.9786C18.3877 15.0076 18.3806 15.036 18.3686 15.0626H18.3687Z" fill="#1F2937"/>
</g>
<defs>
<clipPath id="clip0_31_5012">
<rect width="22.2307" height="22.2307" fill="white" transform="translate(0.876541 0.475098)"/>
</clipPath>
</defs>
</svg>
