<svg width="25" height="25" viewBox="0 0 25 25" fill="none" xmlns="http://www.w3.org/2000/svg">
<g clip-path="url(#clip0_31_4697)">
<path fill-rule="evenodd" clip-rule="evenodd" d="M12.6745 0.825073C6.23835 0.825073 1.0097 6.05385 1.0097 12.49C1.0097 18.9261 6.23836 24.1546 12.6745 24.1546C19.1106 24.1546 24.3393 18.9261 24.3393 12.49C24.3393 6.05383 19.1106 0.825073 12.6745 0.825073ZM19.6574 16.2604C19.5777 16.4541 19.2017 16.7273 17.8804 16.9326C17.7664 16.9551 17.7323 17.0919 17.6639 17.3883C17.6427 17.4958 17.6161 17.6023 17.5842 17.7072C17.55 17.8095 17.493 17.8552 17.3905 17.8552H17.3791C17.2788 17.8529 17.1793 17.8375 17.083 17.8095C16.8197 17.7615 16.5531 17.7349 16.2856 17.73C16.0947 17.7286 15.9042 17.7438 15.716 17.7754C15.3173 17.8439 14.9869 18.083 14.6224 18.3337C14.1098 18.6983 13.5744 19.0741 12.7428 19.0741H12.5606C11.729 19.0741 11.1936 18.6983 10.681 18.3337C10.3279 18.083 9.98612 17.8439 9.58743 17.7754C9.39924 17.7438 9.20866 17.7286 9.01784 17.73C8.74973 17.7347 8.48269 17.7652 8.22044 17.8211C8.12322 17.8449 8.02411 17.86 7.92423 17.8665C7.87779 17.8716 7.83112 17.8592 7.79324 17.8319C7.75536 17.8045 7.72898 17.7641 7.71921 17.7184C7.68502 17.6045 7.66225 17.4906 7.63945 17.3883C7.58249 17.1148 7.53696 16.9551 7.42304 16.9326C6.10161 16.7273 5.72572 16.4541 5.64595 16.2604C5.63307 16.2316 5.62536 16.2008 5.62319 16.1693C5.62242 16.1336 5.63473 16.0989 5.6578 16.0716C5.68088 16.0443 5.71313 16.0264 5.74848 16.0213C7.77617 15.6796 8.68748 13.6063 8.72164 13.5152H8.73306C8.85836 13.2645 8.88112 13.0367 8.8014 12.8658C8.66468 12.5354 8.20902 12.3873 7.91286 12.2962C7.84341 12.2769 7.77498 12.254 7.70784 12.2277C7.10408 11.9886 7.0585 11.7495 7.08129 11.624C7.12683 11.4078 7.40023 11.2594 7.63944 11.2594C7.69452 11.2587 7.74906 11.2704 7.79893 11.2939C8.07233 11.419 8.31155 11.4873 8.5166 11.4873C8.81277 11.4873 8.93806 11.3621 8.94945 11.3508C8.94945 11.2141 8.93806 11.066 8.92668 10.9177C8.86972 9.96101 8.79 8.76491 9.09756 8.08143C10.0089 6.04224 11.934 5.88295 12.5036 5.88295H12.7884C13.358 5.88295 15.2945 6.04224 16.2058 8.08143C16.5134 8.76493 16.4336 9.96101 16.3767 10.9177V10.9634C16.3653 11.0886 16.3539 11.2253 16.3539 11.3508C16.3653 11.3621 16.4792 11.476 16.7412 11.4873C16.9463 11.476 17.1741 11.4078 17.4247 11.2939C17.4931 11.2645 17.5667 11.2489 17.6411 11.2482C17.7241 11.2495 17.8057 11.2689 17.8803 11.3051H17.8917C18.0854 11.3733 18.2221 11.5217 18.2221 11.6697C18.2335 11.8065 18.1195 12.0227 17.5955 12.2277C17.5386 12.2505 17.4702 12.2734 17.4019 12.2962C17.0943 12.3873 16.6386 12.5353 16.502 12.8658C16.4222 13.0367 16.445 13.2645 16.5703 13.5152H16.5817C16.6159 13.6063 17.5272 15.6796 19.5549 16.0213C19.5902 16.0264 19.6225 16.0443 19.6455 16.0716C19.6686 16.0989 19.6809 16.1336 19.6802 16.1693C19.678 16.2008 19.6703 16.2316 19.6574 16.2604H19.6574Z" fill="#1F2937"/>
</g>
<defs>
<clipPath id="clip0_31_4697">
<rect width="24.1016" height="24.1016" fill="white" transform="translate(0.692993 0.445435)"/>
</clipPath>
</defs>
</svg>
