<svg width="23" height="23" viewBox="0 0 23 23" fill="none" xmlns="http://www.w3.org/2000/svg">
<g clip-path="url(#clip0_31_5008)">
<path d="M11.6467 0.476074C9.44826 0.476074 7.29922 1.12798 5.47131 2.34935C3.6434 3.57071 2.21872 5.30669 1.37743 7.33775C0.536131 9.36881 0.31601 11.6037 0.744898 13.7599C1.17379 15.9161 2.23242 17.8966 3.78693 19.4511C5.34144 21.0056 7.322 22.0643 9.47817 22.4932C11.6343 22.9221 13.8693 22.7019 15.9003 21.8606C17.9314 21.0193 19.6674 19.5947 20.8887 17.7668C22.1101 15.9388 22.762 13.7898 22.762 11.5914C22.762 8.64344 21.5909 5.81621 19.5064 3.73168C17.4219 1.64715 14.5946 0.476074 11.6467 0.476074V0.476074ZM16.6573 10.3526C15.6657 10.4623 14.816 10.0704 13.9663 9.57017C13.9663 9.65207 13.9911 12.191 13.9487 13.402C13.9063 14.6467 13.4617 15.7421 12.4862 16.5597C10.4181 18.2957 7.4828 17.3582 6.78224 14.7037C6.40198 13.2572 6.73251 11.9541 7.86745 10.923C8.50658 10.338 9.29489 10.0777 10.1402 9.96945C10.3216 9.94605 10.5044 9.93581 10.7004 9.91826V11.8839C10.4518 11.9453 10.2002 11.9995 9.95304 12.0726C9.78156 12.1221 9.61431 12.1852 9.45285 12.2613C9.22759 12.3626 9.02869 12.5144 8.87155 12.7049C8.7144 12.8954 8.60324 13.1196 8.54667 13.36C8.4901 13.6004 8.48965 13.8507 8.54534 14.0913C8.60103 14.3319 8.71138 14.5565 8.86783 14.7476C9.05596 15.0077 9.31184 15.2113 9.60762 15.3361C9.9034 15.4609 10.2278 15.5022 10.5454 15.4554C11.1845 15.3779 11.5852 14.9757 11.8222 14.398C11.986 13.9408 12.0571 13.4556 12.0313 12.9706C12.0225 10.5837 12.0225 8.19831 12.0182 5.81143C12.0202 5.78689 12.0236 5.76247 12.0284 5.73831H13.937C14.1505 7.3354 14.9608 8.34748 16.6573 8.49081V10.3526Z" fill="#1F2937"/>
</g>
<defs>
<clipPath id="clip0_31_5008">
<rect width="22.2307" height="22.2307" fill="white" transform="translate(0.530548 0.475098)"/>
</clipPath>
</defs>
</svg>
