<svg width="25" height="25" viewBox="0 0 25 25" fill="none" xmlns="http://www.w3.org/2000/svg">
<g clip-path="url(#clip0_31_4693)">
<path d="M12.5905 0.445923C10.2071 0.445923 7.87722 1.15269 5.89547 2.47685C3.91373 3.801 2.36915 5.68308 1.45705 7.88507C0.544955 10.0871 0.306309 12.5101 0.771292 14.8477C1.23627 17.1853 2.384 19.3326 4.06934 21.0179C5.75467 22.7032 7.90192 23.851 10.2395 24.3159C12.5772 24.7809 15.0002 24.5423 17.2022 23.6302C19.4042 22.7181 21.2863 21.1735 22.6104 19.1918C23.9346 17.21 24.6413 14.8801 24.6413 12.4967C24.6413 9.30064 23.3717 6.23548 21.1117 3.97552C18.8518 1.71556 15.7866 0.445923 12.5905 0.445923V0.445923ZM18.0229 11.1537C16.9479 11.2726 16.0266 10.8477 15.1053 10.3054C15.1053 10.3942 15.1323 13.1468 15.0863 14.4597C15.0403 15.8091 14.5583 16.9967 13.5007 17.8831C11.2586 19.7652 8.07625 18.7488 7.31673 15.8709C6.90446 14.3027 7.26282 12.8899 8.49327 11.7721C9.18619 11.1378 10.0408 10.8556 10.9573 10.7382C11.154 10.7129 11.3522 10.7018 11.5646 10.6827V12.8138C11.2951 12.8804 11.0223 12.9391 10.7544 13.0184C10.5685 13.0721 10.3871 13.1405 10.2121 13.2229C9.96788 13.3328 9.75224 13.4973 9.58187 13.7039C9.4115 13.9105 9.29098 14.1535 9.22965 14.4142C9.16832 14.6748 9.16783 14.9461 9.22821 15.207C9.28859 15.4678 9.40822 15.7113 9.57784 15.9185C9.7818 16.2005 10.0592 16.4212 10.3799 16.5565C10.7006 16.6918 11.0522 16.7366 11.3966 16.6859C12.0895 16.6019 12.5239 16.1659 12.7808 15.5395C12.9584 15.0439 13.0355 14.5178 13.0076 13.992C12.998 11.4042 12.998 8.81805 12.9933 6.2303C12.9955 6.20369 12.9992 6.17722 13.0044 6.15102H15.0736C15.3051 7.88253 16.1836 8.97978 18.0229 9.13517V11.1537Z" fill="#1F2937"/>
</g>
<defs>
<clipPath id="clip0_31_4693">
<rect width="24.1016" height="24.1016" fill="white" transform="translate(0.540649 0.445435)"/>
</clipPath>
</defs>
</svg>
