<svg width="25" height="25" viewBox="0 0 25 25" fill="none" xmlns="http://www.w3.org/2000/svg">
<g clip-path="url(#clip0_31_4689)">
<path d="M12.2864 0.445557C5.63199 0.445557 0.235657 5.84189 0.235657 12.4963C0.235657 19.1508 5.63199 24.5471 12.2864 24.5471C18.9409 24.5471 24.3372 19.1508 24.3372 12.4963C24.3372 5.84189 18.9409 0.445557 12.2864 0.445557ZM17.7887 9.84148C17.794 9.96008 17.7966 10.0792 17.7966 10.1989C17.7966 13.8539 15.0145 18.0687 9.9267 18.0688H9.92689H9.9267C8.36464 18.0688 6.91107 17.611 5.68697 16.8264C5.9034 16.8519 6.12369 16.8646 6.34674 16.8646C7.64273 16.8646 8.83537 16.4226 9.78217 15.6806C8.57132 15.6582 7.55042 14.8585 7.1981 13.7594C7.36672 13.7918 7.54012 13.8094 7.71793 13.8094C7.9704 13.8094 8.21496 13.7754 8.44739 13.712C7.18174 13.4586 6.22832 12.34 6.22832 11.0007C6.22832 10.9882 6.22832 10.9769 6.22869 10.9654C6.60141 11.1726 7.02765 11.2973 7.48146 11.3112C6.73877 10.8157 6.25057 9.96854 6.25057 9.00887C6.25057 8.50209 6.38756 8.02731 6.62513 7.61855C7.98916 9.29222 10.0277 10.3929 12.3265 10.5086C12.2791 10.306 12.2546 10.0949 12.2546 9.87788C12.2546 8.35094 13.4934 7.11214 15.0209 7.11214C15.8166 7.11214 16.5352 7.44846 17.0399 7.98612C17.6701 7.86182 18.2618 7.6316 18.7964 7.31478C18.5895 7.96038 18.1511 8.50209 17.58 8.84466C18.1395 8.77773 18.6728 8.62934 19.1683 8.40905C18.7982 8.96381 18.3288 9.4511 17.7887 9.84148Z" fill="#1F2937"/>
</g>
<defs>
<clipPath id="clip0_31_4689">
<rect width="24.1016" height="24.1016" fill="white" transform="translate(0.235962 0.445435)"/>
</clipPath>
</defs>
</svg>
