<svg width="28" height="10" viewBox="0 0 28 10" fill="none" xmlns="http://www.w3.org/2000/svg">
<path d="M27.2065 2.65169H25.8111L24.9866 6.08991L24.8598 6.56744C24.7646 6.59927 24.7012 6.59927 24.6061 6.63111C24.4792 6.66294 24.3524 6.66294 24.1938 6.66294C24.0035 6.66294 23.8767 6.63111 23.7498 6.56744C23.6547 6.50377 23.5595 6.44009 23.5278 6.34459C23.4961 6.24908 23.4644 6.12174 23.4644 5.9944C23.4644 5.86706 23.4961 5.70788 23.5278 5.58054L23.9718 3.79776L24.2572 2.61986H22.8302L22.1642 5.38953C22.069 5.73972 22.0373 6.05807 22.0373 6.31275C22.0373 6.63111 22.069 6.88579 22.1642 7.10864C22.2593 7.33148 22.4496 7.5225 22.7033 7.64984C22.957 7.77718 23.3058 7.84085 23.7181 7.84085C24.0352 7.84085 24.3206 7.80901 24.5426 7.74534H24.5743C24.5109 8.03186 24.3841 8.25471 24.1621 8.44572C23.9401 8.63673 23.6547 8.73224 23.2741 8.73224C23.1156 8.73224 22.9253 8.73224 22.7984 8.7004L22.513 9.84647C22.7033 9.87831 22.9253 9.87831 23.1473 9.87831C23.5913 9.87831 23.9718 9.81464 24.2572 9.71913C24.5743 9.62363 24.8598 9.46445 25.1135 9.27344C25.3354 9.08243 25.5574 8.82774 25.716 8.50939C25.8746 8.19104 26.0014 7.84085 26.0965 7.45883L27.0479 3.35207L27.2065 2.65169ZM21.3397 5.61238C21.2445 5.96256 21.2128 6.34459 21.2445 6.69478C21.2762 7.0768 21.4348 7.58617 21.5616 7.87268H20.198C20.0394 7.58617 20.0394 7.45883 20.0077 7.36332C19.8175 7.5225 19.6272 7.618 19.4052 7.71351C19.1832 7.80901 18.9612 7.87268 18.6758 7.87268C18.3587 7.87268 18.0733 7.80901 17.8513 7.71351C17.6293 7.618 17.439 7.45883 17.2804 7.26781C17.1219 7.0768 17.0267 6.85395 16.9633 6.59927C16.8999 6.34459 16.8682 6.08991 16.8682 5.77155C16.8682 5.32586 16.9633 4.912 17.0902 4.56181C17.2487 4.17979 17.4707 3.8296 17.7561 3.57492C18.0415 3.2884 18.6758 2.65169 19.7857 2.65169H21.9739L21.3397 5.61238ZM20.3249 3.86143C19.6589 3.86143 19.532 3.86143 19.2783 3.98877C19.0881 4.08428 18.9295 4.24346 18.7709 4.43447C18.6441 4.59365 18.5172 4.81649 18.4221 5.03934C18.327 5.26219 18.2952 5.51687 18.2952 5.77155C18.2952 6.08991 18.3587 6.31275 18.4538 6.50377C18.549 6.69478 18.7392 6.75845 19.0246 6.75845C19.1832 6.75845 19.3101 6.72661 19.4369 6.66294C19.5638 6.59927 19.6906 6.50377 19.8175 6.37642C19.8175 6.21725 19.8492 6.05807 19.8809 5.86706C19.9126 5.67605 19.9443 5.51687 19.976 5.38953L20.3249 3.86143ZM16.5511 4.72099C16.5511 5.19852 16.4559 5.61238 16.3291 5.9944C16.1705 6.37642 15.9485 6.72661 15.6948 6.9813C15.4094 7.26781 15.0923 7.49066 14.7434 7.64984C14.3629 7.80901 13.9506 7.90452 13.5384 7.90452C13.3164 7.90452 13.0944 7.87268 12.8724 7.84085L12.4284 9.55996H11.0331L12.6504 2.68353H14.5215C14.8703 2.68353 15.1874 2.7472 15.4094 2.8427C15.6631 2.93821 15.8851 3.09739 16.0437 3.2884C16.2022 3.47941 16.3291 3.70226 16.4242 3.95694C16.5193 4.17979 16.5511 4.43447 16.5511 4.72099ZM13.0944 6.66294C13.1895 6.69478 13.3481 6.69478 13.5066 6.69478C13.7604 6.69478 13.9823 6.66294 14.2043 6.56744C14.3946 6.47193 14.5849 6.34459 14.7434 6.18541C14.902 6.02624 14.9971 5.80339 15.0923 5.58054C15.1874 5.35769 15.2191 5.07118 15.2191 4.78466C15.2191 4.49814 15.1557 4.27529 15.0289 4.08428C14.902 3.89327 14.68 3.79776 14.3946 3.79776H13.8238L13.0944 6.66294ZM10.1768 6.66294C9.98655 6.66294 9.8597 6.63111 9.73285 6.56744C9.63771 6.50377 9.54257 6.44009 9.51086 6.34459C9.47915 6.24908 9.44744 6.12174 9.44744 5.9944C9.44744 5.86706 9.47915 5.70788 9.51086 5.58054L9.95484 3.79776H11.5405L11.8259 2.61986H10.2085L10.5891 1.12359L9.0986 1.37828L8.14722 5.42136C8.05208 5.77155 8.02037 6.08991 8.02037 6.34459C8.02037 6.66294 8.05208 6.91762 8.14722 7.14047C8.24236 7.36332 8.43264 7.55433 8.68634 7.68167C8.94004 7.80901 9.28887 7.87268 9.70114 7.87268C10.0183 7.87268 10.3037 7.84085 10.5257 7.77718C10.5574 7.77718 10.5891 7.77718 10.6208 7.74534L10.9062 6.5356C10.8111 6.56744 10.7159 6.59927 10.6208 6.59927C10.4622 6.66294 10.3354 6.66294 10.1768 6.66294ZM6.5933 2.65169L5.35651 7.87268H6.75187L7.98866 2.65169H6.5933ZM8.11551 2.04682L8.3375 1.15543H6.94214L6.72016 2.04682H8.11551ZM3.48547 2.65169C3.8026 2.65169 4.0563 2.71536 4.27829 2.81087C4.50027 2.90637 4.69055 3.06555 4.84911 3.25656C5.00768 3.44757 5.10281 3.67042 5.16624 3.9251C5.22966 4.17979 5.26138 4.43447 5.26138 4.72099C5.26138 5.16668 5.16624 5.58054 5.00768 5.96256C4.84911 6.34459 4.62712 6.69478 4.34171 6.9813C4.0563 7.29965 3.73917 7.49066 3.35862 7.68167C2.97807 7.84085 2.56581 7.93636 2.15354 7.93636H1.8047C1.64614 7.93636 1.48758 7.93635 1.2973 7.90452C1.10703 7.87268 0.916751 7.84085 0.694763 7.77718C0.472775 7.71351 0.2825 7.64984 0.0922241 7.55433L1.74128 0.646065L3.20006 0.423218L2.59752 2.87454C2.72437 2.81087 2.85122 2.77903 2.97807 2.7472C3.20006 2.65169 3.32691 2.65169 3.48547 2.65169ZM2.21697 6.72661C2.43896 6.72661 2.66094 6.66294 2.85122 6.56744C3.04149 6.47193 3.23177 6.31275 3.35862 6.12174C3.51718 5.93073 3.61232 5.73972 3.70746 5.51687C3.8026 5.29402 3.83431 5.03934 3.83431 4.78466C3.83431 4.4663 3.77088 4.24346 3.67575 4.05245C3.58061 3.89327 3.35862 3.79776 3.07321 3.79776C2.97807 3.79776 2.88293 3.79776 2.75608 3.8296C2.59752 3.86143 2.50238 3.9251 2.37553 4.02061L1.74128 6.63111C1.93155 6.66294 1.99498 6.66294 2.02669 6.66294C2.09012 6.72661 2.15354 6.72661 2.21697 6.72661Z" fill="white"/>
</svg>
