<svg width="35" height="24" viewBox="0 0 35 24" fill="none" xmlns="http://www.w3.org/2000/svg">
<g clip-path="url(#clip0_31_5065)">
<rect x="0.251022" y="0.90918" width="34.7354" height="22.2307" rx="2.08412" fill="#0D0D0D"/>
<path d="M3.42063 10.5674H4.12574L4.29396 11.8192H4.29931L4.48449 10.5674H5.29974L5.48427 11.8192H5.48963L5.65824 10.5674H6.36334L5.93399 12.5569H5.07932L4.89505 11.268H4.8897L4.70504 12.5569H3.85064L3.42063 10.5674Z" fill="#FDDF12"/>
<path d="M6.82349 10.5674H8.33681V11.0861H7.57871V11.2977H8.27886V11.816H7.57871V12.0392H8.36147V12.5569H6.82349V10.5674Z" fill="#FDDF12"/>
<path d="M9.95156 11.1325C9.94856 11.0085 9.87978 10.967 9.77773 10.967C9.65127 10.967 9.59568 11.0221 9.59568 11.0831C9.59568 11.1541 9.64253 11.1847 9.72513 11.2096C9.87678 11.2541 10.155 11.3086 10.356 11.3944C10.6073 11.4988 10.7172 11.6784 10.7172 11.9177C10.7172 12.4055 10.3206 12.6096 9.75789 12.6096C9.27855 12.6096 8.83784 12.4608 8.83784 11.9426H9.59307C9.59307 11.9982 9.60429 12.053 9.63443 12.0947C9.66458 12.1326 9.7143 12.1574 9.78856 12.1574C9.90418 12.1574 9.97909 12.083 9.97909 11.9951C9.97909 11.921 9.92115 11.8825 9.84637 11.8601L9.28691 11.6951C8.9814 11.604 8.87412 11.4189 8.87412 11.163C8.87412 10.7494 9.20756 10.5152 9.78856 10.5152C10.2845 10.5152 10.6571 10.67 10.6571 11.1325H9.95156Z" fill="#FDDF12"/>
<path d="M11.6347 11.1026H11.1445V10.5673H12.9133V11.1026H12.4228V12.5566H11.6347V11.1026Z" fill="#FDDF12"/>
<path d="M13.4256 10.5674H14.9386V11.0861H14.1812V11.2977H14.881V11.816H14.1812V12.0392H14.9638V12.5569H13.4256V10.5674Z" fill="#FDDF12"/>
<path d="M15.5258 10.5674H16.7026C17.1297 10.5674 17.3806 10.6973 17.3806 11.0724C17.3806 11.3011 17.2839 11.474 16.9858 11.5461V11.5515C17.1791 11.5682 17.2839 11.6532 17.3222 11.8053C17.3662 11.9759 17.3612 12.2569 17.4518 12.5569H16.6805C16.6339 12.4082 16.609 12.1575 16.5811 11.9871C16.5652 11.8874 16.5152 11.8496 16.3885 11.8496H16.2973V12.5569H15.5258V10.5674ZM16.3634 11.397C16.5152 11.397 16.6253 11.3446 16.6253 11.1963C16.6253 11.0502 16.5232 11.0197 16.3685 11.0197H16.2973V11.397H16.3634Z" fill="#FDDF12"/>
<path d="M17.9789 10.5674H18.9236L19.3446 11.772H19.3506V10.5674H19.9901V12.5569H19.0454L18.6233 11.3446H18.6177V12.5569H17.9789V10.5674Z" fill="#FDDF12"/>
<path d="M10.7006 14.2726C10.7006 14.7524 10.356 14.9924 9.75559 14.9924C9.15475 14.9924 8.81062 14.7524 8.81062 14.2726V12.9505H9.59846V14.2397C9.59846 14.3967 9.67298 14.4582 9.75559 14.4582C9.8382 14.4582 9.91271 14.3967 9.91271 14.2397V12.9505H10.7006V14.2726Z" fill="#FDDF12"/>
<path d="M11.3321 12.9505H12.2772L12.6985 14.1549H12.7041V12.9505H13.3431V14.9404H12.3982L11.977 13.7274H11.9708V14.9404H11.3321V12.9505Z" fill="#FDDF12"/>
<path d="M13.9887 12.9505H14.7759V14.9404H13.9887V12.9505Z" fill="#FDDF12"/>
<path d="M16.3769 12.8981C17.0632 12.8981 17.405 13.325 17.405 13.9451C17.405 14.565 17.0632 14.9924 16.3769 14.9924C15.691 14.9924 15.3496 14.565 15.3496 13.9451C15.3496 13.325 15.691 12.8981 16.3769 12.8981ZM16.3769 14.4743C16.4989 14.4743 16.589 14.4052 16.589 13.9451C16.589 13.4958 16.5042 13.416 16.3769 13.416C16.2506 13.416 16.165 13.4958 16.165 13.9451C16.165 14.4052 16.2566 14.4743 16.3769 14.4743Z" fill="#FDDF12"/>
<path d="M17.9789 12.9505H18.9236L19.3446 14.1549H19.3506V12.9505H19.9901V14.9404H19.0454L18.6233 13.7274H18.6177V14.9404H17.9789V12.9505Z" fill="#FDDF12"/>
<path d="M27.4083 10.5392H27.0725L26.6965 13.3318H26.6844L26.2727 10.5392H24.4534L24.0407 13.3318H24.0288L23.6539 10.5392H22.0808L23.0397 14.9771H24.946L25.3573 12.1021H25.3698L25.7811 14.9771H27.6873L27.7828 14.5332C27.5391 14.2743 27.4083 13.9273 27.4083 13.4892V10.5392Z" fill="#FDDF12"/>
<path d="M27.4083 10.5392V13.4892C27.4083 13.9273 27.5391 14.2743 27.7828 14.5332L28.6452 10.5392H27.4083Z" fill="white"/>
<path d="M29.8667 10.5392V13.4159C29.8667 13.7661 29.7006 13.9024 29.5163 13.9024C29.332 13.9024 29.1659 13.7661 29.1659 13.4159V10.5392H28.7908L27.905 14.6437C28.2644 14.9427 28.8086 15.095 29.5163 15.095C30.856 15.095 31.6246 14.5594 31.6246 13.4893V10.5392H29.8667Z" fill="#FDDF12"/>
<path d="M20.9275 10.5392H20.6657L21.6078 14.9771H21.8698L20.9275 10.5392Z" fill="#FDDF12"/>
<path d="M22.3237 14.9771H22.5856L21.6434 10.5392H21.3818L22.3237 14.9771Z" fill="#FDDF12"/>
<path d="M32.1552 10.7514C32.1528 10.7217 32.1368 10.7069 32.1063 10.7069C32.083 10.7069 32.0594 10.7192 32.0594 10.7449C32.0594 10.7766 32.0879 10.7804 32.1131 10.7864C32.158 10.7979 32.2239 10.8105 32.2239 10.8694C32.2239 10.9423 32.1604 10.9675 32.0972 10.9675C32.0301 10.9675 31.9825 10.9416 31.9845 10.8674H32.0488C32.0464 10.8999 32.0652 10.922 32.0981 10.922C32.1233 10.922 32.1569 10.9143 32.1569 10.883C32.1569 10.8482 32.1148 10.8458 32.0895 10.8394C32.0485 10.8292 31.9922 10.8105 31.9922 10.7583C31.9922 10.6913 32.0541 10.6614 32.1144 10.6614C32.1715 10.6614 32.2158 10.6923 32.2158 10.7514H32.1552Z" fill="#FDDF12"/>
<path d="M32.4564 10.9612H32.4038L32.3261 10.7089L32.3252 10.7097V10.9612H32.2661V10.6673H32.3696L32.4311 10.8811H32.4318L32.4987 10.6673H32.5984V10.9612H32.5394V10.7097L32.5387 10.7089L32.4564 10.9612Z" fill="#FDDF12"/>
</g>
<defs>
<clipPath id="clip0_31_5065">
<rect width="34.7354" height="22.2307" fill="white" transform="translate(0.251022 0.90918)"/>
</clipPath>
</defs>
</svg>
